%TF.GenerationSoftware,KiCad,Pcbnew,9.0.7*%
%TF.CreationDate,2026-03-14T23:14:57+00:00*%
%TF.ProjectId,rgbtohdmi-audio,72676274-6f68-4646-9d69-2d617564696f,rev?*%
%TF.SameCoordinates,Original*%
%TF.FileFunction,Copper,L1,Top*%
%TF.FilePolarity,Positive*%
%FSLAX46Y46*%
G04 Gerber Fmt 4.6, Leading zero omitted, Abs format (unit mm)*
G04 Created by KiCad (PCBNEW 9.0.7) date 2026-03-14 23:14:57*
%MOMM*%
%LPD*%
G01*
G04 APERTURE LIST*
G04 Aperture macros list*
%AMRoundRect*
0 Rectangle with rounded corners*
0 $1 Rounding radius*
0 $2 $3 $4 $5 $6 $7 $8 $9 X,Y pos of 4 corners*
0 Add a 4 corners polygon primitive as box body*
4,1,4,$2,$3,$4,$5,$6,$7,$8,$9,$2,$3,0*
0 Add four circle primitives for the rounded corners*
1,1,$1+$1,$2,$3*
1,1,$1+$1,$4,$5*
1,1,$1+$1,$6,$7*
1,1,$1+$1,$8,$9*
0 Add four rect primitives between the rounded corners*
20,1,$1+$1,$2,$3,$4,$5,0*
20,1,$1+$1,$4,$5,$6,$7,0*
20,1,$1+$1,$6,$7,$8,$9,0*
20,1,$1+$1,$8,$9,$2,$3,0*%
%AMFreePoly0*
4,1,23,0.500000,-0.750000,0.000000,-0.750000,0.000000,-0.745722,-0.065263,-0.745722,-0.191342,-0.711940,-0.304381,-0.646677,-0.396677,-0.554381,-0.461940,-0.441342,-0.495722,-0.315263,-0.495722,-0.250000,-0.500000,-0.250000,-0.500000,0.250000,-0.495722,0.250000,-0.495722,0.315263,-0.461940,0.441342,-0.396677,0.554381,-0.304381,0.646677,-0.191342,0.711940,-0.065263,0.745722,0.000000,0.745722,
0.000000,0.750000,0.500000,0.750000,0.500000,-0.750000,0.500000,-0.750000,$1*%
%AMFreePoly1*
4,1,23,0.000000,0.745722,0.065263,0.745722,0.191342,0.711940,0.304381,0.646677,0.396677,0.554381,0.461940,0.441342,0.495722,0.315263,0.495722,0.250000,0.500000,0.250000,0.500000,-0.250000,0.495722,-0.250000,0.495722,-0.315263,0.461940,-0.441342,0.396677,-0.554381,0.304381,-0.646677,0.191342,-0.711940,0.065263,-0.745722,0.000000,-0.745722,0.000000,-0.750000,-0.500000,-0.750000,
-0.500000,0.750000,0.000000,0.750000,0.000000,0.745722,0.000000,0.745722,$1*%
G04 Aperture macros list end*
%TA.AperFunction,SMDPad,CuDef*%
%ADD10RoundRect,0.237500X0.250000X0.237500X-0.250000X0.237500X-0.250000X-0.237500X0.250000X-0.237500X0*%
%TD*%
%TA.AperFunction,SMDPad,CuDef*%
%ADD11FreePoly0,0.000000*%
%TD*%
%TA.AperFunction,SMDPad,CuDef*%
%ADD12FreePoly1,0.000000*%
%TD*%
%TA.AperFunction,SMDPad,CuDef*%
%ADD13RoundRect,0.237500X-0.250000X-0.237500X0.250000X-0.237500X0.250000X0.237500X-0.250000X0.237500X0*%
%TD*%
%TA.AperFunction,SMDPad,CuDef*%
%ADD14RoundRect,0.237500X-0.300000X-0.237500X0.300000X-0.237500X0.300000X0.237500X-0.300000X0.237500X0*%
%TD*%
%TA.AperFunction,SMDPad,CuDef*%
%ADD15RoundRect,0.162500X-0.617500X-0.162500X0.617500X-0.162500X0.617500X0.162500X-0.617500X0.162500X0*%
%TD*%
%TA.AperFunction,SMDPad,CuDef*%
%ADD16RoundRect,0.500000X-1.500000X0.500000X-1.500000X-0.500000X1.500000X-0.500000X1.500000X0.500000X0*%
%TD*%
%TA.AperFunction,ComponentPad*%
%ADD17R,1.700000X1.700000*%
%TD*%
%TA.AperFunction,ComponentPad*%
%ADD18C,1.700000*%
%TD*%
%TA.AperFunction,SMDPad,CuDef*%
%ADD19RoundRect,0.100000X-0.100000X0.637500X-0.100000X-0.637500X0.100000X-0.637500X0.100000X0.637500X0*%
%TD*%
%TA.AperFunction,SMDPad,CuDef*%
%ADD20RoundRect,0.237500X0.300000X0.237500X-0.300000X0.237500X-0.300000X-0.237500X0.300000X-0.237500X0*%
%TD*%
%TA.AperFunction,SMDPad,CuDef*%
%ADD21R,1.750000X0.900000*%
%TD*%
%TA.AperFunction,ViaPad*%
%ADD22C,0.800000*%
%TD*%
%TA.AperFunction,ViaPad*%
%ADD23C,0.600000*%
%TD*%
%TA.AperFunction,Conductor*%
%ADD24C,0.200000*%
%TD*%
%TA.AperFunction,Conductor*%
%ADD25C,0.400000*%
%TD*%
%TA.AperFunction,Conductor*%
%ADD26C,0.250000*%
%TD*%
G04 APERTURE END LIST*
D10*
%TO.P,R4,1*%
%TO.N,Net-(U2-D)*%
X149606000Y-51308000D03*
%TO.P,R4,2*%
%TO.N,/AUDIO_CLOCK*%
X147781000Y-51308000D03*
%TD*%
D11*
%TO.P,JP1,1,A*%
%TO.N,Net-(JP1-A)*%
X160274000Y-60706000D03*
D12*
%TO.P,JP1,2,B*%
%TO.N,GND*%
X161574000Y-60706000D03*
%TD*%
D13*
%TO.P,R1,1*%
%TO.N,/~{PRESENT}*%
X147828000Y-49022000D03*
%TO.P,R1,2*%
%TO.N,GND*%
X149653000Y-49022000D03*
%TD*%
D14*
%TO.P,C9,1*%
%TO.N,Net-(U1-VREF)*%
X159819000Y-52578000D03*
%TO.P,C9,2*%
%TO.N,GND*%
X161544000Y-52578000D03*
%TD*%
D10*
%TO.P,R5,1*%
%TO.N,Net-(JP1-A)*%
X157480000Y-60706000D03*
%TO.P,R5,2*%
%TO.N,+3.3V*%
X155655000Y-60706000D03*
%TD*%
D13*
%TO.P,R2,1*%
%TO.N,/RIGHT_CLEAN*%
X166831000Y-52324000D03*
%TO.P,R2,2*%
%TO.N,Net-(C1-Pad1)*%
X168656000Y-52324000D03*
%TD*%
D14*
%TO.P,C8,1*%
%TO.N,+5V*%
X156464000Y-49784000D03*
%TO.P,C8,2*%
%TO.N,GND*%
X158189000Y-49784000D03*
%TD*%
D15*
%TO.P,U2,1,D*%
%TO.N,Net-(U2-D)*%
X147922000Y-57404000D03*
%TO.P,U2,2,C*%
%TO.N,Net-(U1-BCK)*%
X147922000Y-58354000D03*
%TO.P,U2,3,GND*%
%TO.N,GND*%
X147922000Y-59304000D03*
%TO.P,U2,4,~{Q}*%
%TO.N,Net-(U2-D)*%
X150622000Y-59304000D03*
%TO.P,U2,5,VCC*%
%TO.N,+3.3V*%
X150622000Y-57404000D03*
%TD*%
D16*
%TO.P,P2,1,Pin_1*%
%TO.N,GND*%
X176784000Y-55372000D03*
%TD*%
D13*
%TO.P,R3,1*%
%TO.N,/LEFT_CLEAN*%
X166831000Y-58420000D03*
%TO.P,R3,2*%
%TO.N,Net-(C4-Pad1)*%
X168656000Y-58420000D03*
%TD*%
D17*
%TO.P,J1,1,3V3*%
%TO.N,unconnected-(J1-3V3-Pad1)*%
X139192000Y-45720000D03*
D18*
%TO.P,J1,2,5V*%
%TO.N,+5V*%
X139192000Y-43180000D03*
%TO.P,J1,3,SDA/GPIO2*%
%TO.N,unconnected-(J1-SDA{slash}GPIO2-Pad3)*%
X141732000Y-45720000D03*
%TO.P,J1,4,5V*%
%TO.N,+5V*%
X141732000Y-43180000D03*
%TO.P,J1,5,SCL/GPIO3*%
%TO.N,unconnected-(J1-SCL{slash}GPIO3-Pad5)*%
X144272000Y-45720000D03*
%TO.P,J1,6,GND*%
%TO.N,unconnected-(J1-GND-Pad6)*%
X144272000Y-43180000D03*
%TO.P,J1,7,GCLK0/GPIO4*%
%TO.N,unconnected-(J1-GCLK0{slash}GPIO4-Pad7)*%
X146812000Y-45720000D03*
%TO.P,J1,8,GPIO14/TXD*%
%TO.N,/~{PRESENT}*%
X146812000Y-43180000D03*
%TO.P,J1,9,GND*%
%TO.N,GND*%
X149352000Y-45720000D03*
%TO.P,J1,10,GPIO15/RXD*%
%TO.N,/AUDIO_CLOCK*%
X149352000Y-43180000D03*
%TO.P,J1,11,GPIO17*%
%TO.N,unconnected-(J1-GPIO17-Pad11)*%
X151892000Y-45720000D03*
%TO.P,J1,12,GPIO18/PWM0*%
%TO.N,unconnected-(J1-GPIO18{slash}PWM0-Pad12)*%
X151892000Y-43180000D03*
%TO.P,J1,13,GPIO27*%
%TO.N,unconnected-(J1-GPIO27-Pad13)*%
X154432000Y-45720000D03*
%TO.P,J1,14,GND*%
%TO.N,GND*%
X154432000Y-43180000D03*
%TO.P,J1,15,GPIO22*%
%TO.N,unconnected-(J1-GPIO22-Pad15)*%
X156972000Y-45720000D03*
%TO.P,J1,16,GPIO23*%
%TO.N,unconnected-(J1-GPIO23-Pad16)*%
X156972000Y-43180000D03*
%TO.P,J1,17,3V3*%
%TO.N,+3.3V*%
X159512000Y-45720000D03*
%TO.P,J1,18,GPIO24*%
%TO.N,/AUDIO_DATA1*%
X159512000Y-43180000D03*
%TO.P,J1,19,MOSI0/GPIO10*%
%TO.N,unconnected-(J1-MOSI0{slash}GPIO10-Pad19)*%
X162052000Y-45720000D03*
%TO.P,J1,20,GND*%
%TO.N,GND*%
X162052000Y-43180000D03*
%TO.P,J1,21,MISO0/GPIO9*%
%TO.N,unconnected-(J1-MISO0{slash}GPIO9-Pad21)*%
X164592000Y-45720000D03*
%TO.P,J1,22,GPIO25*%
%TO.N,/AUDIO_DATA2*%
X164592000Y-43180000D03*
%TD*%
D14*
%TO.P,C4,1*%
%TO.N,Net-(C4-Pad1)*%
X170995000Y-58420000D03*
%TO.P,C4,2*%
%TO.N,/LEFT_IN*%
X172720000Y-58420000D03*
%TD*%
D19*
%TO.P,U1,1,VREF*%
%TO.N,Net-(U1-VREF)*%
X157540000Y-52001500D03*
%TO.P,U1,2,AGND*%
%TO.N,GND*%
X156890000Y-52001500D03*
%TO.P,U1,3,VCC*%
%TO.N,+5V*%
X156240000Y-52001500D03*
%TO.P,U1,4,VDD*%
%TO.N,+3.3V*%
X155590000Y-52001500D03*
%TO.P,U1,5,DGND*%
%TO.N,GND*%
X154940000Y-52001500D03*
%TO.P,U1,6,SCKI*%
%TO.N,Net-(U1-SCKI)*%
X154290000Y-52001500D03*
%TO.P,U1,7,LRCK*%
%TO.N,Net-(U1-LRCK)*%
X153640000Y-52001500D03*
%TO.P,U1,8,BCK*%
%TO.N,Net-(U1-BCK)*%
X153640000Y-57726500D03*
%TO.P,U1,9,DOUT*%
%TO.N,Net-(U1-DOUT)*%
X154290000Y-57726500D03*
%TO.P,U1,10,MD0*%
%TO.N,+3.3V*%
X154940000Y-57726500D03*
%TO.P,U1,11,MD1*%
%TO.N,Net-(JP1-A)*%
X155590000Y-57726500D03*
%TO.P,U1,12,FMT*%
%TO.N,GND*%
X156240000Y-57726500D03*
%TO.P,U1,13,VINL*%
%TO.N,/LEFT_CLEAN*%
X156890000Y-57726500D03*
%TO.P,U1,14,VINR*%
%TO.N,/RIGHT_CLEAN*%
X157540000Y-57726500D03*
%TD*%
D14*
%TO.P,C10,1*%
%TO.N,Net-(U1-VREF)*%
X159819000Y-54102000D03*
%TO.P,C10,2*%
%TO.N,GND*%
X161544000Y-54102000D03*
%TD*%
D20*
%TO.P,C6,1*%
%TO.N,+3.3V*%
X154686000Y-49784000D03*
%TO.P,C6,2*%
%TO.N,GND*%
X152961000Y-49784000D03*
%TD*%
%TO.P,C5,1*%
%TO.N,+3.3V*%
X154686000Y-48260000D03*
%TO.P,C5,2*%
%TO.N,GND*%
X152961000Y-48260000D03*
%TD*%
D14*
%TO.P,C1,1*%
%TO.N,Net-(C1-Pad1)*%
X171095500Y-52324000D03*
%TO.P,C1,2*%
%TO.N,/RIGHT_IN*%
X172820500Y-52324000D03*
%TD*%
%TO.P,C3,1*%
%TO.N,/LEFT_CLEAN*%
X166931000Y-56388000D03*
%TO.P,C3,2*%
%TO.N,GND*%
X168656000Y-56388000D03*
%TD*%
D21*
%TO.P,Y1,1,Tri-State*%
%TO.N,+3.3V*%
X147722000Y-55372000D03*
%TO.P,Y1,2,GND*%
%TO.N,GND*%
X150622000Y-55372000D03*
%TO.P,Y1,3,OUT*%
%TO.N,Net-(U1-SCKI)*%
X150622000Y-53822000D03*
%TO.P,Y1,4,VDD*%
%TO.N,+3.3V*%
X147722000Y-53822000D03*
%TD*%
D14*
%TO.P,C2,1*%
%TO.N,/RIGHT_CLEAN*%
X166931000Y-50292000D03*
%TO.P,C2,2*%
%TO.N,GND*%
X168656000Y-50292000D03*
%TD*%
D16*
%TO.P,P3,1,Pin_1*%
%TO.N,/LEFT_IN*%
X176784000Y-58420000D03*
%TD*%
D13*
%TO.P,R6,1*%
%TO.N,Net-(U1-LRCK)*%
X162513000Y-48768000D03*
%TO.P,R6,2*%
%TO.N,/AUDIO_DATA2*%
X164338000Y-48768000D03*
%TD*%
D14*
%TO.P,C7,1*%
%TO.N,+5V*%
X156464000Y-48260000D03*
%TO.P,C7,2*%
%TO.N,GND*%
X158189000Y-48260000D03*
%TD*%
D16*
%TO.P,P1,1,Pin_1*%
%TO.N,/RIGHT_IN*%
X176784000Y-52324000D03*
%TD*%
D10*
%TO.P,R7,1*%
%TO.N,Net-(U1-DOUT)*%
X149606000Y-61976000D03*
%TO.P,R7,2*%
%TO.N,/AUDIO_DATA1*%
X147781000Y-61976000D03*
%TD*%
D22*
%TO.N,GND*%
X156718000Y-56388000D03*
X155702000Y-54864000D03*
D23*
X152400000Y-54864000D03*
D22*
X152146000Y-49022000D03*
X173228000Y-54610000D03*
X146304000Y-57150000D03*
X162814000Y-54102000D03*
X163322000Y-57658000D03*
X169926000Y-50292000D03*
X150622000Y-48006000D03*
X163576000Y-60960000D03*
X159512000Y-49784000D03*
X162814000Y-52578000D03*
X159512000Y-48260000D03*
X153924000Y-54864000D03*
D23*
X152146000Y-58674000D03*
D22*
X145288000Y-49784000D03*
D23*
X152400000Y-53086000D03*
D22*
X160782000Y-55880000D03*
X169926000Y-56388000D03*
X156464000Y-53340000D03*
X158496000Y-59690000D03*
X155194000Y-53340000D03*
X173228000Y-56134000D03*
X157226000Y-54864000D03*
X154686000Y-55880000D03*
X149098000Y-60706000D03*
X150622000Y-46736000D03*
%TO.N,+3.3V*%
X154686000Y-47244000D03*
X149352000Y-52578000D03*
X155590000Y-50688000D03*
D23*
%TO.N,/AUDIO_DATA1*%
X145542000Y-51054000D03*
%TO.N,/~{PRESENT}*%
X147551000Y-49167515D03*
%TO.N,/AUDIO_CLOCK*%
X146304000Y-47498000D03*
%TO.N,Net-(U1-LRCK)*%
X159766000Y-51054000D03*
X153001758Y-52251611D03*
%TD*%
D24*
%TO.N,Net-(C1-Pad1)*%
X171095500Y-52324000D02*
X168656000Y-52324000D01*
%TO.N,/RIGHT_IN*%
X176784000Y-52324000D02*
X172820500Y-52324000D01*
%TO.N,/RIGHT_CLEAN*%
X166931000Y-52224000D02*
X166831000Y-52324000D01*
X166931000Y-50292000D02*
X166931000Y-52224000D01*
X161428500Y-57726500D02*
X166831000Y-52324000D01*
X157540000Y-57726500D02*
X161428500Y-57726500D01*
%TO.N,/LEFT_CLEAN*%
X166931000Y-58320000D02*
X166831000Y-58420000D01*
X156890000Y-57726500D02*
X156890000Y-58383870D01*
X166486000Y-58765000D02*
X166831000Y-58420000D01*
X157271130Y-58765000D02*
X166486000Y-58765000D01*
X166931000Y-56388000D02*
X166931000Y-58320000D01*
X156890000Y-58383870D02*
X157271130Y-58765000D01*
%TO.N,Net-(C4-Pad1)*%
X168656000Y-58420000D02*
X170995000Y-58420000D01*
%TO.N,/LEFT_IN*%
X172720000Y-58420000D02*
X176784000Y-58420000D01*
D25*
%TO.N,+3.3V*%
X147722000Y-55372000D02*
X148590000Y-55372000D01*
X155590000Y-50688000D02*
X155590000Y-52001500D01*
X147722000Y-53822000D02*
X147722000Y-55372000D01*
X154940000Y-56989001D02*
X154940000Y-57726500D01*
X149352000Y-52578000D02*
X148966000Y-52578000D01*
X154686000Y-49784000D02*
X155590000Y-50688000D01*
X148590000Y-55372000D02*
X150622000Y-57404000D01*
X151338000Y-56688000D02*
X154638999Y-56688000D01*
X154940000Y-59436000D02*
X154940000Y-59991000D01*
X154686000Y-49784000D02*
X154550130Y-49784000D01*
X154940000Y-59991000D02*
X155655000Y-60706000D01*
X154686000Y-48260000D02*
X154686000Y-49784000D01*
X148966000Y-52578000D02*
X147722000Y-53822000D01*
X150622000Y-57404000D02*
X151338000Y-56688000D01*
X154940000Y-57726500D02*
X154940000Y-59436000D01*
X154686000Y-47244000D02*
X154686000Y-48260000D01*
X154638999Y-56688000D02*
X154940000Y-56989001D01*
%TO.N,+5V*%
X155702000Y-47498000D02*
X156464000Y-48260000D01*
X156240000Y-51202708D02*
X156240000Y-52001500D01*
X156464000Y-48260000D02*
X156464000Y-49784000D01*
X156464000Y-50978708D02*
X156240000Y-51202708D01*
X156464000Y-49784000D02*
X156464000Y-50978708D01*
X139192000Y-43180000D02*
X141732000Y-43180000D01*
X141732000Y-43180000D02*
X142983000Y-44431000D01*
X154912182Y-44431000D02*
X155702000Y-45220818D01*
X142983000Y-44431000D02*
X154912182Y-44431000D01*
X155702000Y-45220818D02*
X155702000Y-47498000D01*
D24*
%TO.N,Net-(U1-VREF)*%
X159766000Y-52578000D02*
X159189500Y-52001500D01*
X159819000Y-54102000D02*
X159819000Y-52578000D01*
X159819000Y-52578000D02*
X159766000Y-52578000D01*
X159189500Y-52001500D02*
X157540000Y-52001500D01*
%TO.N,/AUDIO_DATA1*%
X147781000Y-61976000D02*
X145542000Y-59737000D01*
X145542000Y-59737000D02*
X145542000Y-51054000D01*
%TO.N,/AUDIO_CLOCK*%
X146304000Y-49831000D02*
X146304000Y-47498000D01*
X147781000Y-51308000D02*
X146304000Y-49831000D01*
D26*
%TO.N,/AUDIO_DATA2*%
X163416000Y-44356000D02*
X163416000Y-47846000D01*
X163416000Y-47846000D02*
X164338000Y-48768000D01*
X164592000Y-43180000D02*
X163416000Y-44356000D01*
D24*
%TO.N,Net-(JP1-A)*%
X156972000Y-59436000D02*
X157480000Y-59944000D01*
X156562001Y-59436000D02*
X156972000Y-59436000D01*
X160274000Y-60706000D02*
X157480000Y-60706000D01*
X157480000Y-59944000D02*
X157480000Y-60706000D01*
X155590000Y-58463999D02*
X156562001Y-59436000D01*
X155590000Y-57726500D02*
X155590000Y-58463999D01*
%TO.N,Net-(U1-BCK)*%
X153640000Y-57726500D02*
X153640000Y-59720000D01*
X148524000Y-58354000D02*
X147922000Y-58354000D01*
X149003000Y-58833000D02*
X148524000Y-58354000D01*
X150584010Y-60706000D02*
X149003000Y-59124990D01*
X153640000Y-59720000D02*
X152654000Y-60706000D01*
X149003000Y-59124990D02*
X149003000Y-58833000D01*
X152654000Y-60706000D02*
X150584010Y-60706000D01*
%TO.N,Net-(U1-LRCK)*%
X162052000Y-48768000D02*
X159766000Y-51054000D01*
X153640000Y-52001500D02*
X153389889Y-52251611D01*
X153389889Y-52251611D02*
X153001758Y-52251611D01*
X162513000Y-48768000D02*
X162052000Y-48768000D01*
%TO.N,Net-(U1-DOUT)*%
X154290000Y-60340000D02*
X154290000Y-57726500D01*
X154290000Y-60340000D02*
X152654000Y-61976000D01*
X152654000Y-61976000D02*
X149606000Y-61976000D01*
%TO.N,Net-(U1-SCKI)*%
X150622000Y-53822000D02*
X153188000Y-53822000D01*
X153188000Y-53822000D02*
X154290000Y-52720000D01*
X154290000Y-52720000D02*
X154290000Y-52001500D01*
%TO.N,Net-(U2-D)*%
X147922000Y-57404000D02*
X146050000Y-55532000D01*
X147922000Y-57404000D02*
X148722000Y-57404000D01*
X146050000Y-55532000D02*
X146050000Y-53567000D01*
X147533000Y-52084000D02*
X148830000Y-52084000D01*
X148722000Y-57404000D02*
X150622000Y-59304000D01*
X146050000Y-53567000D02*
X147533000Y-52084000D01*
X148830000Y-52084000D02*
X149606000Y-51308000D01*
%TD*%
%TA.AperFunction,Conductor*%
%TO.N,GND*%
G36*
X148675684Y-56025408D02*
G01*
X148683110Y-56031503D01*
X149671801Y-57020194D01*
X149686153Y-57054842D01*
X149681174Y-57076363D01*
X149651781Y-57136487D01*
X149651780Y-57136489D01*
X149641500Y-57207048D01*
X149641500Y-57600950D01*
X149641501Y-57600951D01*
X149651779Y-57671507D01*
X149651779Y-57671509D01*
X149704986Y-57780344D01*
X149704987Y-57780346D01*
X149704988Y-57780347D01*
X149790653Y-57866012D01*
X149899491Y-57919220D01*
X149970051Y-57929500D01*
X151273948Y-57929499D01*
X151273950Y-57929499D01*
X151273950Y-57929498D01*
X151344509Y-57919220D01*
X151453347Y-57866012D01*
X151539012Y-57780347D01*
X151592220Y-57671509D01*
X151602500Y-57600949D01*
X151602499Y-57207052D01*
X151600008Y-57189957D01*
X151593397Y-57144563D01*
X151602604Y-57108208D01*
X151634822Y-57089012D01*
X151641885Y-57088500D01*
X153190500Y-57088500D01*
X153225148Y-57102852D01*
X153239500Y-57137500D01*
X153239500Y-58408858D01*
X153239501Y-58408868D01*
X153242415Y-58433992D01*
X153287793Y-58536764D01*
X153287794Y-58536765D01*
X153325148Y-58574119D01*
X153339500Y-58608766D01*
X153339500Y-59575233D01*
X153325148Y-59609881D01*
X152543881Y-60391148D01*
X152509233Y-60405500D01*
X150728777Y-60405500D01*
X150694129Y-60391148D01*
X150216128Y-59913147D01*
X150201776Y-59878499D01*
X150216128Y-59843851D01*
X150250776Y-59829499D01*
X151273951Y-59829499D01*
X151273951Y-59829498D01*
X151344509Y-59819220D01*
X151453347Y-59766012D01*
X151539012Y-59680347D01*
X151592220Y-59571509D01*
X151602500Y-59500949D01*
X151602499Y-59107052D01*
X151592220Y-59036491D01*
X151577049Y-59005459D01*
X151539013Y-58927655D01*
X151539012Y-58927654D01*
X151539012Y-58927653D01*
X151453347Y-58841988D01*
X151344509Y-58788780D01*
X151320989Y-58785353D01*
X151273951Y-58778500D01*
X151273949Y-58778500D01*
X150541767Y-58778500D01*
X150507119Y-58764148D01*
X148905892Y-57162921D01*
X148894306Y-57139829D01*
X148893343Y-57140127D01*
X148892220Y-57136497D01*
X148892220Y-57136491D01*
X148839012Y-57027653D01*
X148753347Y-56941988D01*
X148644509Y-56888780D01*
X148620989Y-56885353D01*
X148573951Y-56878500D01*
X148573949Y-56878500D01*
X147841767Y-56878500D01*
X147807119Y-56864148D01*
X147049119Y-56106148D01*
X147034767Y-56071500D01*
X147049119Y-56036852D01*
X147083767Y-56022500D01*
X148616748Y-56022500D01*
X148638901Y-56018093D01*
X148675684Y-56025408D01*
G37*
%TD.AperFunction*%
%TA.AperFunction,Conductor*%
G36*
X156172220Y-42424852D02*
G01*
X156186572Y-42459500D01*
X156172220Y-42494148D01*
X156156022Y-42510345D01*
X156041058Y-42682403D01*
X155961871Y-42873576D01*
X155961869Y-42873582D01*
X155943115Y-42967868D01*
X155921500Y-43076535D01*
X155921500Y-43283465D01*
X155939308Y-43372993D01*
X155961869Y-43486417D01*
X155961871Y-43486423D01*
X156033155Y-43658517D01*
X156041059Y-43677598D01*
X156156023Y-43849655D01*
X156302345Y-43995977D01*
X156474402Y-44110941D01*
X156665580Y-44190130D01*
X156868535Y-44230500D01*
X156868538Y-44230500D01*
X157075462Y-44230500D01*
X157075465Y-44230500D01*
X157278420Y-44190130D01*
X157469598Y-44110941D01*
X157641655Y-43995977D01*
X157787977Y-43849655D01*
X157902941Y-43677598D01*
X157982130Y-43486420D01*
X158022500Y-43283465D01*
X158022500Y-43076535D01*
X157982130Y-42873580D01*
X157902941Y-42682402D01*
X157787977Y-42510345D01*
X157771780Y-42494148D01*
X157757428Y-42459500D01*
X157771780Y-42424852D01*
X157806428Y-42410500D01*
X158677572Y-42410500D01*
X158712220Y-42424852D01*
X158726572Y-42459500D01*
X158712220Y-42494148D01*
X158696022Y-42510345D01*
X158581058Y-42682403D01*
X158501871Y-42873576D01*
X158501869Y-42873582D01*
X158483115Y-42967868D01*
X158461500Y-43076535D01*
X158461500Y-43283465D01*
X158479308Y-43372993D01*
X158501869Y-43486417D01*
X158501871Y-43486423D01*
X158573155Y-43658517D01*
X158581059Y-43677598D01*
X158696023Y-43849655D01*
X158842345Y-43995977D01*
X159014402Y-44110941D01*
X159205580Y-44190130D01*
X159408535Y-44230500D01*
X159408538Y-44230500D01*
X159615462Y-44230500D01*
X159615465Y-44230500D01*
X159818420Y-44190130D01*
X160009598Y-44110941D01*
X160181655Y-43995977D01*
X160327977Y-43849655D01*
X160442941Y-43677598D01*
X160522130Y-43486420D01*
X160562500Y-43283465D01*
X160562500Y-43076535D01*
X160522130Y-42873580D01*
X160442941Y-42682402D01*
X160327977Y-42510345D01*
X160311780Y-42494148D01*
X160297428Y-42459500D01*
X160311780Y-42424852D01*
X160346428Y-42410500D01*
X161474336Y-42410500D01*
X161508984Y-42424852D01*
X161820461Y-42736329D01*
X161744993Y-42779901D01*
X161651901Y-42872993D01*
X161608329Y-42948460D01*
X161282119Y-42622251D01*
X161210120Y-42730005D01*
X161138510Y-42902887D01*
X161138505Y-42902906D01*
X161102000Y-43086427D01*
X161102000Y-43273572D01*
X161138505Y-43457093D01*
X161138510Y-43457112D01*
X161210119Y-43629990D01*
X161282119Y-43737747D01*
X161282120Y-43737748D01*
X161608329Y-43411538D01*
X161651901Y-43487007D01*
X161744993Y-43580099D01*
X161820460Y-43623670D01*
X161494251Y-43949879D01*
X161602009Y-44021880D01*
X161602008Y-44021880D01*
X161774887Y-44093489D01*
X161774906Y-44093494D01*
X161958427Y-44129999D01*
X161958434Y-44130000D01*
X162145566Y-44130000D01*
X162145572Y-44129999D01*
X162329093Y-44093494D01*
X162329112Y-44093489D01*
X162501990Y-44021880D01*
X162609747Y-43949879D01*
X162609747Y-43949878D01*
X162283538Y-43623670D01*
X162359007Y-43580099D01*
X162452099Y-43487007D01*
X162495670Y-43411538D01*
X162821878Y-43737747D01*
X162821879Y-43737747D01*
X162893880Y-43629990D01*
X162965489Y-43457112D01*
X162965494Y-43457093D01*
X163001999Y-43273572D01*
X163002000Y-43273565D01*
X163002000Y-43086434D01*
X163001999Y-43086427D01*
X162965494Y-42902906D01*
X162965489Y-42902887D01*
X162893880Y-42730009D01*
X162821879Y-42622251D01*
X162495670Y-42948460D01*
X162452099Y-42872993D01*
X162359007Y-42779901D01*
X162283538Y-42736329D01*
X162595016Y-42424852D01*
X162629664Y-42410500D01*
X163757572Y-42410500D01*
X163792220Y-42424852D01*
X163806572Y-42459500D01*
X163792220Y-42494148D01*
X163776022Y-42510345D01*
X163661058Y-42682403D01*
X163581871Y-42873576D01*
X163581869Y-42873582D01*
X163563115Y-42967868D01*
X163541500Y-43076535D01*
X163541500Y-43283465D01*
X163559308Y-43372993D01*
X163581869Y-43486417D01*
X163581872Y-43486427D01*
X163640625Y-43628269D01*
X163640625Y-43665772D01*
X163630003Y-43681668D01*
X163155536Y-44156136D01*
X163155535Y-44156137D01*
X163112682Y-44230359D01*
X163111013Y-44236591D01*
X163111012Y-44236590D01*
X163111012Y-44236594D01*
X163090500Y-44313144D01*
X163090500Y-45235732D01*
X163076148Y-45270380D01*
X163041500Y-45284732D01*
X163006852Y-45270380D01*
X162996230Y-45254484D01*
X162993244Y-45247277D01*
X162982941Y-45222402D01*
X162867977Y-45050345D01*
X162721655Y-44904023D01*
X162549598Y-44789059D01*
X162458875Y-44751480D01*
X162358423Y-44709871D01*
X162358417Y-44709869D01*
X162276572Y-44693589D01*
X162155465Y-44669500D01*
X161948535Y-44669500D01*
X161847520Y-44689592D01*
X161745582Y-44709869D01*
X161745576Y-44709871D01*
X161554403Y-44789058D01*
X161382345Y-44904022D01*
X161236022Y-45050345D01*
X161121058Y-45222403D01*
X161041871Y-45413576D01*
X161041869Y-45413582D01*
X161023115Y-45507868D01*
X161001500Y-45616535D01*
X161001500Y-45823465D01*
X161013500Y-45883793D01*
X161041869Y-46026417D01*
X161041871Y-46026423D01*
X161115537Y-46204267D01*
X161121059Y-46217598D01*
X161236023Y-46389655D01*
X161382345Y-46535977D01*
X161554402Y-46650941D01*
X161745580Y-46730130D01*
X161948535Y-46770500D01*
X161948538Y-46770500D01*
X162155462Y-46770500D01*
X162155465Y-46770500D01*
X162358420Y-46730130D01*
X162549598Y-46650941D01*
X162721655Y-46535977D01*
X162867977Y-46389655D01*
X162982941Y-46217598D01*
X162994177Y-46190471D01*
X162996230Y-46185516D01*
X163022749Y-46158997D01*
X163060251Y-46158997D01*
X163086770Y-46185516D01*
X163090500Y-46204267D01*
X163090500Y-47888856D01*
X163112681Y-47971637D01*
X163112682Y-47971640D01*
X163155535Y-48045862D01*
X163635648Y-48525975D01*
X163650000Y-48560623D01*
X163650000Y-49058246D01*
X163650001Y-49058267D01*
X163652774Y-49087842D01*
X163652775Y-49087851D01*
X163676232Y-49154884D01*
X163696384Y-49212475D01*
X163696385Y-49212477D01*
X163696384Y-49212477D01*
X163774788Y-49318711D01*
X163881022Y-49397114D01*
X163881025Y-49397116D01*
X164005651Y-49440725D01*
X164035244Y-49443500D01*
X164035254Y-49443500D01*
X164640746Y-49443500D01*
X164640756Y-49443500D01*
X164670349Y-49440725D01*
X164794975Y-49397116D01*
X164901211Y-49318711D01*
X164979616Y-49212475D01*
X165023225Y-49087849D01*
X165026000Y-49058256D01*
X165026000Y-48477744D01*
X165023225Y-48448151D01*
X164979616Y-48323525D01*
X164979614Y-48323522D01*
X164979615Y-48323522D01*
X164901211Y-48217288D01*
X164794977Y-48138885D01*
X164794975Y-48138884D01*
X164757569Y-48125794D01*
X164670351Y-48095275D01*
X164670342Y-48095274D01*
X164640767Y-48092501D01*
X164640766Y-48092500D01*
X164640756Y-48092500D01*
X164640746Y-48092500D01*
X164143123Y-48092500D01*
X164108475Y-48078148D01*
X163755852Y-47725525D01*
X163741500Y-47690877D01*
X163741500Y-46473428D01*
X163755852Y-46438780D01*
X163790500Y-46424428D01*
X163825148Y-46438780D01*
X163922345Y-46535977D01*
X164094402Y-46650941D01*
X164285580Y-46730130D01*
X164488535Y-46770500D01*
X164488538Y-46770500D01*
X164695462Y-46770500D01*
X164695465Y-46770500D01*
X164898420Y-46730130D01*
X165089598Y-46650941D01*
X165158277Y-46605050D01*
X165195060Y-46597735D01*
X165226242Y-46618570D01*
X165234500Y-46645793D01*
X165234500Y-48325895D01*
X165268607Y-48453184D01*
X165268608Y-48453188D01*
X165324658Y-48550267D01*
X165334500Y-48567314D01*
X165427686Y-48660500D01*
X165469457Y-48684617D01*
X165541811Y-48726391D01*
X165541813Y-48726391D01*
X165541814Y-48726392D01*
X165611115Y-48744961D01*
X165669104Y-48760499D01*
X165669105Y-48760500D01*
X165669108Y-48760500D01*
X179790500Y-48760500D01*
X179825148Y-48774852D01*
X179839500Y-48809500D01*
X179839500Y-62950500D01*
X179825148Y-62985148D01*
X179790500Y-62999500D01*
X170729500Y-62999500D01*
X170694852Y-62985148D01*
X170680500Y-62950500D01*
X170680500Y-60894105D01*
X170680499Y-60894104D01*
X170646392Y-60766815D01*
X170646391Y-60766811D01*
X170580499Y-60652685D01*
X170487314Y-60559500D01*
X170373188Y-60493608D01*
X170373184Y-60493607D01*
X170245895Y-60459500D01*
X170245892Y-60459500D01*
X165165892Y-60459500D01*
X165034108Y-60459500D01*
X165034105Y-60459500D01*
X164906815Y-60493607D01*
X164906811Y-60493608D01*
X164792685Y-60559500D01*
X164792685Y-60559501D01*
X164699501Y-60652685D01*
X164699500Y-60652685D01*
X164633608Y-60766811D01*
X164633607Y-60766815D01*
X164599500Y-60894104D01*
X164599500Y-62950500D01*
X164585148Y-62985148D01*
X164550500Y-62999500D01*
X144694500Y-62999500D01*
X144659852Y-62985148D01*
X144645500Y-62950500D01*
X144645500Y-50988104D01*
X145041500Y-50988104D01*
X145041500Y-51119895D01*
X145075607Y-51247184D01*
X145075608Y-51247188D01*
X145141500Y-51361314D01*
X145227148Y-51446962D01*
X145241500Y-51481610D01*
X145241500Y-59776563D01*
X145261978Y-59852987D01*
X145261979Y-59852991D01*
X145276379Y-59877931D01*
X145291683Y-59904438D01*
X145291726Y-59904512D01*
X145301537Y-59921507D01*
X145301542Y-59921513D01*
X147078648Y-61698619D01*
X147093000Y-61733267D01*
X147093000Y-62266246D01*
X147093001Y-62266267D01*
X147095774Y-62295842D01*
X147095775Y-62295851D01*
X147100487Y-62309316D01*
X147139384Y-62420475D01*
X147139385Y-62420477D01*
X147139384Y-62420477D01*
X147217788Y-62526711D01*
X147324022Y-62605114D01*
X147324025Y-62605116D01*
X147448651Y-62648725D01*
X147478244Y-62651500D01*
X147478254Y-62651500D01*
X148083746Y-62651500D01*
X148083756Y-62651500D01*
X148113349Y-62648725D01*
X148237975Y-62605116D01*
X148344211Y-62526711D01*
X148422616Y-62420475D01*
X148466225Y-62295849D01*
X148469000Y-62266256D01*
X148469000Y-61685744D01*
X148466225Y-61656151D01*
X148422616Y-61531525D01*
X148422614Y-61531522D01*
X148422615Y-61531522D01*
X148344211Y-61425288D01*
X148237977Y-61346885D01*
X148237975Y-61346884D01*
X148200569Y-61333794D01*
X148113351Y-61303275D01*
X148113342Y-61303274D01*
X148083767Y-61300501D01*
X148083766Y-61300500D01*
X148083756Y-61300500D01*
X148083746Y-61300500D01*
X147550767Y-61300500D01*
X147516119Y-61286148D01*
X145856852Y-59626881D01*
X145842500Y-59592233D01*
X145842500Y-59492352D01*
X147042000Y-59492352D01*
X147057230Y-59568922D01*
X147115247Y-59655752D01*
X147202077Y-59713769D01*
X147278647Y-59729000D01*
X147772000Y-59729000D01*
X147772000Y-59454000D01*
X147042000Y-59454000D01*
X147042000Y-59492352D01*
X145842500Y-59492352D01*
X145842500Y-55867767D01*
X145856852Y-55833119D01*
X145891500Y-55818767D01*
X145926148Y-55833119D01*
X147028187Y-56935158D01*
X147042539Y-56969806D01*
X147028187Y-57004454D01*
X147004989Y-57027651D01*
X147004987Y-57027655D01*
X146951780Y-57136490D01*
X146951780Y-57136491D01*
X146941500Y-57207048D01*
X146941500Y-57600950D01*
X146941501Y-57600951D01*
X146951779Y-57671507D01*
X146951779Y-57671509D01*
X147004986Y-57780344D01*
X147004989Y-57780348D01*
X147068993Y-57844352D01*
X147083345Y-57879000D01*
X147068993Y-57913648D01*
X147004989Y-57977651D01*
X147004987Y-57977655D01*
X146951780Y-58086490D01*
X146951780Y-58086491D01*
X146941500Y-58157048D01*
X146941500Y-58550950D01*
X146941501Y-58550951D01*
X146951779Y-58621507D01*
X146951779Y-58621509D01*
X147004986Y-58730344D01*
X147004987Y-58730346D01*
X147004988Y-58730347D01*
X147090653Y-58816012D01*
X147143789Y-58841989D01*
X147146048Y-58843093D01*
X147170873Y-58871203D01*
X147168549Y-58908634D01*
X147151752Y-58927856D01*
X147115247Y-58952248D01*
X147057230Y-59039077D01*
X147042000Y-59115647D01*
X147042000Y-59154000D01*
X147873000Y-59154000D01*
X147907648Y-59168352D01*
X147922000Y-59203000D01*
X147922000Y-59304000D01*
X148023000Y-59304000D01*
X148057648Y-59318352D01*
X148072000Y-59353000D01*
X148072000Y-59729000D01*
X148565353Y-59729000D01*
X148641922Y-59713769D01*
X148728752Y-59655752D01*
X148786769Y-59568922D01*
X148802000Y-59492352D01*
X148802000Y-59467257D01*
X148816352Y-59432609D01*
X148851000Y-59418257D01*
X148885648Y-59432609D01*
X150399499Y-60946460D01*
X150449658Y-60975420D01*
X150468018Y-60986020D01*
X150468022Y-60986022D01*
X150528296Y-61002172D01*
X150544444Y-61006499D01*
X150544445Y-61006500D01*
X150544448Y-61006500D01*
X152693564Y-61006500D01*
X152720230Y-60999354D01*
X152769989Y-60986021D01*
X152838511Y-60946460D01*
X152894460Y-60890511D01*
X153880460Y-59904511D01*
X153898065Y-59874017D01*
X153927818Y-59851188D01*
X153965000Y-59856083D01*
X153987830Y-59885836D01*
X153989500Y-59898518D01*
X153989500Y-60195233D01*
X153975148Y-60229881D01*
X152543881Y-61661148D01*
X152509233Y-61675500D01*
X150332763Y-61675500D01*
X150298115Y-61661148D01*
X150286513Y-61642684D01*
X150271538Y-61599890D01*
X150247616Y-61531525D01*
X150247614Y-61531522D01*
X150247615Y-61531522D01*
X150169211Y-61425288D01*
X150062977Y-61346885D01*
X150062975Y-61346884D01*
X150025569Y-61333794D01*
X149938351Y-61303275D01*
X149938342Y-61303274D01*
X149908767Y-61300501D01*
X149908766Y-61300500D01*
X149908756Y-61300500D01*
X149303244Y-61300500D01*
X149303234Y-61300500D01*
X149303232Y-61300501D01*
X149273657Y-61303274D01*
X149273648Y-61303275D01*
X149149022Y-61346885D01*
X149042788Y-61425288D01*
X148964385Y-61531522D01*
X148920775Y-61656148D01*
X148920774Y-61656157D01*
X148918001Y-61685732D01*
X148918000Y-61685753D01*
X148918000Y-62266246D01*
X148918001Y-62266267D01*
X148920774Y-62295842D01*
X148920775Y-62295851D01*
X148925487Y-62309316D01*
X148964384Y-62420475D01*
X148964385Y-62420477D01*
X148964384Y-62420477D01*
X149042788Y-62526711D01*
X149149022Y-62605114D01*
X149149025Y-62605116D01*
X149273651Y-62648725D01*
X149303244Y-62651500D01*
X149303254Y-62651500D01*
X149908746Y-62651500D01*
X149908756Y-62651500D01*
X149938349Y-62648725D01*
X150062975Y-62605116D01*
X150169211Y-62526711D01*
X150247616Y-62420475D01*
X150286513Y-62309316D01*
X150311503Y-62281352D01*
X150332763Y-62276500D01*
X152693564Y-62276500D01*
X152720230Y-62269354D01*
X152769989Y-62256021D01*
X152838511Y-62216460D01*
X152894460Y-62160511D01*
X154530460Y-60524511D01*
X154548302Y-60493608D01*
X154570021Y-60455989D01*
X154586263Y-60395375D01*
X154590500Y-60379563D01*
X154590500Y-60326188D01*
X154604852Y-60291540D01*
X154639500Y-60277188D01*
X154674146Y-60291539D01*
X154798340Y-60415732D01*
X154952648Y-60570040D01*
X154967000Y-60604688D01*
X154967000Y-60996246D01*
X154967001Y-60996267D01*
X154969774Y-61025842D01*
X154969775Y-61025851D01*
X154986981Y-61075021D01*
X155013384Y-61150475D01*
X155013385Y-61150477D01*
X155013384Y-61150477D01*
X155091788Y-61256711D01*
X155198022Y-61335114D01*
X155198025Y-61335116D01*
X155322651Y-61378725D01*
X155352244Y-61381500D01*
X155352254Y-61381500D01*
X155957746Y-61381500D01*
X155957756Y-61381500D01*
X155987349Y-61378725D01*
X156111975Y-61335116D01*
X156218211Y-61256711D01*
X156296616Y-61150475D01*
X156340225Y-61025849D01*
X156343000Y-60996256D01*
X156343000Y-60415744D01*
X156340225Y-60386151D01*
X156296616Y-60261525D01*
X156296614Y-60261522D01*
X156296615Y-60261522D01*
X156218211Y-60155288D01*
X156111977Y-60076885D01*
X156111975Y-60076884D01*
X156074569Y-60063794D01*
X155987351Y-60033275D01*
X155987342Y-60033274D01*
X155957767Y-60030501D01*
X155957766Y-60030500D01*
X155957756Y-60030500D01*
X155957746Y-60030500D01*
X155566189Y-60030500D01*
X155531541Y-60016148D01*
X155354852Y-59839459D01*
X155340500Y-59804811D01*
X155340500Y-58757766D01*
X155354852Y-58723118D01*
X155389500Y-58708766D01*
X155424148Y-58723118D01*
X156321541Y-59620511D01*
X156377490Y-59676460D01*
X156446012Y-59716021D01*
X156481479Y-59725524D01*
X156522437Y-59736500D01*
X156522439Y-59736500D01*
X156601563Y-59736500D01*
X156827233Y-59736500D01*
X156861881Y-59750852D01*
X157090029Y-59979000D01*
X157104381Y-60013648D01*
X157090029Y-60048296D01*
X157071566Y-60059898D01*
X157023021Y-60076885D01*
X156916788Y-60155288D01*
X156838385Y-60261522D01*
X156794775Y-60386148D01*
X156794774Y-60386157D01*
X156792001Y-60415732D01*
X156792000Y-60415753D01*
X156792000Y-60996246D01*
X156792001Y-60996267D01*
X156794774Y-61025842D01*
X156794775Y-61025851D01*
X156811981Y-61075021D01*
X156838384Y-61150475D01*
X156838385Y-61150477D01*
X156838384Y-61150477D01*
X156916788Y-61256711D01*
X157023022Y-61335114D01*
X157023025Y-61335116D01*
X157147651Y-61378725D01*
X157177244Y-61381500D01*
X157177254Y-61381500D01*
X157782746Y-61381500D01*
X157782756Y-61381500D01*
X157812349Y-61378725D01*
X157936975Y-61335116D01*
X158043211Y-61256711D01*
X158121616Y-61150475D01*
X158160513Y-61039316D01*
X158185503Y-61011352D01*
X158206763Y-61006500D01*
X159523511Y-61006500D01*
X159558159Y-61020852D01*
X159572091Y-61049101D01*
X159575503Y-61075014D01*
X159575505Y-61075021D01*
X159609576Y-61202176D01*
X159609576Y-61202177D01*
X159609578Y-61202181D01*
X159630107Y-61251743D01*
X159649971Y-61286148D01*
X159695931Y-61365754D01*
X159695936Y-61365761D01*
X159728588Y-61408314D01*
X159821685Y-61501411D01*
X159853183Y-61525580D01*
X159864243Y-61534067D01*
X159978257Y-61599893D01*
X160027819Y-61620422D01*
X160154986Y-61654497D01*
X160208174Y-61661500D01*
X160208178Y-61661500D01*
X160774001Y-61661500D01*
X160778631Y-61660978D01*
X160819728Y-61656348D01*
X160902127Y-61616666D01*
X160959149Y-61545163D01*
X160961682Y-61534068D01*
X160969136Y-61501409D01*
X160979500Y-61456000D01*
X160979500Y-59956000D01*
X160974348Y-59910272D01*
X160934666Y-59827873D01*
X160914899Y-59812109D01*
X160863167Y-59770853D01*
X160863160Y-59770849D01*
X160774003Y-59750500D01*
X160774000Y-59750500D01*
X160208174Y-59750500D01*
X160165623Y-59756102D01*
X160154985Y-59757503D01*
X160154978Y-59757505D01*
X160027823Y-59791576D01*
X160027822Y-59791576D01*
X159995871Y-59804811D01*
X159978257Y-59812107D01*
X159978254Y-59812108D01*
X159978253Y-59812109D01*
X159864245Y-59877931D01*
X159864238Y-59877936D01*
X159821685Y-59910588D01*
X159728588Y-60003685D01*
X159695936Y-60046238D01*
X159695931Y-60046245D01*
X159630109Y-60160253D01*
X159609576Y-60209822D01*
X159609576Y-60209823D01*
X159595723Y-60261525D01*
X159575503Y-60336986D01*
X159572091Y-60362898D01*
X159553340Y-60395375D01*
X159523511Y-60405500D01*
X158206763Y-60405500D01*
X158172115Y-60391148D01*
X158160513Y-60372684D01*
X158144243Y-60326188D01*
X158121616Y-60261525D01*
X158121614Y-60261522D01*
X158121615Y-60261522D01*
X158043211Y-60155288D01*
X157936977Y-60076885D01*
X157936975Y-60076884D01*
X157849415Y-60046245D01*
X157813316Y-60033613D01*
X157785352Y-60008623D01*
X157780500Y-59987363D01*
X157780500Y-59904436D01*
X157767543Y-59856083D01*
X157760021Y-59828011D01*
X157760020Y-59828009D01*
X157760020Y-59828008D01*
X157734939Y-59784568D01*
X157720460Y-59759489D01*
X157664511Y-59703540D01*
X157156511Y-59195540D01*
X157156509Y-59195539D01*
X157156507Y-59195537D01*
X157148421Y-59190869D01*
X157143472Y-59188012D01*
X157109420Y-59168352D01*
X157087990Y-59155979D01*
X157011564Y-59135500D01*
X157011562Y-59135500D01*
X156706768Y-59135500D01*
X156672120Y-59121148D01*
X156104352Y-58553380D01*
X156090000Y-58518732D01*
X156090000Y-56895026D01*
X156390000Y-56895026D01*
X156390000Y-58557971D01*
X156418036Y-58552395D01*
X156467349Y-58519446D01*
X156504132Y-58512130D01*
X156535314Y-58532965D01*
X156535815Y-58533878D01*
X156537794Y-58536766D01*
X156617233Y-58616205D01*
X156617234Y-58616205D01*
X156617235Y-58616206D01*
X156720009Y-58661585D01*
X156728784Y-58662603D01*
X156757787Y-58676628D01*
X157030670Y-58949511D01*
X157086619Y-59005460D01*
X157136779Y-59034420D01*
X157140366Y-59036491D01*
X157155141Y-59045021D01*
X157190608Y-59054524D01*
X157231566Y-59065500D01*
X157231568Y-59065500D01*
X157310692Y-59065500D01*
X166412522Y-59065500D01*
X166428705Y-59068249D01*
X166498651Y-59092725D01*
X166528244Y-59095500D01*
X166528254Y-59095500D01*
X167133746Y-59095500D01*
X167133756Y-59095500D01*
X167163349Y-59092725D01*
X167287975Y-59049116D01*
X167394211Y-58970711D01*
X167472616Y-58864475D01*
X167516225Y-58739849D01*
X167519000Y-58710256D01*
X167519000Y-58129753D01*
X167968000Y-58129753D01*
X167968000Y-58710246D01*
X167968001Y-58710267D01*
X167970774Y-58739842D01*
X167970775Y-58739851D01*
X168001294Y-58827069D01*
X168014384Y-58864475D01*
X168014385Y-58864477D01*
X168014384Y-58864477D01*
X168092788Y-58970711D01*
X168193475Y-59045020D01*
X168199025Y-59049116D01*
X168323651Y-59092725D01*
X168353244Y-59095500D01*
X168353254Y-59095500D01*
X168958746Y-59095500D01*
X168958756Y-59095500D01*
X168988349Y-59092725D01*
X169112975Y-59049116D01*
X169219211Y-58970711D01*
X169297616Y-58864475D01*
X169330850Y-58769500D01*
X169336513Y-58753316D01*
X169361503Y-58725352D01*
X169382763Y-58720500D01*
X170218237Y-58720500D01*
X170252885Y-58734852D01*
X170264487Y-58753316D01*
X170270150Y-58769500D01*
X170303384Y-58864475D01*
X170303385Y-58864477D01*
X170303384Y-58864477D01*
X170381788Y-58970711D01*
X170482475Y-59045020D01*
X170488025Y-59049116D01*
X170612651Y-59092725D01*
X170642244Y-59095500D01*
X170642254Y-59095500D01*
X171347746Y-59095500D01*
X171347756Y-59095500D01*
X171377349Y-59092725D01*
X171501975Y-59049116D01*
X171608211Y-58970711D01*
X171686616Y-58864475D01*
X171730225Y-58739849D01*
X171733000Y-58710256D01*
X171733000Y-58129753D01*
X171982000Y-58129753D01*
X171982000Y-58710246D01*
X171982001Y-58710267D01*
X171984774Y-58739842D01*
X171984775Y-58739851D01*
X172015294Y-58827069D01*
X172028384Y-58864475D01*
X172028385Y-58864477D01*
X172028384Y-58864477D01*
X172106788Y-58970711D01*
X172207475Y-59045020D01*
X172213025Y-59049116D01*
X172337651Y-59092725D01*
X172367244Y-59095500D01*
X172367254Y-59095500D01*
X173072746Y-59095500D01*
X173072756Y-59095500D01*
X173102349Y-59092725D01*
X173226975Y-59049116D01*
X173333211Y-58970711D01*
X173411616Y-58864475D01*
X173444850Y-58769500D01*
X173450513Y-58753316D01*
X173475503Y-58725352D01*
X173496763Y-58720500D01*
X174534500Y-58720500D01*
X174569148Y-58734852D01*
X174583500Y-58769500D01*
X174583500Y-58976616D01*
X174583828Y-58980223D01*
X174589914Y-59047201D01*
X174640520Y-59209603D01*
X174640520Y-59209604D01*
X174728527Y-59355184D01*
X174848815Y-59475472D01*
X174994395Y-59563479D01*
X175156798Y-59614085D01*
X175156801Y-59614085D01*
X175156804Y-59614086D01*
X175227384Y-59620500D01*
X175227390Y-59620500D01*
X178340610Y-59620500D01*
X178340616Y-59620500D01*
X178411196Y-59614086D01*
X178411198Y-59614085D01*
X178411201Y-59614085D01*
X178573603Y-59563479D01*
X178573604Y-59563479D01*
X178573606Y-59563478D01*
X178719185Y-59475472D01*
X178839472Y-59355185D01*
X178927478Y-59209606D01*
X178927479Y-59209603D01*
X178978085Y-59047201D01*
X178978085Y-59047198D01*
X178978086Y-59047196D01*
X178984500Y-58976616D01*
X178984500Y-57863384D01*
X178978086Y-57792804D01*
X178978085Y-57792801D01*
X178978085Y-57792798D01*
X178927479Y-57630396D01*
X178927479Y-57630395D01*
X178839472Y-57484815D01*
X178719184Y-57364527D01*
X178573604Y-57276520D01*
X178411201Y-57225914D01*
X178379114Y-57222998D01*
X178340616Y-57219500D01*
X175227384Y-57219500D01*
X175192094Y-57222707D01*
X175156798Y-57225914D01*
X174994396Y-57276520D01*
X174994395Y-57276520D01*
X174848815Y-57364527D01*
X174728527Y-57484815D01*
X174640520Y-57630395D01*
X174640520Y-57630396D01*
X174589914Y-57792798D01*
X174583500Y-57863389D01*
X174583500Y-58070500D01*
X174569148Y-58105148D01*
X174534500Y-58119500D01*
X173496763Y-58119500D01*
X173462115Y-58105148D01*
X173450513Y-58086684D01*
X173422462Y-58006521D01*
X173411616Y-57975525D01*
X173411614Y-57975522D01*
X173411615Y-57975522D01*
X173333211Y-57869288D01*
X173226977Y-57790885D01*
X173226975Y-57790884D01*
X173189569Y-57777794D01*
X173102351Y-57747275D01*
X173102342Y-57747274D01*
X173072767Y-57744501D01*
X173072766Y-57744500D01*
X173072756Y-57744500D01*
X172367244Y-57744500D01*
X172367234Y-57744500D01*
X172367232Y-57744501D01*
X172337657Y-57747274D01*
X172337648Y-57747275D01*
X172213022Y-57790885D01*
X172106788Y-57869288D01*
X172028385Y-57975522D01*
X171984775Y-58100148D01*
X171984774Y-58100157D01*
X171982001Y-58129732D01*
X171982000Y-58129753D01*
X171733000Y-58129753D01*
X171733000Y-58129744D01*
X171730225Y-58100151D01*
X171686616Y-57975525D01*
X171686614Y-57975522D01*
X171686615Y-57975522D01*
X171608211Y-57869288D01*
X171501977Y-57790885D01*
X171501975Y-57790884D01*
X171464569Y-57777794D01*
X171377351Y-57747275D01*
X171377342Y-57747274D01*
X171347767Y-57744501D01*
X171347766Y-57744500D01*
X171347756Y-57744500D01*
X170642244Y-57744500D01*
X170642234Y-57744500D01*
X170642232Y-57744501D01*
X170612657Y-57747274D01*
X170612648Y-57747275D01*
X170488022Y-57790885D01*
X170381788Y-57869288D01*
X170303385Y-57975522D01*
X170264487Y-58086684D01*
X170239497Y-58114648D01*
X170218237Y-58119500D01*
X169382763Y-58119500D01*
X169348115Y-58105148D01*
X169336513Y-58086684D01*
X169308462Y-58006521D01*
X169297616Y-57975525D01*
X169297614Y-57975522D01*
X169297615Y-57975522D01*
X169219211Y-57869288D01*
X169112977Y-57790885D01*
X169112975Y-57790884D01*
X169075569Y-57777794D01*
X168988351Y-57747275D01*
X168988342Y-57747274D01*
X168958767Y-57744501D01*
X168958766Y-57744500D01*
X168958756Y-57744500D01*
X168353244Y-57744500D01*
X168353234Y-57744500D01*
X168353232Y-57744501D01*
X168323657Y-57747274D01*
X168323648Y-57747275D01*
X168199022Y-57790885D01*
X168092788Y-57869288D01*
X168014385Y-57975522D01*
X167970775Y-58100148D01*
X167970774Y-58100157D01*
X167968001Y-58129732D01*
X167968000Y-58129753D01*
X167519000Y-58129753D01*
X167519000Y-58129744D01*
X167516225Y-58100151D01*
X167472616Y-57975525D01*
X167472614Y-57975522D01*
X167472615Y-57975522D01*
X167394211Y-57869288D01*
X167287978Y-57790885D01*
X167283603Y-57789354D01*
X167264314Y-57782604D01*
X167236352Y-57757615D01*
X167231500Y-57736355D01*
X167231500Y-57112500D01*
X167245852Y-57077852D01*
X167280500Y-57063500D01*
X167283746Y-57063500D01*
X167283756Y-57063500D01*
X167313349Y-57060725D01*
X167437975Y-57017116D01*
X167544211Y-56938711D01*
X167622616Y-56832475D01*
X167666225Y-56707849D01*
X167669000Y-56678256D01*
X167669000Y-56665044D01*
X168018501Y-56665044D01*
X168024970Y-56714196D01*
X168075273Y-56822070D01*
X168159429Y-56906226D01*
X168267303Y-56956529D01*
X168316457Y-56962999D01*
X168505999Y-56962999D01*
X168806000Y-56962999D01*
X168995539Y-56962999D01*
X168995544Y-56962998D01*
X169044696Y-56956529D01*
X169152570Y-56906226D01*
X169236726Y-56822070D01*
X169287029Y-56714196D01*
X169293499Y-56665043D01*
X169293500Y-56665041D01*
X169293500Y-56538000D01*
X168806000Y-56538000D01*
X168806000Y-56962999D01*
X168505999Y-56962999D01*
X168506000Y-56962998D01*
X168506000Y-56538000D01*
X168018501Y-56538000D01*
X168018501Y-56665044D01*
X167669000Y-56665044D01*
X167669000Y-56110956D01*
X168018500Y-56110956D01*
X168018500Y-56238000D01*
X168506000Y-56238000D01*
X168806000Y-56238000D01*
X169293499Y-56238000D01*
X169293499Y-56110961D01*
X169293498Y-56110955D01*
X169287029Y-56061803D01*
X169236726Y-55953929D01*
X169194117Y-55911320D01*
X174684001Y-55911320D01*
X174699443Y-56028630D01*
X174759898Y-56174584D01*
X174759901Y-56174589D01*
X174856074Y-56299924D01*
X174856075Y-56299925D01*
X174981410Y-56396098D01*
X174981415Y-56396101D01*
X175127369Y-56456556D01*
X175244680Y-56471999D01*
X176634000Y-56471999D01*
X176934000Y-56471999D01*
X178323318Y-56471999D01*
X178323320Y-56471998D01*
X178440630Y-56456556D01*
X178586584Y-56396101D01*
X178586589Y-56396098D01*
X178711924Y-56299925D01*
X178711925Y-56299924D01*
X178808098Y-56174589D01*
X178808101Y-56174584D01*
X178868556Y-56028630D01*
X178883999Y-55911319D01*
X178884000Y-55911319D01*
X178884000Y-55522000D01*
X176934000Y-55522000D01*
X176934000Y-56471999D01*
X176634000Y-56471999D01*
X176634000Y-55522000D01*
X174684001Y-55522000D01*
X174684001Y-55911320D01*
X169194117Y-55911320D01*
X169152570Y-55869773D01*
X169044696Y-55819470D01*
X168995543Y-55813000D01*
X168806000Y-55813000D01*
X168806000Y-56238000D01*
X168506000Y-56238000D01*
X168506000Y-55813000D01*
X168316461Y-55813000D01*
X168316455Y-55813001D01*
X168267303Y-55819470D01*
X168159429Y-55869773D01*
X168075273Y-55953929D01*
X168024970Y-56061803D01*
X168018500Y-56110956D01*
X167669000Y-56110956D01*
X167669000Y-56097744D01*
X167666225Y-56068151D01*
X167622616Y-55943525D01*
X167622614Y-55943522D01*
X167622615Y-55943522D01*
X167544211Y-55837288D01*
X167437977Y-55758885D01*
X167437975Y-55758884D01*
X167396331Y-55744312D01*
X167313351Y-55715275D01*
X167313342Y-55715274D01*
X167283767Y-55712501D01*
X167283766Y-55712500D01*
X167283756Y-55712500D01*
X166578244Y-55712500D01*
X166578234Y-55712500D01*
X166578232Y-55712501D01*
X166548657Y-55715274D01*
X166548648Y-55715275D01*
X166424022Y-55758885D01*
X166317788Y-55837288D01*
X166239385Y-55943522D01*
X166195775Y-56068148D01*
X166195774Y-56068157D01*
X166193001Y-56097732D01*
X166193000Y-56097753D01*
X166193000Y-56678246D01*
X166193001Y-56678267D01*
X166195774Y-56707842D01*
X166195775Y-56707851D01*
X166223996Y-56788500D01*
X166239384Y-56832475D01*
X166239385Y-56832477D01*
X166239384Y-56832477D01*
X166317788Y-56938711D01*
X166406868Y-57004454D01*
X166424025Y-57017116D01*
X166548651Y-57060725D01*
X166578244Y-57063500D01*
X166581500Y-57063500D01*
X166616148Y-57077852D01*
X166630500Y-57112500D01*
X166630500Y-57695500D01*
X166616148Y-57730148D01*
X166581500Y-57744500D01*
X166528244Y-57744500D01*
X166528234Y-57744500D01*
X166528232Y-57744501D01*
X166498657Y-57747274D01*
X166498648Y-57747275D01*
X166374022Y-57790885D01*
X166267788Y-57869288D01*
X166189385Y-57975522D01*
X166145775Y-58100148D01*
X166145774Y-58100157D01*
X166143001Y-58129732D01*
X166143000Y-58129753D01*
X166143000Y-58415500D01*
X166128648Y-58450148D01*
X166094000Y-58464500D01*
X157989059Y-58464500D01*
X157954411Y-58450148D01*
X157940059Y-58415500D01*
X157940386Y-58409848D01*
X157940499Y-58408870D01*
X157940500Y-58408868D01*
X157940500Y-58408865D01*
X157940500Y-58076000D01*
X157954852Y-58041352D01*
X157989500Y-58027000D01*
X161468064Y-58027000D01*
X161494730Y-58019854D01*
X161544489Y-58006521D01*
X161613011Y-57966960D01*
X161668960Y-57911011D01*
X164747291Y-54832680D01*
X174684000Y-54832680D01*
X174684000Y-55222000D01*
X176634000Y-55222000D01*
X176934000Y-55222000D01*
X178883999Y-55222000D01*
X178883999Y-54832681D01*
X178883998Y-54832679D01*
X178868556Y-54715369D01*
X178808101Y-54569415D01*
X178808098Y-54569410D01*
X178711925Y-54444075D01*
X178711924Y-54444074D01*
X178586589Y-54347901D01*
X178586584Y-54347898D01*
X178440630Y-54287443D01*
X178323320Y-54272000D01*
X176934000Y-54272000D01*
X176934000Y-55222000D01*
X176634000Y-55222000D01*
X176634000Y-54272000D01*
X175244681Y-54272000D01*
X175244679Y-54272001D01*
X175127369Y-54287443D01*
X174981415Y-54347898D01*
X174981410Y-54347901D01*
X174856075Y-54444074D01*
X174856074Y-54444075D01*
X174759901Y-54569410D01*
X174759898Y-54569415D01*
X174699443Y-54715369D01*
X174684000Y-54832680D01*
X164747291Y-54832680D01*
X166566119Y-53013852D01*
X166600767Y-52999500D01*
X167133746Y-52999500D01*
X167133756Y-52999500D01*
X167163349Y-52996725D01*
X167287975Y-52953116D01*
X167394211Y-52874711D01*
X167472616Y-52768475D01*
X167516225Y-52643849D01*
X167519000Y-52614256D01*
X167519000Y-52033753D01*
X167968000Y-52033753D01*
X167968000Y-52614246D01*
X167968001Y-52614267D01*
X167970774Y-52643842D01*
X167970775Y-52643851D01*
X167996723Y-52718003D01*
X168014384Y-52768475D01*
X168014385Y-52768477D01*
X168014384Y-52768477D01*
X168092788Y-52874711D01*
X168190353Y-52946716D01*
X168199025Y-52953116D01*
X168323651Y-52996725D01*
X168353244Y-52999500D01*
X168353254Y-52999500D01*
X168958746Y-52999500D01*
X168958756Y-52999500D01*
X168988349Y-52996725D01*
X169112975Y-52953116D01*
X169219211Y-52874711D01*
X169297616Y-52768475D01*
X169336513Y-52657316D01*
X169361503Y-52629352D01*
X169382763Y-52624500D01*
X170318737Y-52624500D01*
X170353385Y-52638852D01*
X170364987Y-52657316D01*
X170403884Y-52768475D01*
X170403885Y-52768477D01*
X170403884Y-52768477D01*
X170482288Y-52874711D01*
X170579853Y-52946716D01*
X170588525Y-52953116D01*
X170713151Y-52996725D01*
X170742744Y-52999500D01*
X170742754Y-52999500D01*
X171448246Y-52999500D01*
X171448256Y-52999500D01*
X171477849Y-52996725D01*
X171602475Y-52953116D01*
X171708711Y-52874711D01*
X171787116Y-52768475D01*
X171830725Y-52643849D01*
X171833500Y-52614256D01*
X171833500Y-52033753D01*
X172082500Y-52033753D01*
X172082500Y-52614246D01*
X172082501Y-52614267D01*
X172085274Y-52643842D01*
X172085275Y-52643851D01*
X172111223Y-52718003D01*
X172128884Y-52768475D01*
X172128885Y-52768477D01*
X172128884Y-52768477D01*
X172207288Y-52874711D01*
X172304853Y-52946716D01*
X172313525Y-52953116D01*
X172438151Y-52996725D01*
X172467744Y-52999500D01*
X172467754Y-52999500D01*
X173173246Y-52999500D01*
X173173256Y-52999500D01*
X173202849Y-52996725D01*
X173327475Y-52953116D01*
X173433711Y-52874711D01*
X173512116Y-52768475D01*
X173551013Y-52657316D01*
X173576003Y-52629352D01*
X173597263Y-52624500D01*
X174534500Y-52624500D01*
X174569148Y-52638852D01*
X174583500Y-52673500D01*
X174583500Y-52880616D01*
X174585491Y-52902527D01*
X174589914Y-52951201D01*
X174640520Y-53113603D01*
X174640520Y-53113604D01*
X174728527Y-53259184D01*
X174848815Y-53379472D01*
X174994395Y-53467479D01*
X175156798Y-53518085D01*
X175156801Y-53518085D01*
X175156804Y-53518086D01*
X175227384Y-53524500D01*
X175227390Y-53524500D01*
X178340610Y-53524500D01*
X178340616Y-53524500D01*
X178411196Y-53518086D01*
X178411198Y-53518085D01*
X178411201Y-53518085D01*
X178573603Y-53467479D01*
X178573604Y-53467479D01*
X178573606Y-53467478D01*
X178719185Y-53379472D01*
X178839472Y-53259185D01*
X178927478Y-53113606D01*
X178932894Y-53096226D01*
X178978085Y-52951201D01*
X178978085Y-52951198D01*
X178978086Y-52951196D01*
X178984500Y-52880616D01*
X178984500Y-51767384D01*
X178978086Y-51696804D01*
X178978085Y-51696801D01*
X178978085Y-51696798D01*
X178927479Y-51534396D01*
X178927479Y-51534395D01*
X178839472Y-51388815D01*
X178719184Y-51268527D01*
X178573604Y-51180520D01*
X178411201Y-51129914D01*
X178379114Y-51126998D01*
X178340616Y-51123500D01*
X175227384Y-51123500D01*
X175192094Y-51126707D01*
X175156798Y-51129914D01*
X174994396Y-51180520D01*
X174994395Y-51180520D01*
X174848815Y-51268527D01*
X174728527Y-51388815D01*
X174640520Y-51534395D01*
X174640520Y-51534396D01*
X174589914Y-51696798D01*
X174586597Y-51733299D01*
X174584077Y-51761042D01*
X174583500Y-51767389D01*
X174583500Y-51974500D01*
X174569148Y-52009148D01*
X174534500Y-52023500D01*
X173597263Y-52023500D01*
X173562615Y-52009148D01*
X173551013Y-51990684D01*
X173534781Y-51944297D01*
X173512116Y-51879525D01*
X173512114Y-51879522D01*
X173512115Y-51879522D01*
X173433711Y-51773288D01*
X173327477Y-51694885D01*
X173327475Y-51694884D01*
X173290069Y-51681794D01*
X173202851Y-51651275D01*
X173202842Y-51651274D01*
X173173267Y-51648501D01*
X173173266Y-51648500D01*
X173173256Y-51648500D01*
X172467744Y-51648500D01*
X172467734Y-51648500D01*
X172467732Y-51648501D01*
X172438157Y-51651274D01*
X172438148Y-51651275D01*
X172313522Y-51694885D01*
X172207288Y-51773288D01*
X172128885Y-51879522D01*
X172085275Y-52004148D01*
X172085274Y-52004157D01*
X172082501Y-52033732D01*
X172082500Y-52033753D01*
X171833500Y-52033753D01*
X171833500Y-52033744D01*
X171830725Y-52004151D01*
X171787116Y-51879525D01*
X171787114Y-51879522D01*
X171787115Y-51879522D01*
X171708711Y-51773288D01*
X171602477Y-51694885D01*
X171602475Y-51694884D01*
X171565069Y-51681794D01*
X171477851Y-51651275D01*
X171477842Y-51651274D01*
X171448267Y-51648501D01*
X171448266Y-51648500D01*
X171448256Y-51648500D01*
X170742744Y-51648500D01*
X170742734Y-51648500D01*
X170742732Y-51648501D01*
X170713157Y-51651274D01*
X170713148Y-51651275D01*
X170588522Y-51694885D01*
X170482288Y-51773288D01*
X170403885Y-51879522D01*
X170364987Y-51990684D01*
X170339997Y-52018648D01*
X170318737Y-52023500D01*
X169382763Y-52023500D01*
X169348115Y-52009148D01*
X169336513Y-51990684D01*
X169320281Y-51944297D01*
X169297616Y-51879525D01*
X169297614Y-51879522D01*
X169297615Y-51879522D01*
X169219211Y-51773288D01*
X169112977Y-51694885D01*
X169112975Y-51694884D01*
X169075569Y-51681794D01*
X168988351Y-51651275D01*
X168988342Y-51651274D01*
X168958767Y-51648501D01*
X168958766Y-51648500D01*
X168958756Y-51648500D01*
X168353244Y-51648500D01*
X168353234Y-51648500D01*
X168353232Y-51648501D01*
X168323657Y-51651274D01*
X168323648Y-51651275D01*
X168199022Y-51694885D01*
X168092788Y-51773288D01*
X168014385Y-51879522D01*
X167970775Y-52004148D01*
X167970774Y-52004157D01*
X167968001Y-52033732D01*
X167968000Y-52033753D01*
X167519000Y-52033753D01*
X167519000Y-52033744D01*
X167516225Y-52004151D01*
X167472616Y-51879525D01*
X167472614Y-51879522D01*
X167472615Y-51879522D01*
X167394211Y-51773288D01*
X167287978Y-51694885D01*
X167283603Y-51693354D01*
X167264314Y-51686604D01*
X167236352Y-51661615D01*
X167231500Y-51640355D01*
X167231500Y-51016500D01*
X167245852Y-50981852D01*
X167280500Y-50967500D01*
X167283746Y-50967500D01*
X167283756Y-50967500D01*
X167313349Y-50964725D01*
X167437975Y-50921116D01*
X167544211Y-50842711D01*
X167622616Y-50736475D01*
X167666225Y-50611849D01*
X167669000Y-50582256D01*
X167669000Y-50569044D01*
X168018501Y-50569044D01*
X168024970Y-50618196D01*
X168075273Y-50726070D01*
X168159429Y-50810226D01*
X168267303Y-50860529D01*
X168316457Y-50866999D01*
X168505999Y-50866999D01*
X168806000Y-50866999D01*
X168995539Y-50866999D01*
X168995544Y-50866998D01*
X169044696Y-50860529D01*
X169152570Y-50810226D01*
X169236726Y-50726070D01*
X169287029Y-50618196D01*
X169293499Y-50569043D01*
X169293500Y-50569041D01*
X169293500Y-50442000D01*
X168806000Y-50442000D01*
X168806000Y-50866999D01*
X168505999Y-50866999D01*
X168506000Y-50866998D01*
X168506000Y-50442000D01*
X168018501Y-50442000D01*
X168018501Y-50569044D01*
X167669000Y-50569044D01*
X167669000Y-50014956D01*
X168018500Y-50014956D01*
X168018500Y-50142000D01*
X168506000Y-50142000D01*
X168806000Y-50142000D01*
X169293499Y-50142000D01*
X169293499Y-50014961D01*
X169293498Y-50014955D01*
X169287029Y-49965803D01*
X169236726Y-49857929D01*
X169152570Y-49773773D01*
X169044696Y-49723470D01*
X168995543Y-49717000D01*
X168806000Y-49717000D01*
X168806000Y-50142000D01*
X168506000Y-50142000D01*
X168506000Y-49717000D01*
X168316461Y-49717000D01*
X168316455Y-49717001D01*
X168267303Y-49723470D01*
X168159429Y-49773773D01*
X168075273Y-49857929D01*
X168024970Y-49965803D01*
X168018500Y-50014956D01*
X167669000Y-50014956D01*
X167669000Y-50001744D01*
X167666225Y-49972151D01*
X167622616Y-49847525D01*
X167622614Y-49847522D01*
X167622615Y-49847522D01*
X167544211Y-49741288D01*
X167437977Y-49662885D01*
X167437975Y-49662884D01*
X167400569Y-49649794D01*
X167313351Y-49619275D01*
X167313342Y-49619274D01*
X167283767Y-49616501D01*
X167283766Y-49616500D01*
X167283756Y-49616500D01*
X166578244Y-49616500D01*
X166578234Y-49616500D01*
X166578232Y-49616501D01*
X166548657Y-49619274D01*
X166548648Y-49619275D01*
X166424022Y-49662885D01*
X166317788Y-49741288D01*
X166239385Y-49847522D01*
X166195775Y-49972148D01*
X166195774Y-49972157D01*
X166193001Y-50001732D01*
X166193000Y-50001744D01*
X166193000Y-50582246D01*
X166193001Y-50582267D01*
X166195774Y-50611842D01*
X166195775Y-50611851D01*
X166210487Y-50653893D01*
X166239384Y-50736475D01*
X166239385Y-50736477D01*
X166239384Y-50736477D01*
X166317788Y-50842711D01*
X166350698Y-50866999D01*
X166424025Y-50921116D01*
X166548651Y-50964725D01*
X166578244Y-50967500D01*
X166581500Y-50967500D01*
X166616148Y-50981852D01*
X166630500Y-51016500D01*
X166630500Y-51599500D01*
X166616148Y-51634148D01*
X166581500Y-51648500D01*
X166528244Y-51648500D01*
X166528234Y-51648500D01*
X166528232Y-51648501D01*
X166498657Y-51651274D01*
X166498648Y-51651275D01*
X166374022Y-51694885D01*
X166267788Y-51773288D01*
X166189385Y-51879522D01*
X166145775Y-52004148D01*
X166145774Y-52004157D01*
X166143001Y-52033732D01*
X166143000Y-52033753D01*
X166143000Y-52566733D01*
X166128648Y-52601381D01*
X161318381Y-57411648D01*
X161283733Y-57426000D01*
X157989499Y-57426000D01*
X157954851Y-57411648D01*
X157940499Y-57377000D01*
X157940499Y-57044141D01*
X157940498Y-57044135D01*
X157937585Y-57019009D01*
X157892206Y-56916235D01*
X157892205Y-56916234D01*
X157892205Y-56916233D01*
X157812766Y-56836794D01*
X157812767Y-56836794D01*
X157709993Y-56791415D01*
X157697428Y-56789957D01*
X157684865Y-56788500D01*
X157684863Y-56788500D01*
X157395141Y-56788500D01*
X157395131Y-56788501D01*
X157370007Y-56791415D01*
X157267233Y-56836794D01*
X157249648Y-56854380D01*
X157215000Y-56868732D01*
X157180352Y-56854380D01*
X157162766Y-56836794D01*
X157162767Y-56836794D01*
X157059993Y-56791415D01*
X157047428Y-56789957D01*
X157034865Y-56788500D01*
X157034863Y-56788500D01*
X156745141Y-56788500D01*
X156745131Y-56788501D01*
X156720007Y-56791415D01*
X156617233Y-56836794D01*
X156537794Y-56916234D01*
X156535228Y-56919980D01*
X156533164Y-56918566D01*
X156512235Y-56938517D01*
X156474743Y-56937620D01*
X156467350Y-56933553D01*
X156418035Y-56900603D01*
X156390000Y-56895026D01*
X156090000Y-56895026D01*
X156061964Y-56900603D01*
X156012649Y-56933554D01*
X155975867Y-56940870D01*
X155944685Y-56920034D01*
X155944189Y-56919131D01*
X155942207Y-56916237D01*
X155942206Y-56916235D01*
X155942204Y-56916233D01*
X155942202Y-56916230D01*
X155862766Y-56836794D01*
X155862767Y-56836794D01*
X155759993Y-56791415D01*
X155747428Y-56789957D01*
X155734865Y-56788500D01*
X155734863Y-56788500D01*
X155445141Y-56788500D01*
X155445131Y-56788501D01*
X155420006Y-56791415D01*
X155420005Y-56791415D01*
X155355354Y-56819961D01*
X155317861Y-56820827D01*
X155293128Y-56799636D01*
X155260479Y-56743087D01*
X154884912Y-56367520D01*
X154793588Y-56314793D01*
X154793586Y-56314792D01*
X154691729Y-56287500D01*
X154691726Y-56287500D01*
X151390727Y-56287500D01*
X151285273Y-56287500D01*
X151285270Y-56287500D01*
X151183412Y-56314792D01*
X151183410Y-56314793D01*
X151092086Y-56367520D01*
X151092086Y-56367521D01*
X150656648Y-56802959D01*
X150622000Y-56817311D01*
X150587352Y-56802959D01*
X149790040Y-56005647D01*
X149775688Y-55970999D01*
X149790040Y-55936351D01*
X149824688Y-55921999D01*
X150472000Y-55921999D01*
X150772000Y-55921999D01*
X151506845Y-55921999D01*
X151506845Y-55921998D01*
X151536018Y-55916197D01*
X151536022Y-55916195D01*
X151569097Y-55894095D01*
X151591197Y-55861019D01*
X151597000Y-55831845D01*
X151597000Y-55522000D01*
X150772000Y-55522000D01*
X150772000Y-55921999D01*
X150472000Y-55921999D01*
X150472000Y-55522000D01*
X149647001Y-55522000D01*
X149647001Y-55744312D01*
X149632649Y-55778960D01*
X149598001Y-55793312D01*
X149563353Y-55778960D01*
X148835914Y-55051521D01*
X148835910Y-55051518D01*
X148821999Y-55043486D01*
X148817968Y-55038233D01*
X148811852Y-55035700D01*
X148806956Y-55023882D01*
X148799169Y-55013733D01*
X148797500Y-55001052D01*
X148797500Y-54912154D01*
X149647000Y-54912154D01*
X149647000Y-55222000D01*
X150472000Y-55222000D01*
X150772000Y-55222000D01*
X151596999Y-55222000D01*
X151596999Y-54912155D01*
X151596998Y-54912154D01*
X151591197Y-54882981D01*
X151591195Y-54882977D01*
X151569095Y-54849902D01*
X151536019Y-54827802D01*
X151506846Y-54822000D01*
X150772000Y-54822000D01*
X150772000Y-55222000D01*
X150472000Y-55222000D01*
X150472000Y-54822000D01*
X149737155Y-54822000D01*
X149737154Y-54822001D01*
X149707981Y-54827802D01*
X149707977Y-54827804D01*
X149674902Y-54849904D01*
X149652802Y-54882980D01*
X149647000Y-54912154D01*
X148797500Y-54912154D01*
X148797500Y-54902255D01*
X148797500Y-54902252D01*
X148785867Y-54843769D01*
X148741587Y-54777500D01*
X148741552Y-54777447D01*
X148701795Y-54750882D01*
X148675231Y-54733133D01*
X148616748Y-54721500D01*
X148616745Y-54721500D01*
X148171500Y-54721500D01*
X148136852Y-54707148D01*
X148122500Y-54672500D01*
X148122500Y-54521500D01*
X148136852Y-54486852D01*
X148171500Y-54472500D01*
X148616745Y-54472500D01*
X148616748Y-54472500D01*
X148675231Y-54460867D01*
X148741552Y-54416552D01*
X148785867Y-54350231D01*
X148797500Y-54291748D01*
X148797500Y-53352252D01*
X148796079Y-53345109D01*
X148803394Y-53308328D01*
X148809484Y-53300906D01*
X149000181Y-53110209D01*
X149034828Y-53095858D01*
X149059328Y-53102423D01*
X149118291Y-53136466D01*
X149120216Y-53137577D01*
X149240665Y-53169851D01*
X149272939Y-53178499D01*
X149272940Y-53178500D01*
X149272943Y-53178500D01*
X149431059Y-53178500D01*
X149537137Y-53150076D01*
X149555405Y-53145181D01*
X149592587Y-53150076D01*
X149615417Y-53179829D01*
X149610522Y-53217011D01*
X149602740Y-53227155D01*
X149602448Y-53227446D01*
X149576768Y-53265880D01*
X149558133Y-53293769D01*
X149546500Y-53352252D01*
X149546500Y-54291748D01*
X149558133Y-54350231D01*
X149575882Y-54376795D01*
X149602447Y-54416552D01*
X149610375Y-54421849D01*
X149668769Y-54460867D01*
X149727252Y-54472500D01*
X149727255Y-54472500D01*
X151516745Y-54472500D01*
X151516748Y-54472500D01*
X151575231Y-54460867D01*
X151641552Y-54416552D01*
X151685867Y-54350231D01*
X151697500Y-54291748D01*
X151697500Y-54171500D01*
X151711852Y-54136852D01*
X151746500Y-54122500D01*
X153227564Y-54122500D01*
X153254230Y-54115354D01*
X153303989Y-54102021D01*
X153372511Y-54062460D01*
X153428460Y-54006511D01*
X154522267Y-52912702D01*
X154537114Y-52902531D01*
X154562765Y-52891206D01*
X154642206Y-52811765D01*
X154644772Y-52808019D01*
X154646854Y-52809445D01*
X154667658Y-52789522D01*
X154705153Y-52790333D01*
X154712650Y-52794445D01*
X154761963Y-52827395D01*
X154789999Y-52832971D01*
X154790000Y-52832971D01*
X154790000Y-51170026D01*
X154761964Y-51175603D01*
X154712649Y-51208554D01*
X154675867Y-51215870D01*
X154644685Y-51195034D01*
X154644189Y-51194131D01*
X154642207Y-51191237D01*
X154642206Y-51191235D01*
X154642204Y-51191233D01*
X154642202Y-51191230D01*
X154562766Y-51111794D01*
X154562767Y-51111794D01*
X154459993Y-51066415D01*
X154447428Y-51064957D01*
X154434865Y-51063500D01*
X154434863Y-51063500D01*
X154145141Y-51063500D01*
X154145131Y-51063501D01*
X154120007Y-51066415D01*
X154017233Y-51111794D01*
X153999648Y-51129380D01*
X153965000Y-51143732D01*
X153930352Y-51129380D01*
X153912766Y-51111794D01*
X153912767Y-51111794D01*
X153809993Y-51066415D01*
X153797428Y-51064957D01*
X153784865Y-51063500D01*
X153784863Y-51063500D01*
X153495141Y-51063500D01*
X153495131Y-51063501D01*
X153470007Y-51066415D01*
X153367233Y-51111794D01*
X153287794Y-51191233D01*
X153242415Y-51294006D01*
X153239500Y-51319134D01*
X153239500Y-51733299D01*
X153225148Y-51767947D01*
X153190500Y-51782299D01*
X153177818Y-51780629D01*
X153067653Y-51751111D01*
X153067650Y-51751111D01*
X152935866Y-51751111D01*
X152935863Y-51751111D01*
X152808573Y-51785218D01*
X152808569Y-51785219D01*
X152694443Y-51851111D01*
X152694443Y-51851112D01*
X152601259Y-51944296D01*
X152601258Y-51944296D01*
X152535366Y-52058422D01*
X152535365Y-52058426D01*
X152501258Y-52185715D01*
X152501258Y-52317506D01*
X152535365Y-52444795D01*
X152535366Y-52444799D01*
X152566627Y-52498943D01*
X152601258Y-52558925D01*
X152694444Y-52652111D01*
X152731491Y-52673500D01*
X152808569Y-52718002D01*
X152808571Y-52718002D01*
X152808572Y-52718003D01*
X152845882Y-52728000D01*
X152935862Y-52752110D01*
X152935863Y-52752111D01*
X152935866Y-52752111D01*
X153067653Y-52752111D01*
X153067653Y-52752110D01*
X153107959Y-52741310D01*
X153198047Y-52717172D01*
X153198352Y-52718312D01*
X153231699Y-52718307D01*
X153257779Y-52743788D01*
X153287794Y-52811766D01*
X153367233Y-52891205D01*
X153470006Y-52936584D01*
X153470009Y-52936585D01*
X153495135Y-52939500D01*
X153527232Y-52939499D01*
X153561879Y-52953850D01*
X153576232Y-52988498D01*
X153561881Y-53023146D01*
X153561880Y-53023147D01*
X153077881Y-53507148D01*
X153043233Y-53521500D01*
X151746500Y-53521500D01*
X151711852Y-53507148D01*
X151697500Y-53472500D01*
X151697500Y-53352255D01*
X151697500Y-53352252D01*
X151685867Y-53293769D01*
X151658958Y-53253498D01*
X151641552Y-53227447D01*
X151601795Y-53200882D01*
X151575231Y-53183133D01*
X151516748Y-53171500D01*
X149727252Y-53171500D01*
X149716446Y-53173649D01*
X149709821Y-53174967D01*
X149673039Y-53167649D01*
X149652204Y-53136466D01*
X149659522Y-53099684D01*
X149675761Y-53084474D01*
X149720716Y-53058520D01*
X149832520Y-52946716D01*
X149877812Y-52868267D01*
X149911576Y-52809786D01*
X149911576Y-52809785D01*
X149911577Y-52809784D01*
X149952499Y-52657060D01*
X149952500Y-52657060D01*
X149952500Y-52498940D01*
X149952499Y-52498939D01*
X149911577Y-52346217D01*
X149911576Y-52346213D01*
X149832524Y-52209290D01*
X149832521Y-52209287D01*
X149832520Y-52209284D01*
X149720716Y-52097480D01*
X149720713Y-52097478D01*
X149720709Y-52097475D01*
X149681667Y-52074935D01*
X149658837Y-52045183D01*
X149663732Y-52008000D01*
X149693484Y-51985170D01*
X149706167Y-51983500D01*
X149908746Y-51983500D01*
X149908756Y-51983500D01*
X149938349Y-51980725D01*
X150062975Y-51937116D01*
X150169211Y-51858711D01*
X150247616Y-51752475D01*
X150291225Y-51627849D01*
X150294000Y-51598256D01*
X150294000Y-51017744D01*
X150291225Y-50988151D01*
X150247616Y-50863525D01*
X150247614Y-50863522D01*
X150247615Y-50863522D01*
X150169211Y-50757288D01*
X150062977Y-50678885D01*
X150062975Y-50678884D01*
X149991556Y-50653893D01*
X149938351Y-50635275D01*
X149938342Y-50635274D01*
X149908767Y-50632501D01*
X149908766Y-50632500D01*
X149908756Y-50632500D01*
X149303244Y-50632500D01*
X149303234Y-50632500D01*
X149303232Y-50632501D01*
X149273657Y-50635274D01*
X149273648Y-50635275D01*
X149149022Y-50678885D01*
X149042788Y-50757288D01*
X148964385Y-50863522D01*
X148920775Y-50988148D01*
X148920774Y-50988157D01*
X148918001Y-51017732D01*
X148918000Y-51017753D01*
X148918000Y-51550733D01*
X148903648Y-51585381D01*
X148719881Y-51769148D01*
X148685233Y-51783500D01*
X148480819Y-51783500D01*
X148446171Y-51769148D01*
X148431819Y-51734500D01*
X148434569Y-51718316D01*
X148449683Y-51675122D01*
X148466225Y-51627849D01*
X148469000Y-51598256D01*
X148469000Y-51017744D01*
X148466225Y-50988151D01*
X148422616Y-50863525D01*
X148422614Y-50863522D01*
X148422615Y-50863522D01*
X148344211Y-50757288D01*
X148237977Y-50678885D01*
X148237975Y-50678884D01*
X148166556Y-50653893D01*
X148113351Y-50635275D01*
X148113342Y-50635274D01*
X148083767Y-50632501D01*
X148083766Y-50632500D01*
X148083756Y-50632500D01*
X148083746Y-50632500D01*
X147550767Y-50632500D01*
X147516119Y-50618148D01*
X146959015Y-50061044D01*
X152323501Y-50061044D01*
X152329970Y-50110196D01*
X152380273Y-50218070D01*
X152464429Y-50302226D01*
X152572303Y-50352529D01*
X152621457Y-50358999D01*
X152810999Y-50358999D01*
X153111000Y-50358999D01*
X153300539Y-50358999D01*
X153300544Y-50358998D01*
X153349696Y-50352529D01*
X153457570Y-50302226D01*
X153541726Y-50218070D01*
X153592029Y-50110196D01*
X153598499Y-50061043D01*
X153598500Y-50061041D01*
X153598500Y-49934000D01*
X153111000Y-49934000D01*
X153111000Y-50358999D01*
X152810999Y-50358999D01*
X152811000Y-50358998D01*
X152811000Y-49934000D01*
X152323501Y-49934000D01*
X152323501Y-50061044D01*
X146959015Y-50061044D01*
X146618852Y-49720881D01*
X146604500Y-49686233D01*
X146604500Y-49101619D01*
X147050500Y-49101619D01*
X147050500Y-49233410D01*
X147084607Y-49360699D01*
X147084608Y-49360703D01*
X147145677Y-49466475D01*
X147150500Y-49474829D01*
X147243686Y-49568015D01*
X147309023Y-49605737D01*
X147313589Y-49608726D01*
X147371025Y-49651116D01*
X147495651Y-49694725D01*
X147525244Y-49697500D01*
X147525254Y-49697500D01*
X148130746Y-49697500D01*
X148130756Y-49697500D01*
X148160349Y-49694725D01*
X148284975Y-49651116D01*
X148391211Y-49572711D01*
X148469616Y-49466475D01*
X148513225Y-49341849D01*
X148516000Y-49312256D01*
X148516000Y-49299044D01*
X149065501Y-49299044D01*
X149071970Y-49348196D01*
X149122273Y-49456070D01*
X149206429Y-49540226D01*
X149314303Y-49590529D01*
X149363457Y-49596999D01*
X149502999Y-49596999D01*
X149803000Y-49596999D01*
X149942539Y-49596999D01*
X149942544Y-49596998D01*
X149991696Y-49590529D01*
X150099570Y-49540226D01*
X150132840Y-49506956D01*
X152323500Y-49506956D01*
X152323500Y-49634000D01*
X152811000Y-49634000D01*
X153111000Y-49634000D01*
X153598499Y-49634000D01*
X153598499Y-49506961D01*
X153598498Y-49506955D01*
X153592029Y-49457803D01*
X153541726Y-49349929D01*
X153457570Y-49265773D01*
X153349696Y-49215470D01*
X153300543Y-49209000D01*
X153111000Y-49209000D01*
X153111000Y-49634000D01*
X152811000Y-49634000D01*
X152811000Y-49209000D01*
X152621461Y-49209000D01*
X152621455Y-49209001D01*
X152572303Y-49215470D01*
X152464429Y-49265773D01*
X152380273Y-49349929D01*
X152329970Y-49457803D01*
X152323500Y-49506956D01*
X150132840Y-49506956D01*
X150169094Y-49470703D01*
X150183726Y-49456070D01*
X150234029Y-49348196D01*
X150240499Y-49299043D01*
X150240500Y-49299041D01*
X150240500Y-49172000D01*
X149803000Y-49172000D01*
X149803000Y-49596999D01*
X149502999Y-49596999D01*
X149503000Y-49596998D01*
X149503000Y-49172000D01*
X149065501Y-49172000D01*
X149065501Y-49299044D01*
X148516000Y-49299044D01*
X148516000Y-48744956D01*
X149065500Y-48744956D01*
X149065500Y-48872000D01*
X149503000Y-48872000D01*
X149803000Y-48872000D01*
X150240499Y-48872000D01*
X150240499Y-48744961D01*
X150240498Y-48744955D01*
X150234029Y-48695803D01*
X150183726Y-48587929D01*
X150132841Y-48537044D01*
X152323501Y-48537044D01*
X152329970Y-48586196D01*
X152380273Y-48694070D01*
X152464429Y-48778226D01*
X152572303Y-48828529D01*
X152621457Y-48834999D01*
X152810999Y-48834999D01*
X153111000Y-48834999D01*
X153300539Y-48834999D01*
X153300544Y-48834998D01*
X153349696Y-48828529D01*
X153457570Y-48778226D01*
X153541726Y-48694070D01*
X153592029Y-48586196D01*
X153598499Y-48537043D01*
X153598500Y-48537041D01*
X153598500Y-48410000D01*
X153111000Y-48410000D01*
X153111000Y-48834999D01*
X152810999Y-48834999D01*
X152811000Y-48834998D01*
X152811000Y-48410000D01*
X152323501Y-48410000D01*
X152323501Y-48537044D01*
X150132841Y-48537044D01*
X150099570Y-48503773D01*
X149991696Y-48453470D01*
X149942543Y-48447000D01*
X149803000Y-48447000D01*
X149803000Y-48872000D01*
X149503000Y-48872000D01*
X149503000Y-48447000D01*
X149363461Y-48447000D01*
X149363455Y-48447001D01*
X149314303Y-48453470D01*
X149206429Y-48503773D01*
X149122273Y-48587929D01*
X149071970Y-48695803D01*
X149065500Y-48744956D01*
X148516000Y-48744956D01*
X148516000Y-48731744D01*
X148513225Y-48702151D01*
X148469616Y-48577525D01*
X148469614Y-48577522D01*
X148469615Y-48577522D01*
X148391211Y-48471288D01*
X148334087Y-48429129D01*
X148284977Y-48392885D01*
X148284975Y-48392884D01*
X148247569Y-48379794D01*
X148160351Y-48349275D01*
X148160342Y-48349274D01*
X148130767Y-48346501D01*
X148130766Y-48346500D01*
X148130756Y-48346500D01*
X147525244Y-48346500D01*
X147525234Y-48346500D01*
X147525232Y-48346501D01*
X147495657Y-48349274D01*
X147495648Y-48349275D01*
X147371022Y-48392885D01*
X147264788Y-48471288D01*
X147186385Y-48577522D01*
X147142775Y-48702148D01*
X147142774Y-48702157D01*
X147140001Y-48731732D01*
X147140000Y-48731753D01*
X147140000Y-48865257D01*
X147133435Y-48889757D01*
X147084608Y-48974326D01*
X147084607Y-48974330D01*
X147050500Y-49101619D01*
X146604500Y-49101619D01*
X146604500Y-47982956D01*
X152323500Y-47982956D01*
X152323500Y-48110000D01*
X152811000Y-48110000D01*
X153111000Y-48110000D01*
X153598499Y-48110000D01*
X153598499Y-47982961D01*
X153598498Y-47982955D01*
X153592029Y-47933803D01*
X153541726Y-47825929D01*
X153457570Y-47741773D01*
X153349696Y-47691470D01*
X153300543Y-47685000D01*
X153111000Y-47685000D01*
X153111000Y-48110000D01*
X152811000Y-48110000D01*
X152811000Y-47685000D01*
X152621461Y-47685000D01*
X152621455Y-47685001D01*
X152572303Y-47691470D01*
X152464429Y-47741773D01*
X152380273Y-47825929D01*
X152329970Y-47933803D01*
X152323500Y-47982956D01*
X146604500Y-47982956D01*
X146604500Y-47925610D01*
X146618852Y-47890962D01*
X146704499Y-47805315D01*
X146704500Y-47805314D01*
X146770392Y-47691186D01*
X146804499Y-47563895D01*
X146804500Y-47563895D01*
X146804500Y-47432105D01*
X146804499Y-47432104D01*
X146793351Y-47390500D01*
X146770392Y-47304814D01*
X146770391Y-47304813D01*
X146770391Y-47304811D01*
X146704499Y-47190685D01*
X146611314Y-47097500D01*
X146497188Y-47031608D01*
X146497184Y-47031607D01*
X146369895Y-46997500D01*
X146369892Y-46997500D01*
X146238108Y-46997500D01*
X146238105Y-46997500D01*
X146110815Y-47031607D01*
X146110811Y-47031608D01*
X145996685Y-47097500D01*
X145996685Y-47097501D01*
X145903501Y-47190685D01*
X145903500Y-47190685D01*
X145837608Y-47304811D01*
X145837607Y-47304815D01*
X145803500Y-47432104D01*
X145803500Y-47563895D01*
X145837607Y-47691184D01*
X145837608Y-47691188D01*
X145903500Y-47805314D01*
X145989148Y-47890962D01*
X146003500Y-47925610D01*
X146003500Y-49870563D01*
X146023978Y-49946987D01*
X146023979Y-49946991D01*
X146055591Y-50001742D01*
X146055592Y-50001744D01*
X146063537Y-50015507D01*
X146063542Y-50015513D01*
X147078648Y-51030619D01*
X147093000Y-51065267D01*
X147093000Y-51598246D01*
X147093001Y-51598267D01*
X147095774Y-51627842D01*
X147095775Y-51627851D01*
X147119904Y-51696804D01*
X147139384Y-51752475D01*
X147139385Y-51752477D01*
X147139384Y-51752477D01*
X147217786Y-51858709D01*
X147238446Y-51873956D01*
X147257802Y-51906078D01*
X147248775Y-51942479D01*
X147243997Y-51948030D01*
X145926148Y-53265880D01*
X145891500Y-53280232D01*
X145856852Y-53265880D01*
X145842500Y-53231232D01*
X145842500Y-51481610D01*
X145856852Y-51446962D01*
X145942499Y-51361315D01*
X145942500Y-51361314D01*
X145999563Y-51262478D01*
X146008391Y-51247188D01*
X146008391Y-51247187D01*
X146008392Y-51247186D01*
X146042499Y-51119895D01*
X146042500Y-51119895D01*
X146042500Y-50988105D01*
X146042499Y-50988104D01*
X146009118Y-50863525D01*
X146008392Y-50860814D01*
X146008391Y-50860813D01*
X146008391Y-50860811D01*
X145954261Y-50767057D01*
X145942500Y-50746686D01*
X145849314Y-50653500D01*
X145735188Y-50587608D01*
X145735184Y-50587607D01*
X145607895Y-50553500D01*
X145607892Y-50553500D01*
X145476108Y-50553500D01*
X145476105Y-50553500D01*
X145348815Y-50587607D01*
X145348811Y-50587608D01*
X145234685Y-50653500D01*
X145234685Y-50653501D01*
X145141501Y-50746685D01*
X145141500Y-50746685D01*
X145075608Y-50860811D01*
X145075607Y-50860815D01*
X145041500Y-50988104D01*
X144645500Y-50988104D01*
X144645500Y-46924105D01*
X144645499Y-46924104D01*
X144611392Y-46796815D01*
X144611391Y-46796811D01*
X144601896Y-46780366D01*
X144597001Y-46743184D01*
X144619831Y-46713431D01*
X144625579Y-46710596D01*
X144628255Y-46709487D01*
X144769598Y-46650941D01*
X144941655Y-46535977D01*
X145087977Y-46389655D01*
X145202941Y-46217598D01*
X145282130Y-46026420D01*
X145322500Y-45823465D01*
X145322500Y-45616535D01*
X145282130Y-45413580D01*
X145202941Y-45222402D01*
X145087977Y-45050345D01*
X144952780Y-44915148D01*
X144938428Y-44880500D01*
X144952780Y-44845852D01*
X144987428Y-44831500D01*
X146096572Y-44831500D01*
X146131220Y-44845852D01*
X146145572Y-44880500D01*
X146131220Y-44915148D01*
X145996022Y-45050345D01*
X145881058Y-45222403D01*
X145801871Y-45413576D01*
X145801869Y-45413582D01*
X145783115Y-45507868D01*
X145761500Y-45616535D01*
X145761500Y-45823465D01*
X145773500Y-45883793D01*
X145801869Y-46026417D01*
X145801871Y-46026423D01*
X145875537Y-46204267D01*
X145881059Y-46217598D01*
X145996023Y-46389655D01*
X146142345Y-46535977D01*
X146314402Y-46650941D01*
X146505580Y-46730130D01*
X146708535Y-46770500D01*
X146708538Y-46770500D01*
X146915462Y-46770500D01*
X146915465Y-46770500D01*
X147118420Y-46730130D01*
X147309598Y-46650941D01*
X147481655Y-46535977D01*
X147627977Y-46389655D01*
X147742941Y-46217598D01*
X147822130Y-46026420D01*
X147862500Y-45823465D01*
X147862500Y-45616535D01*
X147822130Y-45413580D01*
X147742941Y-45222402D01*
X147627977Y-45050345D01*
X147492780Y-44915148D01*
X147478428Y-44880500D01*
X147492780Y-44845852D01*
X147527428Y-44831500D01*
X148810246Y-44831500D01*
X148844894Y-44845852D01*
X148859246Y-44880500D01*
X148844894Y-44915148D01*
X148837469Y-44921242D01*
X148794251Y-44950118D01*
X148794251Y-44950119D01*
X149120460Y-45276329D01*
X149044993Y-45319901D01*
X148951901Y-45412993D01*
X148908329Y-45488460D01*
X148582119Y-45162251D01*
X148510120Y-45270005D01*
X148438510Y-45442887D01*
X148438505Y-45442906D01*
X148402000Y-45626427D01*
X148402000Y-45813572D01*
X148438505Y-45997093D01*
X148438510Y-45997112D01*
X148510119Y-46169990D01*
X148582119Y-46277747D01*
X148582120Y-46277748D01*
X148908329Y-45951538D01*
X148951901Y-46027007D01*
X149044993Y-46120099D01*
X149120460Y-46163670D01*
X148794251Y-46489879D01*
X148902009Y-46561880D01*
X148902008Y-46561880D01*
X149074887Y-46633489D01*
X149074906Y-46633494D01*
X149258427Y-46669999D01*
X149258434Y-46670000D01*
X149445566Y-46670000D01*
X149445572Y-46669999D01*
X149629093Y-46633494D01*
X149629112Y-46633489D01*
X149801990Y-46561880D01*
X149909747Y-46489879D01*
X149909747Y-46489878D01*
X149583538Y-46163670D01*
X149659007Y-46120099D01*
X149752099Y-46027007D01*
X149795670Y-45951538D01*
X150121878Y-46277747D01*
X150121879Y-46277747D01*
X150193880Y-46169990D01*
X150265489Y-45997112D01*
X150265494Y-45997093D01*
X150301999Y-45813572D01*
X150302000Y-45813565D01*
X150302000Y-45626434D01*
X150301999Y-45626427D01*
X150265494Y-45442906D01*
X150265489Y-45442887D01*
X150193880Y-45270009D01*
X150121879Y-45162251D01*
X149795670Y-45488460D01*
X149752099Y-45412993D01*
X149659007Y-45319901D01*
X149583538Y-45276329D01*
X149909748Y-44950120D01*
X149909747Y-44950118D01*
X149866530Y-44921242D01*
X149845694Y-44890060D01*
X149853010Y-44853278D01*
X149884192Y-44832442D01*
X149893752Y-44831500D01*
X151176572Y-44831500D01*
X151211220Y-44845852D01*
X151225572Y-44880500D01*
X151211220Y-44915148D01*
X151076022Y-45050345D01*
X150961058Y-45222403D01*
X150881871Y-45413576D01*
X150881869Y-45413582D01*
X150863115Y-45507868D01*
X150841500Y-45616535D01*
X150841500Y-45823465D01*
X150853500Y-45883793D01*
X150881869Y-46026417D01*
X150881871Y-46026423D01*
X150955537Y-46204267D01*
X150961059Y-46217598D01*
X151076023Y-46389655D01*
X151222345Y-46535977D01*
X151394402Y-46650941D01*
X151585580Y-46730130D01*
X151788535Y-46770500D01*
X151788538Y-46770500D01*
X151995462Y-46770500D01*
X151995465Y-46770500D01*
X152198420Y-46730130D01*
X152389598Y-46650941D01*
X152561655Y-46535977D01*
X152707977Y-46389655D01*
X152822941Y-46217598D01*
X152902130Y-46026420D01*
X152942500Y-45823465D01*
X152942500Y-45616535D01*
X152902130Y-45413580D01*
X152822941Y-45222402D01*
X152707977Y-45050345D01*
X152572780Y-44915148D01*
X152558428Y-44880500D01*
X152572780Y-44845852D01*
X152607428Y-44831500D01*
X153716572Y-44831500D01*
X153751220Y-44845852D01*
X153765572Y-44880500D01*
X153751220Y-44915148D01*
X153616022Y-45050345D01*
X153501058Y-45222403D01*
X153421871Y-45413576D01*
X153421869Y-45413582D01*
X153403115Y-45507868D01*
X153381500Y-45616535D01*
X153381500Y-45823465D01*
X153393500Y-45883793D01*
X153421869Y-46026417D01*
X153421871Y-46026423D01*
X153495537Y-46204267D01*
X153501059Y-46217598D01*
X153616023Y-46389655D01*
X153762345Y-46535977D01*
X153934402Y-46650941D01*
X154125580Y-46730130D01*
X154223384Y-46749584D01*
X154254566Y-46770419D01*
X154261883Y-46807201D01*
X154248473Y-46832289D01*
X154205482Y-46875281D01*
X154205475Y-46875290D01*
X154126423Y-47012213D01*
X154126422Y-47012217D01*
X154085500Y-47164939D01*
X154085500Y-47323060D01*
X154126422Y-47475782D01*
X154126423Y-47475786D01*
X154183035Y-47573841D01*
X154187930Y-47611023D01*
X154169697Y-47637766D01*
X154072788Y-47709288D01*
X153994385Y-47815522D01*
X153950775Y-47940148D01*
X153950774Y-47940157D01*
X153948001Y-47969732D01*
X153948000Y-47969753D01*
X153948000Y-48550246D01*
X153948001Y-48550267D01*
X153950774Y-48579842D01*
X153950775Y-48579851D01*
X153953602Y-48587929D01*
X153994384Y-48704475D01*
X153994385Y-48704477D01*
X153994384Y-48704477D01*
X154072788Y-48810711D01*
X154179021Y-48889114D01*
X154179023Y-48889114D01*
X154179025Y-48889116D01*
X154252684Y-48914890D01*
X154280647Y-48939879D01*
X154285500Y-48961140D01*
X154285500Y-49082859D01*
X154271148Y-49117507D01*
X154252684Y-49129109D01*
X154179022Y-49154885D01*
X154072788Y-49233288D01*
X153994385Y-49339522D01*
X153950775Y-49464148D01*
X153950774Y-49464157D01*
X153948001Y-49493732D01*
X153948000Y-49493753D01*
X153948000Y-50074246D01*
X153948001Y-50074267D01*
X153950774Y-50103842D01*
X153950775Y-50103851D01*
X153981294Y-50191069D01*
X153994384Y-50228475D01*
X153994385Y-50228477D01*
X153994384Y-50228477D01*
X154072788Y-50334711D01*
X154105698Y-50358999D01*
X154179025Y-50413116D01*
X154303651Y-50456725D01*
X154333244Y-50459500D01*
X154774811Y-50459500D01*
X154809459Y-50473852D01*
X154975148Y-50639541D01*
X154989500Y-50674189D01*
X154989500Y-50767060D01*
X155030422Y-50919782D01*
X155030423Y-50919786D01*
X155109475Y-51056709D01*
X155109482Y-51056718D01*
X155141543Y-51088779D01*
X155155895Y-51123427D01*
X155141543Y-51158075D01*
X155106895Y-51172427D01*
X155097336Y-51171486D01*
X155090000Y-51170026D01*
X155090000Y-52832971D01*
X155118036Y-52827395D01*
X155167349Y-52794446D01*
X155204132Y-52787130D01*
X155235314Y-52807965D01*
X155235815Y-52808878D01*
X155237794Y-52811766D01*
X155317233Y-52891205D01*
X155420006Y-52936584D01*
X155420009Y-52936585D01*
X155445135Y-52939500D01*
X155734864Y-52939499D01*
X155759991Y-52936585D01*
X155862765Y-52891206D01*
X155880351Y-52873620D01*
X155914999Y-52859267D01*
X155949647Y-52873618D01*
X155949649Y-52873620D01*
X155967233Y-52891205D01*
X156070006Y-52936584D01*
X156070009Y-52936585D01*
X156095135Y-52939500D01*
X156384864Y-52939499D01*
X156409991Y-52936585D01*
X156512765Y-52891206D01*
X156592206Y-52811765D01*
X156592207Y-52811760D01*
X156594772Y-52808019D01*
X156596854Y-52809445D01*
X156617658Y-52789522D01*
X156655153Y-52790333D01*
X156662650Y-52794445D01*
X156711963Y-52827395D01*
X156739999Y-52832971D01*
X156740000Y-52832971D01*
X156740000Y-51289397D01*
X156754352Y-51254749D01*
X156784479Y-51224622D01*
X156784480Y-51224621D01*
X156816001Y-51170026D01*
X157040000Y-51170026D01*
X157040000Y-52832971D01*
X157068036Y-52827395D01*
X157117349Y-52794446D01*
X157154132Y-52787130D01*
X157185314Y-52807965D01*
X157185815Y-52808878D01*
X157187794Y-52811766D01*
X157267233Y-52891205D01*
X157370006Y-52936584D01*
X157370009Y-52936585D01*
X157395135Y-52939500D01*
X157684864Y-52939499D01*
X157709991Y-52936585D01*
X157812765Y-52891206D01*
X157892206Y-52811765D01*
X157937585Y-52708991D01*
X157940500Y-52683865D01*
X157940500Y-52351000D01*
X157954852Y-52316352D01*
X157989500Y-52302000D01*
X159032000Y-52302000D01*
X159066648Y-52316352D01*
X159081000Y-52351000D01*
X159081000Y-52868246D01*
X159081001Y-52868267D01*
X159083774Y-52897842D01*
X159083775Y-52897851D01*
X159098349Y-52939499D01*
X159127384Y-53022475D01*
X159127385Y-53022477D01*
X159127384Y-53022477D01*
X159205788Y-53128711D01*
X159312022Y-53207114D01*
X159312025Y-53207116D01*
X159436651Y-53250725D01*
X159466244Y-53253500D01*
X159469500Y-53253500D01*
X159504148Y-53267852D01*
X159518500Y-53302500D01*
X159518500Y-53377500D01*
X159504148Y-53412148D01*
X159469500Y-53426500D01*
X159466244Y-53426500D01*
X159466234Y-53426500D01*
X159466232Y-53426501D01*
X159436657Y-53429274D01*
X159436648Y-53429275D01*
X159312022Y-53472885D01*
X159205788Y-53551288D01*
X159127385Y-53657522D01*
X159083775Y-53782148D01*
X159083774Y-53782157D01*
X159081001Y-53811732D01*
X159081000Y-53811753D01*
X159081000Y-54392246D01*
X159081001Y-54392267D01*
X159083774Y-54421842D01*
X159083775Y-54421851D01*
X159106521Y-54486852D01*
X159127384Y-54546475D01*
X159127385Y-54546477D01*
X159127384Y-54546477D01*
X159205788Y-54652711D01*
X159312022Y-54731114D01*
X159312025Y-54731116D01*
X159436651Y-54774725D01*
X159466244Y-54777500D01*
X159466254Y-54777500D01*
X160171746Y-54777500D01*
X160171756Y-54777500D01*
X160201349Y-54774725D01*
X160325975Y-54731116D01*
X160432211Y-54652711D01*
X160510616Y-54546475D01*
X160554225Y-54421849D01*
X160557000Y-54392256D01*
X160557000Y-54379044D01*
X160906501Y-54379044D01*
X160912970Y-54428196D01*
X160963273Y-54536070D01*
X161047429Y-54620226D01*
X161155303Y-54670529D01*
X161204457Y-54676999D01*
X161393999Y-54676999D01*
X161694000Y-54676999D01*
X161883539Y-54676999D01*
X161883544Y-54676998D01*
X161932696Y-54670529D01*
X162040570Y-54620226D01*
X162124726Y-54536070D01*
X162175029Y-54428196D01*
X162181499Y-54379043D01*
X162181500Y-54379041D01*
X162181500Y-54252000D01*
X161694000Y-54252000D01*
X161694000Y-54676999D01*
X161393999Y-54676999D01*
X161394000Y-54676998D01*
X161394000Y-54252000D01*
X160906501Y-54252000D01*
X160906501Y-54379044D01*
X160557000Y-54379044D01*
X160557000Y-53824956D01*
X160906500Y-53824956D01*
X160906500Y-53952000D01*
X161394000Y-53952000D01*
X161694000Y-53952000D01*
X162181499Y-53952000D01*
X162181499Y-53824961D01*
X162181498Y-53824955D01*
X162175029Y-53775803D01*
X162124726Y-53667929D01*
X162040570Y-53583773D01*
X161932696Y-53533470D01*
X161883543Y-53527000D01*
X161694000Y-53527000D01*
X161694000Y-53952000D01*
X161394000Y-53952000D01*
X161394000Y-53527000D01*
X161204461Y-53527000D01*
X161204455Y-53527001D01*
X161155303Y-53533470D01*
X161047429Y-53583773D01*
X160963273Y-53667929D01*
X160912970Y-53775803D01*
X160906500Y-53824956D01*
X160557000Y-53824956D01*
X160557000Y-53811744D01*
X160554225Y-53782151D01*
X160510616Y-53657525D01*
X160510614Y-53657522D01*
X160510615Y-53657522D01*
X160432211Y-53551288D01*
X160325977Y-53472885D01*
X160325975Y-53472884D01*
X160288569Y-53459794D01*
X160201351Y-53429275D01*
X160201342Y-53429274D01*
X160171767Y-53426501D01*
X160171766Y-53426500D01*
X160171756Y-53426500D01*
X160171746Y-53426500D01*
X160168500Y-53426500D01*
X160133852Y-53412148D01*
X160119500Y-53377500D01*
X160119500Y-53302500D01*
X160133852Y-53267852D01*
X160168500Y-53253500D01*
X160171746Y-53253500D01*
X160171756Y-53253500D01*
X160201349Y-53250725D01*
X160325975Y-53207116D01*
X160432211Y-53128711D01*
X160510616Y-53022475D01*
X160554225Y-52897849D01*
X160557000Y-52868256D01*
X160557000Y-52855044D01*
X160906501Y-52855044D01*
X160912970Y-52904196D01*
X160963273Y-53012070D01*
X161047429Y-53096226D01*
X161155303Y-53146529D01*
X161204457Y-53152999D01*
X161393999Y-53152999D01*
X161694000Y-53152999D01*
X161883539Y-53152999D01*
X161883544Y-53152998D01*
X161932696Y-53146529D01*
X162040570Y-53096226D01*
X162124726Y-53012070D01*
X162175029Y-52904196D01*
X162181499Y-52855043D01*
X162181500Y-52855041D01*
X162181500Y-52728000D01*
X161694000Y-52728000D01*
X161694000Y-53152999D01*
X161393999Y-53152999D01*
X161394000Y-53152998D01*
X161394000Y-52728000D01*
X160906501Y-52728000D01*
X160906501Y-52855044D01*
X160557000Y-52855044D01*
X160557000Y-52300956D01*
X160906500Y-52300956D01*
X160906500Y-52428000D01*
X161394000Y-52428000D01*
X161694000Y-52428000D01*
X162181499Y-52428000D01*
X162181499Y-52300961D01*
X162181498Y-52300955D01*
X162175029Y-52251803D01*
X162124726Y-52143929D01*
X162040570Y-52059773D01*
X161932696Y-52009470D01*
X161883543Y-52003000D01*
X161694000Y-52003000D01*
X161694000Y-52428000D01*
X161394000Y-52428000D01*
X161394000Y-52003000D01*
X161204461Y-52003000D01*
X161204455Y-52003001D01*
X161155303Y-52009470D01*
X161047429Y-52059773D01*
X160963273Y-52143929D01*
X160912970Y-52251803D01*
X160906500Y-52300956D01*
X160557000Y-52300956D01*
X160557000Y-52287744D01*
X160554225Y-52258151D01*
X160510616Y-52133525D01*
X160510614Y-52133522D01*
X160510615Y-52133522D01*
X160432211Y-52027288D01*
X160325977Y-51948885D01*
X160325975Y-51948884D01*
X160288569Y-51935794D01*
X160201351Y-51905275D01*
X160201342Y-51905274D01*
X160171767Y-51902501D01*
X160171766Y-51902500D01*
X160171756Y-51902500D01*
X160171746Y-51902500D01*
X159535767Y-51902500D01*
X159501119Y-51888148D01*
X159374013Y-51761042D01*
X159374011Y-51761040D01*
X159374008Y-51761038D01*
X159374004Y-51761035D01*
X159356813Y-51751110D01*
X159356812Y-51751110D01*
X159305491Y-51721479D01*
X159305487Y-51721478D01*
X159229064Y-51701000D01*
X159229062Y-51701000D01*
X157989499Y-51701000D01*
X157954851Y-51686648D01*
X157940499Y-51652000D01*
X157940499Y-51319141D01*
X157940498Y-51319135D01*
X157937585Y-51294009D01*
X157892206Y-51191235D01*
X157892205Y-51191234D01*
X157892205Y-51191233D01*
X157812766Y-51111794D01*
X157812767Y-51111794D01*
X157709993Y-51066415D01*
X157697428Y-51064957D01*
X157684865Y-51063500D01*
X157684863Y-51063500D01*
X157395141Y-51063500D01*
X157395131Y-51063501D01*
X157370007Y-51066415D01*
X157267233Y-51111794D01*
X157187794Y-51191234D01*
X157185228Y-51194980D01*
X157183164Y-51193566D01*
X157162235Y-51213517D01*
X157124743Y-51212620D01*
X157117350Y-51208553D01*
X157068035Y-51175603D01*
X157040000Y-51170026D01*
X156816001Y-51170026D01*
X156837207Y-51133296D01*
X156864499Y-51031438D01*
X156864500Y-51031438D01*
X156864500Y-50988104D01*
X159265500Y-50988104D01*
X159265500Y-51119895D01*
X159299607Y-51247184D01*
X159299608Y-51247188D01*
X159341148Y-51319136D01*
X159365500Y-51361314D01*
X159458686Y-51454500D01*
X159465500Y-51458434D01*
X159572811Y-51520391D01*
X159572813Y-51520391D01*
X159572814Y-51520392D01*
X159673207Y-51547292D01*
X159700104Y-51554499D01*
X159700105Y-51554500D01*
X159700108Y-51554500D01*
X159831895Y-51554500D01*
X159831895Y-51554499D01*
X159959186Y-51520392D01*
X160073314Y-51454500D01*
X160166500Y-51361314D01*
X160223563Y-51262478D01*
X160232391Y-51247188D01*
X160232391Y-51247187D01*
X160232392Y-51247186D01*
X160266499Y-51119895D01*
X160266500Y-51119895D01*
X160266500Y-50998766D01*
X160280852Y-50964118D01*
X161026900Y-50218070D01*
X161906434Y-49338535D01*
X161941081Y-49324184D01*
X161970178Y-49333759D01*
X162056022Y-49397114D01*
X162056025Y-49397116D01*
X162180651Y-49440725D01*
X162210244Y-49443500D01*
X162210254Y-49443500D01*
X162815746Y-49443500D01*
X162815756Y-49443500D01*
X162845349Y-49440725D01*
X162969975Y-49397116D01*
X163076211Y-49318711D01*
X163154616Y-49212475D01*
X163198225Y-49087849D01*
X163201000Y-49058256D01*
X163201000Y-48477744D01*
X163198225Y-48448151D01*
X163154616Y-48323525D01*
X163154614Y-48323522D01*
X163154615Y-48323522D01*
X163076211Y-48217288D01*
X162969977Y-48138885D01*
X162969975Y-48138884D01*
X162932569Y-48125794D01*
X162845351Y-48095275D01*
X162845342Y-48095274D01*
X162815767Y-48092501D01*
X162815766Y-48092500D01*
X162815756Y-48092500D01*
X162210244Y-48092500D01*
X162210234Y-48092500D01*
X162210232Y-48092501D01*
X162180657Y-48095274D01*
X162180648Y-48095275D01*
X162056022Y-48138885D01*
X161949788Y-48217288D01*
X161871385Y-48323522D01*
X161827775Y-48448148D01*
X161827774Y-48448157D01*
X161825001Y-48477732D01*
X161825000Y-48477753D01*
X161825000Y-48549732D01*
X161810648Y-48584380D01*
X159855880Y-50539148D01*
X159821232Y-50553500D01*
X159700105Y-50553500D01*
X159572815Y-50587607D01*
X159572811Y-50587608D01*
X159458685Y-50653500D01*
X159458685Y-50653501D01*
X159365501Y-50746685D01*
X159365500Y-50746685D01*
X159299608Y-50860811D01*
X159299607Y-50860815D01*
X159265500Y-50988104D01*
X156864500Y-50988104D01*
X156864500Y-50485140D01*
X156878852Y-50450492D01*
X156897313Y-50438891D01*
X156970975Y-50413116D01*
X157077211Y-50334711D01*
X157155616Y-50228475D01*
X157199225Y-50103849D01*
X157202000Y-50074256D01*
X157202000Y-50061044D01*
X157551501Y-50061044D01*
X157557970Y-50110196D01*
X157608273Y-50218070D01*
X157692429Y-50302226D01*
X157800303Y-50352529D01*
X157849457Y-50358999D01*
X158038999Y-50358999D01*
X158339000Y-50358999D01*
X158528539Y-50358999D01*
X158528544Y-50358998D01*
X158577696Y-50352529D01*
X158685570Y-50302226D01*
X158769726Y-50218070D01*
X158820029Y-50110196D01*
X158826499Y-50061043D01*
X158826500Y-50061041D01*
X158826500Y-49934000D01*
X158339000Y-49934000D01*
X158339000Y-50358999D01*
X158038999Y-50358999D01*
X158039000Y-50358998D01*
X158039000Y-49934000D01*
X157551501Y-49934000D01*
X157551501Y-50061044D01*
X157202000Y-50061044D01*
X157202000Y-49506956D01*
X157551500Y-49506956D01*
X157551500Y-49634000D01*
X158039000Y-49634000D01*
X158339000Y-49634000D01*
X158826499Y-49634000D01*
X158826499Y-49506961D01*
X158826498Y-49506955D01*
X158820029Y-49457803D01*
X158769726Y-49349929D01*
X158685570Y-49265773D01*
X158577696Y-49215470D01*
X158528543Y-49209000D01*
X158339000Y-49209000D01*
X158339000Y-49634000D01*
X158039000Y-49634000D01*
X158039000Y-49209000D01*
X157849461Y-49209000D01*
X157849455Y-49209001D01*
X157800303Y-49215470D01*
X157692429Y-49265773D01*
X157608273Y-49349929D01*
X157557970Y-49457803D01*
X157551500Y-49506956D01*
X157202000Y-49506956D01*
X157202000Y-49493744D01*
X157199225Y-49464151D01*
X157155616Y-49339525D01*
X157155614Y-49339522D01*
X157155615Y-49339522D01*
X157077211Y-49233288D01*
X156970977Y-49154885D01*
X156970975Y-49154884D01*
X156897316Y-49129109D01*
X156869352Y-49104119D01*
X156864500Y-49082859D01*
X156864500Y-48961140D01*
X156878852Y-48926492D01*
X156897313Y-48914891D01*
X156970975Y-48889116D01*
X156985513Y-48878387D01*
X157077211Y-48810711D01*
X157125740Y-48744956D01*
X157155616Y-48704475D01*
X157199225Y-48579849D01*
X157202000Y-48550256D01*
X157202000Y-48537044D01*
X157551501Y-48537044D01*
X157557970Y-48586196D01*
X157608273Y-48694070D01*
X157692429Y-48778226D01*
X157800303Y-48828529D01*
X157849457Y-48834999D01*
X158038999Y-48834999D01*
X158339000Y-48834999D01*
X158528539Y-48834999D01*
X158528544Y-48834998D01*
X158577696Y-48828529D01*
X158685570Y-48778226D01*
X158769726Y-48694070D01*
X158820029Y-48586196D01*
X158826499Y-48537043D01*
X158826500Y-48537041D01*
X158826500Y-48410000D01*
X158339000Y-48410000D01*
X158339000Y-48834999D01*
X158038999Y-48834999D01*
X158039000Y-48834998D01*
X158039000Y-48410000D01*
X157551501Y-48410000D01*
X157551501Y-48537044D01*
X157202000Y-48537044D01*
X157202000Y-47982956D01*
X157551500Y-47982956D01*
X157551500Y-48110000D01*
X158039000Y-48110000D01*
X158339000Y-48110000D01*
X158826499Y-48110000D01*
X158826499Y-47982961D01*
X158826498Y-47982955D01*
X158820029Y-47933803D01*
X158769726Y-47825929D01*
X158685570Y-47741773D01*
X158577696Y-47691470D01*
X158528543Y-47685000D01*
X158339000Y-47685000D01*
X158339000Y-48110000D01*
X158039000Y-48110000D01*
X158039000Y-47685000D01*
X157849461Y-47685000D01*
X157849455Y-47685001D01*
X157800303Y-47691470D01*
X157692429Y-47741773D01*
X157608273Y-47825929D01*
X157557970Y-47933803D01*
X157551500Y-47982956D01*
X157202000Y-47982956D01*
X157202000Y-47969744D01*
X157199225Y-47940151D01*
X157155616Y-47815525D01*
X157155614Y-47815522D01*
X157155615Y-47815522D01*
X157077211Y-47709288D01*
X156970977Y-47630885D01*
X156970975Y-47630884D01*
X156933569Y-47617794D01*
X156846351Y-47587275D01*
X156846342Y-47587274D01*
X156816767Y-47584501D01*
X156816766Y-47584500D01*
X156816756Y-47584500D01*
X156816746Y-47584500D01*
X156375189Y-47584500D01*
X156340541Y-47570148D01*
X156116852Y-47346459D01*
X156102500Y-47311811D01*
X156102500Y-46454428D01*
X156116852Y-46419780D01*
X156151500Y-46405428D01*
X156186148Y-46419780D01*
X156302345Y-46535977D01*
X156474402Y-46650941D01*
X156665580Y-46730130D01*
X156868535Y-46770500D01*
X156868538Y-46770500D01*
X157075462Y-46770500D01*
X157075465Y-46770500D01*
X157278420Y-46730130D01*
X157469598Y-46650941D01*
X157641655Y-46535977D01*
X157787977Y-46389655D01*
X157902941Y-46217598D01*
X157982130Y-46026420D01*
X158022500Y-45823465D01*
X158022500Y-45616535D01*
X158461500Y-45616535D01*
X158461500Y-45823465D01*
X158473500Y-45883793D01*
X158501869Y-46026417D01*
X158501871Y-46026423D01*
X158575537Y-46204267D01*
X158581059Y-46217598D01*
X158696023Y-46389655D01*
X158842345Y-46535977D01*
X159014402Y-46650941D01*
X159205580Y-46730130D01*
X159408535Y-46770500D01*
X159408538Y-46770500D01*
X159615462Y-46770500D01*
X159615465Y-46770500D01*
X159818420Y-46730130D01*
X160009598Y-46650941D01*
X160181655Y-46535977D01*
X160327977Y-46389655D01*
X160442941Y-46217598D01*
X160522130Y-46026420D01*
X160562500Y-45823465D01*
X160562500Y-45616535D01*
X160522130Y-45413580D01*
X160442941Y-45222402D01*
X160327977Y-45050345D01*
X160181655Y-44904023D01*
X160009598Y-44789059D01*
X159918875Y-44751480D01*
X159818423Y-44709871D01*
X159818417Y-44709869D01*
X159736572Y-44693589D01*
X159615465Y-44669500D01*
X159408535Y-44669500D01*
X159307520Y-44689592D01*
X159205582Y-44709869D01*
X159205576Y-44709871D01*
X159014403Y-44789058D01*
X158842345Y-44904022D01*
X158696022Y-45050345D01*
X158581058Y-45222403D01*
X158501871Y-45413576D01*
X158501869Y-45413582D01*
X158483115Y-45507868D01*
X158461500Y-45616535D01*
X158022500Y-45616535D01*
X157982130Y-45413580D01*
X157902941Y-45222402D01*
X157787977Y-45050345D01*
X157641655Y-44904023D01*
X157469598Y-44789059D01*
X157378875Y-44751480D01*
X157278423Y-44709871D01*
X157278417Y-44709869D01*
X157196572Y-44693589D01*
X157075465Y-44669500D01*
X156868535Y-44669500D01*
X156767520Y-44689592D01*
X156665582Y-44709869D01*
X156665576Y-44709871D01*
X156474403Y-44789058D01*
X156302345Y-44904022D01*
X156156024Y-45050343D01*
X156156021Y-45050347D01*
X156151525Y-45057076D01*
X156120342Y-45077911D01*
X156083560Y-45070593D01*
X156068349Y-45054352D01*
X156022479Y-44974904D01*
X155158095Y-44110520D01*
X155066771Y-44057793D01*
X155000976Y-44040163D01*
X154971224Y-44017333D01*
X154966329Y-43980150D01*
X154986437Y-43952090D01*
X154989747Y-43949878D01*
X154663538Y-43623670D01*
X154739007Y-43580099D01*
X154832099Y-43487007D01*
X154875670Y-43411538D01*
X155201878Y-43737747D01*
X155201879Y-43737747D01*
X155273880Y-43629990D01*
X155345489Y-43457112D01*
X155345494Y-43457093D01*
X155381999Y-43273572D01*
X155382000Y-43273565D01*
X155382000Y-43086434D01*
X155381999Y-43086427D01*
X155345494Y-42902906D01*
X155345489Y-42902887D01*
X155273880Y-42730009D01*
X155201879Y-42622251D01*
X154875670Y-42948460D01*
X154832099Y-42872993D01*
X154739007Y-42779901D01*
X154663538Y-42736329D01*
X154975016Y-42424852D01*
X155009664Y-42410500D01*
X156137572Y-42410500D01*
X156172220Y-42424852D01*
G37*
%TD.AperFunction*%
%TA.AperFunction,Conductor*%
G36*
X153888984Y-42424852D02*
G01*
X154200461Y-42736329D01*
X154124993Y-42779901D01*
X154031901Y-42872993D01*
X153988329Y-42948460D01*
X153662119Y-42622251D01*
X153590120Y-42730005D01*
X153518510Y-42902887D01*
X153518505Y-42902906D01*
X153482000Y-43086427D01*
X153482000Y-43273572D01*
X153518505Y-43457093D01*
X153518510Y-43457112D01*
X153590119Y-43629990D01*
X153662119Y-43737747D01*
X153662120Y-43737748D01*
X153988329Y-43411538D01*
X154031901Y-43487007D01*
X154124993Y-43580099D01*
X154200460Y-43623670D01*
X153874251Y-43949879D01*
X153875557Y-43963145D01*
X153881434Y-43971940D01*
X153874119Y-44008722D01*
X153842936Y-44029558D01*
X153833376Y-44030500D01*
X152645428Y-44030500D01*
X152610780Y-44016148D01*
X152596428Y-43981500D01*
X152610780Y-43946852D01*
X152707977Y-43849655D01*
X152822941Y-43677598D01*
X152902130Y-43486420D01*
X152942500Y-43283465D01*
X152942500Y-43076535D01*
X152902130Y-42873580D01*
X152822941Y-42682402D01*
X152707977Y-42510345D01*
X152691780Y-42494148D01*
X152677428Y-42459500D01*
X152691780Y-42424852D01*
X152726428Y-42410500D01*
X153854336Y-42410500D01*
X153888984Y-42424852D01*
G37*
%TD.AperFunction*%
%TD*%
M02*
