M48
; DRILL file {KiCad 9.0.7} date 2026-03-14T23:14:57+0000
; FORMAT={-:-/ absolute / inch / decimal}
; #@! TF.CreationDate,2026-03-14T23:14:57+00:00
; #@! TF.GenerationSoftware,Kicad,Pcbnew,9.0.7
; #@! TF.FileFunction,Plated,1,2,PTH
FMAT,2
INCH
; #@! TA.AperFunction,Plated,PTH,ViaDrill
T1C0.0118
; #@! TA.AperFunction,Plated,PTH,ViaDrill
T2C0.0157
; #@! TA.AperFunction,Plated,PTH,ComponentDrill
T3C0.0394
%
G90
G05
T1
X5.73Y-2.01
X5.76Y-1.87
X5.8091Y-1.9357
X5.99Y-2.31
X6.0Y-2.09
X6.0Y-2.16
X6.0237Y-2.0572
X6.29Y-2.01
T2
X5.72Y-1.96
X5.76Y-2.25
X5.87Y-2.39
X5.88Y-2.07
X5.93Y-1.84
X5.93Y-1.89
X5.99Y-1.93
X6.06Y-2.16
X6.09Y-1.86
X6.09Y-2.2
X6.11Y-2.1
X6.1256Y-1.9956
X6.13Y-2.16
X6.16Y-2.1
X6.17Y-2.22
X6.19Y-2.16
X6.24Y-2.35
X6.28Y-1.9
X6.28Y-1.96
X6.33Y-2.2
X6.41Y-2.07
X6.41Y-2.13
X6.43Y-2.27
X6.44Y-2.4
X6.69Y-1.98
X6.69Y-2.22
X6.82Y-2.15
X6.82Y-2.21
T3
X5.48Y-1.7
X5.48Y-1.8
X5.58Y-1.7
X5.58Y-1.8
X5.68Y-1.7
X5.68Y-1.8
X5.78Y-1.7
X5.78Y-1.8
X5.88Y-1.7
X5.88Y-1.8
X5.98Y-1.7
X5.98Y-1.8
X6.08Y-1.7
X6.08Y-1.8
X6.18Y-1.7
X6.18Y-1.8
X6.28Y-1.7
X6.28Y-1.8
X6.38Y-1.7
X6.38Y-1.8
X6.48Y-1.7
X6.48Y-1.8
M30
