%TF.GenerationSoftware,KiCad,Pcbnew,9.0.7*%
%TF.CreationDate,2026-03-14T23:14:57+00:00*%
%TF.ProjectId,rgbtohdmi-audio,72676274-6f68-4646-9d69-2d617564696f,rev?*%
%TF.SameCoordinates,Original*%
%TF.FileFunction,Legend,Top*%
%TF.FilePolarity,Positive*%
%FSLAX46Y46*%
G04 Gerber Fmt 4.6, Leading zero omitted, Abs format (unit mm)*
G04 Created by KiCad (PCBNEW 9.0.7) date 2026-03-14 23:14:57*
%MOMM*%
%LPD*%
G01*
G04 APERTURE LIST*
G04 Aperture macros list*
%AMRoundRect*
0 Rectangle with rounded corners*
0 $1 Rounding radius*
0 $2 $3 $4 $5 $6 $7 $8 $9 X,Y pos of 4 corners*
0 Add a 4 corners polygon primitive as box body*
4,1,4,$2,$3,$4,$5,$6,$7,$8,$9,$2,$3,0*
0 Add four circle primitives for the rounded corners*
1,1,$1+$1,$2,$3*
1,1,$1+$1,$4,$5*
1,1,$1+$1,$6,$7*
1,1,$1+$1,$8,$9*
0 Add four rect primitives between the rounded corners*
20,1,$1+$1,$2,$3,$4,$5,0*
20,1,$1+$1,$4,$5,$6,$7,0*
20,1,$1+$1,$6,$7,$8,$9,0*
20,1,$1+$1,$8,$9,$2,$3,0*%
%AMFreePoly0*
4,1,23,0.500000,-0.750000,0.000000,-0.750000,0.000000,-0.745722,-0.065263,-0.745722,-0.191342,-0.711940,-0.304381,-0.646677,-0.396677,-0.554381,-0.461940,-0.441342,-0.495722,-0.315263,-0.495722,-0.250000,-0.500000,-0.250000,-0.500000,0.250000,-0.495722,0.250000,-0.495722,0.315263,-0.461940,0.441342,-0.396677,0.554381,-0.304381,0.646677,-0.191342,0.711940,-0.065263,0.745722,0.000000,0.745722,
0.000000,0.750000,0.500000,0.750000,0.500000,-0.750000,0.500000,-0.750000,$1*%
%AMFreePoly1*
4,1,23,0.000000,0.745722,0.065263,0.745722,0.191342,0.711940,0.304381,0.646677,0.396677,0.554381,0.461940,0.441342,0.495722,0.315263,0.495722,0.250000,0.500000,0.250000,0.500000,-0.250000,0.495722,-0.250000,0.495722,-0.315263,0.461940,-0.441342,0.396677,-0.554381,0.304381,-0.646677,0.191342,-0.711940,0.065263,-0.745722,0.000000,-0.745722,0.000000,-0.750000,-0.500000,-0.750000,
-0.500000,0.750000,0.000000,0.750000,0.000000,0.745722,0.000000,0.745722,$1*%
G04 Aperture macros list end*
%ADD10C,0.100000*%
%ADD11C,0.150000*%
%ADD12C,0.120000*%
%ADD13RoundRect,0.237500X0.250000X0.237500X-0.250000X0.237500X-0.250000X-0.237500X0.250000X-0.237500X0*%
%ADD14FreePoly0,0.000000*%
%ADD15FreePoly1,0.000000*%
%ADD16RoundRect,0.237500X-0.250000X-0.237500X0.250000X-0.237500X0.250000X0.237500X-0.250000X0.237500X0*%
%ADD17RoundRect,0.237500X-0.300000X-0.237500X0.300000X-0.237500X0.300000X0.237500X-0.300000X0.237500X0*%
%ADD18RoundRect,0.162500X-0.617500X-0.162500X0.617500X-0.162500X0.617500X0.162500X-0.617500X0.162500X0*%
%ADD19RoundRect,0.500000X-1.500000X0.500000X-1.500000X-0.500000X1.500000X-0.500000X1.500000X0.500000X0*%
%ADD20R,1.700000X1.700000*%
%ADD21C,1.700000*%
%ADD22RoundRect,0.100000X-0.100000X0.637500X-0.100000X-0.637500X0.100000X-0.637500X0.100000X0.637500X0*%
%ADD23RoundRect,0.237500X0.300000X0.237500X-0.300000X0.237500X-0.300000X-0.237500X0.300000X-0.237500X0*%
%ADD24R,1.750000X0.900000*%
G04 APERTURE END LIST*
D10*
X174262074Y-59054419D02*
X173785884Y-59054419D01*
X173785884Y-59054419D02*
X173785884Y-58054419D01*
X174357312Y-52958419D02*
X174023979Y-52482228D01*
X173785884Y-52958419D02*
X173785884Y-51958419D01*
X173785884Y-51958419D02*
X174166836Y-51958419D01*
X174166836Y-51958419D02*
X174262074Y-52006038D01*
X174262074Y-52006038D02*
X174309693Y-52053657D01*
X174309693Y-52053657D02*
X174357312Y-52148895D01*
X174357312Y-52148895D02*
X174357312Y-52291752D01*
X174357312Y-52291752D02*
X174309693Y-52386990D01*
X174309693Y-52386990D02*
X174262074Y-52434609D01*
X174262074Y-52434609D02*
X174166836Y-52482228D01*
X174166836Y-52482228D02*
X173785884Y-52482228D01*
X174309693Y-55054038D02*
X174214455Y-55006419D01*
X174214455Y-55006419D02*
X174071598Y-55006419D01*
X174071598Y-55006419D02*
X173928741Y-55054038D01*
X173928741Y-55054038D02*
X173833503Y-55149276D01*
X173833503Y-55149276D02*
X173785884Y-55244514D01*
X173785884Y-55244514D02*
X173738265Y-55434990D01*
X173738265Y-55434990D02*
X173738265Y-55577847D01*
X173738265Y-55577847D02*
X173785884Y-55768323D01*
X173785884Y-55768323D02*
X173833503Y-55863561D01*
X173833503Y-55863561D02*
X173928741Y-55958800D01*
X173928741Y-55958800D02*
X174071598Y-56006419D01*
X174071598Y-56006419D02*
X174166836Y-56006419D01*
X174166836Y-56006419D02*
X174309693Y-55958800D01*
X174309693Y-55958800D02*
X174357312Y-55911180D01*
X174357312Y-55911180D02*
X174357312Y-55577847D01*
X174357312Y-55577847D02*
X174166836Y-55577847D01*
D11*
X145836333Y-51762819D02*
X145503000Y-51286628D01*
X145264905Y-51762819D02*
X145264905Y-50762819D01*
X145264905Y-50762819D02*
X145645857Y-50762819D01*
X145645857Y-50762819D02*
X145741095Y-50810438D01*
X145741095Y-50810438D02*
X145788714Y-50858057D01*
X145788714Y-50858057D02*
X145836333Y-50953295D01*
X145836333Y-50953295D02*
X145836333Y-51096152D01*
X145836333Y-51096152D02*
X145788714Y-51191390D01*
X145788714Y-51191390D02*
X145741095Y-51239009D01*
X145741095Y-51239009D02*
X145645857Y-51286628D01*
X145645857Y-51286628D02*
X145264905Y-51286628D01*
X146693476Y-51096152D02*
X146693476Y-51762819D01*
X146455381Y-50715200D02*
X146217286Y-51429485D01*
X146217286Y-51429485D02*
X146836333Y-51429485D01*
X160090666Y-58360819D02*
X160090666Y-59075104D01*
X160090666Y-59075104D02*
X160043047Y-59217961D01*
X160043047Y-59217961D02*
X159947809Y-59313200D01*
X159947809Y-59313200D02*
X159804952Y-59360819D01*
X159804952Y-59360819D02*
X159709714Y-59360819D01*
X160566857Y-59360819D02*
X160566857Y-58360819D01*
X160566857Y-58360819D02*
X160947809Y-58360819D01*
X160947809Y-58360819D02*
X161043047Y-58408438D01*
X161043047Y-58408438D02*
X161090666Y-58456057D01*
X161090666Y-58456057D02*
X161138285Y-58551295D01*
X161138285Y-58551295D02*
X161138285Y-58694152D01*
X161138285Y-58694152D02*
X161090666Y-58789390D01*
X161090666Y-58789390D02*
X161043047Y-58837009D01*
X161043047Y-58837009D02*
X160947809Y-58884628D01*
X160947809Y-58884628D02*
X160566857Y-58884628D01*
X162090666Y-59360819D02*
X161519238Y-59360819D01*
X161804952Y-59360819D02*
X161804952Y-58360819D01*
X161804952Y-58360819D02*
X161709714Y-58503676D01*
X161709714Y-58503676D02*
X161614476Y-58598914D01*
X161614476Y-58598914D02*
X161519238Y-58646533D01*
X145883333Y-49476819D02*
X145550000Y-49000628D01*
X145311905Y-49476819D02*
X145311905Y-48476819D01*
X145311905Y-48476819D02*
X145692857Y-48476819D01*
X145692857Y-48476819D02*
X145788095Y-48524438D01*
X145788095Y-48524438D02*
X145835714Y-48572057D01*
X145835714Y-48572057D02*
X145883333Y-48667295D01*
X145883333Y-48667295D02*
X145883333Y-48810152D01*
X145883333Y-48810152D02*
X145835714Y-48905390D01*
X145835714Y-48905390D02*
X145788095Y-48953009D01*
X145788095Y-48953009D02*
X145692857Y-49000628D01*
X145692857Y-49000628D02*
X145311905Y-49000628D01*
X146835714Y-49476819D02*
X146264286Y-49476819D01*
X146550000Y-49476819D02*
X146550000Y-48476819D01*
X146550000Y-48476819D02*
X146454762Y-48619676D01*
X146454762Y-48619676D02*
X146359524Y-48714914D01*
X146359524Y-48714914D02*
X146264286Y-48762533D01*
X163155333Y-52937580D02*
X163107714Y-52985200D01*
X163107714Y-52985200D02*
X162964857Y-53032819D01*
X162964857Y-53032819D02*
X162869619Y-53032819D01*
X162869619Y-53032819D02*
X162726762Y-52985200D01*
X162726762Y-52985200D02*
X162631524Y-52889961D01*
X162631524Y-52889961D02*
X162583905Y-52794723D01*
X162583905Y-52794723D02*
X162536286Y-52604247D01*
X162536286Y-52604247D02*
X162536286Y-52461390D01*
X162536286Y-52461390D02*
X162583905Y-52270914D01*
X162583905Y-52270914D02*
X162631524Y-52175676D01*
X162631524Y-52175676D02*
X162726762Y-52080438D01*
X162726762Y-52080438D02*
X162869619Y-52032819D01*
X162869619Y-52032819D02*
X162964857Y-52032819D01*
X162964857Y-52032819D02*
X163107714Y-52080438D01*
X163107714Y-52080438D02*
X163155333Y-52128057D01*
X163631524Y-53032819D02*
X163822000Y-53032819D01*
X163822000Y-53032819D02*
X163917238Y-52985200D01*
X163917238Y-52985200D02*
X163964857Y-52937580D01*
X163964857Y-52937580D02*
X164060095Y-52794723D01*
X164060095Y-52794723D02*
X164107714Y-52604247D01*
X164107714Y-52604247D02*
X164107714Y-52223295D01*
X164107714Y-52223295D02*
X164060095Y-52128057D01*
X164060095Y-52128057D02*
X164012476Y-52080438D01*
X164012476Y-52080438D02*
X163917238Y-52032819D01*
X163917238Y-52032819D02*
X163726762Y-52032819D01*
X163726762Y-52032819D02*
X163631524Y-52080438D01*
X163631524Y-52080438D02*
X163583905Y-52128057D01*
X163583905Y-52128057D02*
X163536286Y-52223295D01*
X163536286Y-52223295D02*
X163536286Y-52461390D01*
X163536286Y-52461390D02*
X163583905Y-52556628D01*
X163583905Y-52556628D02*
X163631524Y-52604247D01*
X163631524Y-52604247D02*
X163726762Y-52651866D01*
X163726762Y-52651866D02*
X163917238Y-52651866D01*
X163917238Y-52651866D02*
X164012476Y-52604247D01*
X164012476Y-52604247D02*
X164060095Y-52556628D01*
X164060095Y-52556628D02*
X164107714Y-52461390D01*
X153503333Y-61414819D02*
X153170000Y-60938628D01*
X152931905Y-61414819D02*
X152931905Y-60414819D01*
X152931905Y-60414819D02*
X153312857Y-60414819D01*
X153312857Y-60414819D02*
X153408095Y-60462438D01*
X153408095Y-60462438D02*
X153455714Y-60510057D01*
X153455714Y-60510057D02*
X153503333Y-60605295D01*
X153503333Y-60605295D02*
X153503333Y-60748152D01*
X153503333Y-60748152D02*
X153455714Y-60843390D01*
X153455714Y-60843390D02*
X153408095Y-60891009D01*
X153408095Y-60891009D02*
X153312857Y-60938628D01*
X153312857Y-60938628D02*
X152931905Y-60938628D01*
X154408095Y-60414819D02*
X153931905Y-60414819D01*
X153931905Y-60414819D02*
X153884286Y-60891009D01*
X153884286Y-60891009D02*
X153931905Y-60843390D01*
X153931905Y-60843390D02*
X154027143Y-60795771D01*
X154027143Y-60795771D02*
X154265238Y-60795771D01*
X154265238Y-60795771D02*
X154360476Y-60843390D01*
X154360476Y-60843390D02*
X154408095Y-60891009D01*
X154408095Y-60891009D02*
X154455714Y-60986247D01*
X154455714Y-60986247D02*
X154455714Y-61224342D01*
X154455714Y-61224342D02*
X154408095Y-61319580D01*
X154408095Y-61319580D02*
X154360476Y-61367200D01*
X154360476Y-61367200D02*
X154265238Y-61414819D01*
X154265238Y-61414819D02*
X154027143Y-61414819D01*
X154027143Y-61414819D02*
X153931905Y-61367200D01*
X153931905Y-61367200D02*
X153884286Y-61319580D01*
X167576833Y-54302819D02*
X167243500Y-53826628D01*
X167005405Y-54302819D02*
X167005405Y-53302819D01*
X167005405Y-53302819D02*
X167386357Y-53302819D01*
X167386357Y-53302819D02*
X167481595Y-53350438D01*
X167481595Y-53350438D02*
X167529214Y-53398057D01*
X167529214Y-53398057D02*
X167576833Y-53493295D01*
X167576833Y-53493295D02*
X167576833Y-53636152D01*
X167576833Y-53636152D02*
X167529214Y-53731390D01*
X167529214Y-53731390D02*
X167481595Y-53779009D01*
X167481595Y-53779009D02*
X167386357Y-53826628D01*
X167386357Y-53826628D02*
X167005405Y-53826628D01*
X167957786Y-53398057D02*
X168005405Y-53350438D01*
X168005405Y-53350438D02*
X168100643Y-53302819D01*
X168100643Y-53302819D02*
X168338738Y-53302819D01*
X168338738Y-53302819D02*
X168433976Y-53350438D01*
X168433976Y-53350438D02*
X168481595Y-53398057D01*
X168481595Y-53398057D02*
X168529214Y-53493295D01*
X168529214Y-53493295D02*
X168529214Y-53588533D01*
X168529214Y-53588533D02*
X168481595Y-53731390D01*
X168481595Y-53731390D02*
X167910167Y-54302819D01*
X167910167Y-54302819D02*
X168529214Y-54302819D01*
X159546333Y-50143580D02*
X159498714Y-50191200D01*
X159498714Y-50191200D02*
X159355857Y-50238819D01*
X159355857Y-50238819D02*
X159260619Y-50238819D01*
X159260619Y-50238819D02*
X159117762Y-50191200D01*
X159117762Y-50191200D02*
X159022524Y-50095961D01*
X159022524Y-50095961D02*
X158974905Y-50000723D01*
X158974905Y-50000723D02*
X158927286Y-49810247D01*
X158927286Y-49810247D02*
X158927286Y-49667390D01*
X158927286Y-49667390D02*
X158974905Y-49476914D01*
X158974905Y-49476914D02*
X159022524Y-49381676D01*
X159022524Y-49381676D02*
X159117762Y-49286438D01*
X159117762Y-49286438D02*
X159260619Y-49238819D01*
X159260619Y-49238819D02*
X159355857Y-49238819D01*
X159355857Y-49238819D02*
X159498714Y-49286438D01*
X159498714Y-49286438D02*
X159546333Y-49334057D01*
X160117762Y-49667390D02*
X160022524Y-49619771D01*
X160022524Y-49619771D02*
X159974905Y-49572152D01*
X159974905Y-49572152D02*
X159927286Y-49476914D01*
X159927286Y-49476914D02*
X159927286Y-49429295D01*
X159927286Y-49429295D02*
X159974905Y-49334057D01*
X159974905Y-49334057D02*
X160022524Y-49286438D01*
X160022524Y-49286438D02*
X160117762Y-49238819D01*
X160117762Y-49238819D02*
X160308238Y-49238819D01*
X160308238Y-49238819D02*
X160403476Y-49286438D01*
X160403476Y-49286438D02*
X160451095Y-49334057D01*
X160451095Y-49334057D02*
X160498714Y-49429295D01*
X160498714Y-49429295D02*
X160498714Y-49476914D01*
X160498714Y-49476914D02*
X160451095Y-49572152D01*
X160451095Y-49572152D02*
X160403476Y-49619771D01*
X160403476Y-49619771D02*
X160308238Y-49667390D01*
X160308238Y-49667390D02*
X160117762Y-49667390D01*
X160117762Y-49667390D02*
X160022524Y-49715009D01*
X160022524Y-49715009D02*
X159974905Y-49762628D01*
X159974905Y-49762628D02*
X159927286Y-49857866D01*
X159927286Y-49857866D02*
X159927286Y-50048342D01*
X159927286Y-50048342D02*
X159974905Y-50143580D01*
X159974905Y-50143580D02*
X160022524Y-50191200D01*
X160022524Y-50191200D02*
X160117762Y-50238819D01*
X160117762Y-50238819D02*
X160308238Y-50238819D01*
X160308238Y-50238819D02*
X160403476Y-50191200D01*
X160403476Y-50191200D02*
X160451095Y-50143580D01*
X160451095Y-50143580D02*
X160498714Y-50048342D01*
X160498714Y-50048342D02*
X160498714Y-49857866D01*
X160498714Y-49857866D02*
X160451095Y-49762628D01*
X160451095Y-49762628D02*
X160403476Y-49715009D01*
X160403476Y-49715009D02*
X160308238Y-49667390D01*
X145288095Y-57874819D02*
X145288095Y-58684342D01*
X145288095Y-58684342D02*
X145335714Y-58779580D01*
X145335714Y-58779580D02*
X145383333Y-58827200D01*
X145383333Y-58827200D02*
X145478571Y-58874819D01*
X145478571Y-58874819D02*
X145669047Y-58874819D01*
X145669047Y-58874819D02*
X145764285Y-58827200D01*
X145764285Y-58827200D02*
X145811904Y-58779580D01*
X145811904Y-58779580D02*
X145859523Y-58684342D01*
X145859523Y-58684342D02*
X145859523Y-57874819D01*
X146288095Y-57970057D02*
X146335714Y-57922438D01*
X146335714Y-57922438D02*
X146430952Y-57874819D01*
X146430952Y-57874819D02*
X146669047Y-57874819D01*
X146669047Y-57874819D02*
X146764285Y-57922438D01*
X146764285Y-57922438D02*
X146811904Y-57970057D01*
X146811904Y-57970057D02*
X146859523Y-58065295D01*
X146859523Y-58065295D02*
X146859523Y-58160533D01*
X146859523Y-58160533D02*
X146811904Y-58303390D01*
X146811904Y-58303390D02*
X146240476Y-58874819D01*
X146240476Y-58874819D02*
X146859523Y-58874819D01*
X164679333Y-59128819D02*
X164346000Y-58652628D01*
X164107905Y-59128819D02*
X164107905Y-58128819D01*
X164107905Y-58128819D02*
X164488857Y-58128819D01*
X164488857Y-58128819D02*
X164584095Y-58176438D01*
X164584095Y-58176438D02*
X164631714Y-58224057D01*
X164631714Y-58224057D02*
X164679333Y-58319295D01*
X164679333Y-58319295D02*
X164679333Y-58462152D01*
X164679333Y-58462152D02*
X164631714Y-58557390D01*
X164631714Y-58557390D02*
X164584095Y-58605009D01*
X164584095Y-58605009D02*
X164488857Y-58652628D01*
X164488857Y-58652628D02*
X164107905Y-58652628D01*
X165012667Y-58128819D02*
X165631714Y-58128819D01*
X165631714Y-58128819D02*
X165298381Y-58509771D01*
X165298381Y-58509771D02*
X165441238Y-58509771D01*
X165441238Y-58509771D02*
X165536476Y-58557390D01*
X165536476Y-58557390D02*
X165584095Y-58605009D01*
X165584095Y-58605009D02*
X165631714Y-58700247D01*
X165631714Y-58700247D02*
X165631714Y-58938342D01*
X165631714Y-58938342D02*
X165584095Y-59033580D01*
X165584095Y-59033580D02*
X165536476Y-59081200D01*
X165536476Y-59081200D02*
X165441238Y-59128819D01*
X165441238Y-59128819D02*
X165155524Y-59128819D01*
X165155524Y-59128819D02*
X165060286Y-59081200D01*
X165060286Y-59081200D02*
X165012667Y-59033580D01*
X171690833Y-57349580D02*
X171643214Y-57397200D01*
X171643214Y-57397200D02*
X171500357Y-57444819D01*
X171500357Y-57444819D02*
X171405119Y-57444819D01*
X171405119Y-57444819D02*
X171262262Y-57397200D01*
X171262262Y-57397200D02*
X171167024Y-57301961D01*
X171167024Y-57301961D02*
X171119405Y-57206723D01*
X171119405Y-57206723D02*
X171071786Y-57016247D01*
X171071786Y-57016247D02*
X171071786Y-56873390D01*
X171071786Y-56873390D02*
X171119405Y-56682914D01*
X171119405Y-56682914D02*
X171167024Y-56587676D01*
X171167024Y-56587676D02*
X171262262Y-56492438D01*
X171262262Y-56492438D02*
X171405119Y-56444819D01*
X171405119Y-56444819D02*
X171500357Y-56444819D01*
X171500357Y-56444819D02*
X171643214Y-56492438D01*
X171643214Y-56492438D02*
X171690833Y-56540057D01*
X172547976Y-56778152D02*
X172547976Y-57444819D01*
X172309881Y-56397200D02*
X172071786Y-57111485D01*
X172071786Y-57111485D02*
X172690833Y-57111485D01*
X158750095Y-55842819D02*
X158750095Y-56652342D01*
X158750095Y-56652342D02*
X158797714Y-56747580D01*
X158797714Y-56747580D02*
X158845333Y-56795200D01*
X158845333Y-56795200D02*
X158940571Y-56842819D01*
X158940571Y-56842819D02*
X159131047Y-56842819D01*
X159131047Y-56842819D02*
X159226285Y-56795200D01*
X159226285Y-56795200D02*
X159273904Y-56747580D01*
X159273904Y-56747580D02*
X159321523Y-56652342D01*
X159321523Y-56652342D02*
X159321523Y-55842819D01*
X160321523Y-56842819D02*
X159750095Y-56842819D01*
X160035809Y-56842819D02*
X160035809Y-55842819D01*
X160035809Y-55842819D02*
X159940571Y-55985676D01*
X159940571Y-55985676D02*
X159845333Y-56080914D01*
X159845333Y-56080914D02*
X159750095Y-56128533D01*
X163187142Y-54461580D02*
X163139523Y-54509200D01*
X163139523Y-54509200D02*
X162996666Y-54556819D01*
X162996666Y-54556819D02*
X162901428Y-54556819D01*
X162901428Y-54556819D02*
X162758571Y-54509200D01*
X162758571Y-54509200D02*
X162663333Y-54413961D01*
X162663333Y-54413961D02*
X162615714Y-54318723D01*
X162615714Y-54318723D02*
X162568095Y-54128247D01*
X162568095Y-54128247D02*
X162568095Y-53985390D01*
X162568095Y-53985390D02*
X162615714Y-53794914D01*
X162615714Y-53794914D02*
X162663333Y-53699676D01*
X162663333Y-53699676D02*
X162758571Y-53604438D01*
X162758571Y-53604438D02*
X162901428Y-53556819D01*
X162901428Y-53556819D02*
X162996666Y-53556819D01*
X162996666Y-53556819D02*
X163139523Y-53604438D01*
X163139523Y-53604438D02*
X163187142Y-53652057D01*
X164139523Y-54556819D02*
X163568095Y-54556819D01*
X163853809Y-54556819D02*
X163853809Y-53556819D01*
X163853809Y-53556819D02*
X163758571Y-53699676D01*
X163758571Y-53699676D02*
X163663333Y-53794914D01*
X163663333Y-53794914D02*
X163568095Y-53842533D01*
X164758571Y-53556819D02*
X164853809Y-53556819D01*
X164853809Y-53556819D02*
X164949047Y-53604438D01*
X164949047Y-53604438D02*
X164996666Y-53652057D01*
X164996666Y-53652057D02*
X165044285Y-53747295D01*
X165044285Y-53747295D02*
X165091904Y-53937771D01*
X165091904Y-53937771D02*
X165091904Y-54175866D01*
X165091904Y-54175866D02*
X165044285Y-54366342D01*
X165044285Y-54366342D02*
X164996666Y-54461580D01*
X164996666Y-54461580D02*
X164949047Y-54509200D01*
X164949047Y-54509200D02*
X164853809Y-54556819D01*
X164853809Y-54556819D02*
X164758571Y-54556819D01*
X164758571Y-54556819D02*
X164663333Y-54509200D01*
X164663333Y-54509200D02*
X164615714Y-54461580D01*
X164615714Y-54461580D02*
X164568095Y-54366342D01*
X164568095Y-54366342D02*
X164520476Y-54175866D01*
X164520476Y-54175866D02*
X164520476Y-53937771D01*
X164520476Y-53937771D02*
X164568095Y-53747295D01*
X164568095Y-53747295D02*
X164615714Y-53652057D01*
X164615714Y-53652057D02*
X164663333Y-53604438D01*
X164663333Y-53604438D02*
X164758571Y-53556819D01*
X151217333Y-50143580D02*
X151169714Y-50191200D01*
X151169714Y-50191200D02*
X151026857Y-50238819D01*
X151026857Y-50238819D02*
X150931619Y-50238819D01*
X150931619Y-50238819D02*
X150788762Y-50191200D01*
X150788762Y-50191200D02*
X150693524Y-50095961D01*
X150693524Y-50095961D02*
X150645905Y-50000723D01*
X150645905Y-50000723D02*
X150598286Y-49810247D01*
X150598286Y-49810247D02*
X150598286Y-49667390D01*
X150598286Y-49667390D02*
X150645905Y-49476914D01*
X150645905Y-49476914D02*
X150693524Y-49381676D01*
X150693524Y-49381676D02*
X150788762Y-49286438D01*
X150788762Y-49286438D02*
X150931619Y-49238819D01*
X150931619Y-49238819D02*
X151026857Y-49238819D01*
X151026857Y-49238819D02*
X151169714Y-49286438D01*
X151169714Y-49286438D02*
X151217333Y-49334057D01*
X152074476Y-49238819D02*
X151884000Y-49238819D01*
X151884000Y-49238819D02*
X151788762Y-49286438D01*
X151788762Y-49286438D02*
X151741143Y-49334057D01*
X151741143Y-49334057D02*
X151645905Y-49476914D01*
X151645905Y-49476914D02*
X151598286Y-49667390D01*
X151598286Y-49667390D02*
X151598286Y-50048342D01*
X151598286Y-50048342D02*
X151645905Y-50143580D01*
X151645905Y-50143580D02*
X151693524Y-50191200D01*
X151693524Y-50191200D02*
X151788762Y-50238819D01*
X151788762Y-50238819D02*
X151979238Y-50238819D01*
X151979238Y-50238819D02*
X152074476Y-50191200D01*
X152074476Y-50191200D02*
X152122095Y-50143580D01*
X152122095Y-50143580D02*
X152169714Y-50048342D01*
X152169714Y-50048342D02*
X152169714Y-49810247D01*
X152169714Y-49810247D02*
X152122095Y-49715009D01*
X152122095Y-49715009D02*
X152074476Y-49667390D01*
X152074476Y-49667390D02*
X151979238Y-49619771D01*
X151979238Y-49619771D02*
X151788762Y-49619771D01*
X151788762Y-49619771D02*
X151693524Y-49667390D01*
X151693524Y-49667390D02*
X151645905Y-49715009D01*
X151645905Y-49715009D02*
X151598286Y-49810247D01*
X151217333Y-48619580D02*
X151169714Y-48667200D01*
X151169714Y-48667200D02*
X151026857Y-48714819D01*
X151026857Y-48714819D02*
X150931619Y-48714819D01*
X150931619Y-48714819D02*
X150788762Y-48667200D01*
X150788762Y-48667200D02*
X150693524Y-48571961D01*
X150693524Y-48571961D02*
X150645905Y-48476723D01*
X150645905Y-48476723D02*
X150598286Y-48286247D01*
X150598286Y-48286247D02*
X150598286Y-48143390D01*
X150598286Y-48143390D02*
X150645905Y-47952914D01*
X150645905Y-47952914D02*
X150693524Y-47857676D01*
X150693524Y-47857676D02*
X150788762Y-47762438D01*
X150788762Y-47762438D02*
X150931619Y-47714819D01*
X150931619Y-47714819D02*
X151026857Y-47714819D01*
X151026857Y-47714819D02*
X151169714Y-47762438D01*
X151169714Y-47762438D02*
X151217333Y-47810057D01*
X152122095Y-47714819D02*
X151645905Y-47714819D01*
X151645905Y-47714819D02*
X151598286Y-48191009D01*
X151598286Y-48191009D02*
X151645905Y-48143390D01*
X151645905Y-48143390D02*
X151741143Y-48095771D01*
X151741143Y-48095771D02*
X151979238Y-48095771D01*
X151979238Y-48095771D02*
X152074476Y-48143390D01*
X152074476Y-48143390D02*
X152122095Y-48191009D01*
X152122095Y-48191009D02*
X152169714Y-48286247D01*
X152169714Y-48286247D02*
X152169714Y-48524342D01*
X152169714Y-48524342D02*
X152122095Y-48619580D01*
X152122095Y-48619580D02*
X152074476Y-48667200D01*
X152074476Y-48667200D02*
X151979238Y-48714819D01*
X151979238Y-48714819D02*
X151741143Y-48714819D01*
X151741143Y-48714819D02*
X151645905Y-48667200D01*
X151645905Y-48667200D02*
X151598286Y-48619580D01*
X171791333Y-54207580D02*
X171743714Y-54255200D01*
X171743714Y-54255200D02*
X171600857Y-54302819D01*
X171600857Y-54302819D02*
X171505619Y-54302819D01*
X171505619Y-54302819D02*
X171362762Y-54255200D01*
X171362762Y-54255200D02*
X171267524Y-54159961D01*
X171267524Y-54159961D02*
X171219905Y-54064723D01*
X171219905Y-54064723D02*
X171172286Y-53874247D01*
X171172286Y-53874247D02*
X171172286Y-53731390D01*
X171172286Y-53731390D02*
X171219905Y-53540914D01*
X171219905Y-53540914D02*
X171267524Y-53445676D01*
X171267524Y-53445676D02*
X171362762Y-53350438D01*
X171362762Y-53350438D02*
X171505619Y-53302819D01*
X171505619Y-53302819D02*
X171600857Y-53302819D01*
X171600857Y-53302819D02*
X171743714Y-53350438D01*
X171743714Y-53350438D02*
X171791333Y-53398057D01*
X172743714Y-54302819D02*
X172172286Y-54302819D01*
X172458000Y-54302819D02*
X172458000Y-53302819D01*
X172458000Y-53302819D02*
X172362762Y-53445676D01*
X172362762Y-53445676D02*
X172267524Y-53540914D01*
X172267524Y-53540914D02*
X172172286Y-53588533D01*
X164679333Y-57001580D02*
X164631714Y-57049200D01*
X164631714Y-57049200D02*
X164488857Y-57096819D01*
X164488857Y-57096819D02*
X164393619Y-57096819D01*
X164393619Y-57096819D02*
X164250762Y-57049200D01*
X164250762Y-57049200D02*
X164155524Y-56953961D01*
X164155524Y-56953961D02*
X164107905Y-56858723D01*
X164107905Y-56858723D02*
X164060286Y-56668247D01*
X164060286Y-56668247D02*
X164060286Y-56525390D01*
X164060286Y-56525390D02*
X164107905Y-56334914D01*
X164107905Y-56334914D02*
X164155524Y-56239676D01*
X164155524Y-56239676D02*
X164250762Y-56144438D01*
X164250762Y-56144438D02*
X164393619Y-56096819D01*
X164393619Y-56096819D02*
X164488857Y-56096819D01*
X164488857Y-56096819D02*
X164631714Y-56144438D01*
X164631714Y-56144438D02*
X164679333Y-56192057D01*
X165012667Y-56096819D02*
X165631714Y-56096819D01*
X165631714Y-56096819D02*
X165298381Y-56477771D01*
X165298381Y-56477771D02*
X165441238Y-56477771D01*
X165441238Y-56477771D02*
X165536476Y-56525390D01*
X165536476Y-56525390D02*
X165584095Y-56573009D01*
X165584095Y-56573009D02*
X165631714Y-56668247D01*
X165631714Y-56668247D02*
X165631714Y-56906342D01*
X165631714Y-56906342D02*
X165584095Y-57001580D01*
X165584095Y-57001580D02*
X165536476Y-57049200D01*
X165536476Y-57049200D02*
X165441238Y-57096819D01*
X165441238Y-57096819D02*
X165155524Y-57096819D01*
X165155524Y-57096819D02*
X165060286Y-57049200D01*
X165060286Y-57049200D02*
X165012667Y-57001580D01*
X145319809Y-54588628D02*
X145319809Y-55064819D01*
X144986476Y-54064819D02*
X145319809Y-54588628D01*
X145319809Y-54588628D02*
X145653142Y-54064819D01*
X146510285Y-55064819D02*
X145938857Y-55064819D01*
X146224571Y-55064819D02*
X146224571Y-54064819D01*
X146224571Y-54064819D02*
X146129333Y-54207676D01*
X146129333Y-54207676D02*
X146034095Y-54302914D01*
X146034095Y-54302914D02*
X145938857Y-54350533D01*
X170521333Y-50651580D02*
X170473714Y-50699200D01*
X170473714Y-50699200D02*
X170330857Y-50746819D01*
X170330857Y-50746819D02*
X170235619Y-50746819D01*
X170235619Y-50746819D02*
X170092762Y-50699200D01*
X170092762Y-50699200D02*
X169997524Y-50603961D01*
X169997524Y-50603961D02*
X169949905Y-50508723D01*
X169949905Y-50508723D02*
X169902286Y-50318247D01*
X169902286Y-50318247D02*
X169902286Y-50175390D01*
X169902286Y-50175390D02*
X169949905Y-49984914D01*
X169949905Y-49984914D02*
X169997524Y-49889676D01*
X169997524Y-49889676D02*
X170092762Y-49794438D01*
X170092762Y-49794438D02*
X170235619Y-49746819D01*
X170235619Y-49746819D02*
X170330857Y-49746819D01*
X170330857Y-49746819D02*
X170473714Y-49794438D01*
X170473714Y-49794438D02*
X170521333Y-49842057D01*
X170902286Y-49842057D02*
X170949905Y-49794438D01*
X170949905Y-49794438D02*
X171045143Y-49746819D01*
X171045143Y-49746819D02*
X171283238Y-49746819D01*
X171283238Y-49746819D02*
X171378476Y-49794438D01*
X171378476Y-49794438D02*
X171426095Y-49842057D01*
X171426095Y-49842057D02*
X171473714Y-49937295D01*
X171473714Y-49937295D02*
X171473714Y-50032533D01*
X171473714Y-50032533D02*
X171426095Y-50175390D01*
X171426095Y-50175390D02*
X170854667Y-50746819D01*
X170854667Y-50746819D02*
X171473714Y-50746819D01*
X163258833Y-50746819D02*
X162925500Y-50270628D01*
X162687405Y-50746819D02*
X162687405Y-49746819D01*
X162687405Y-49746819D02*
X163068357Y-49746819D01*
X163068357Y-49746819D02*
X163163595Y-49794438D01*
X163163595Y-49794438D02*
X163211214Y-49842057D01*
X163211214Y-49842057D02*
X163258833Y-49937295D01*
X163258833Y-49937295D02*
X163258833Y-50080152D01*
X163258833Y-50080152D02*
X163211214Y-50175390D01*
X163211214Y-50175390D02*
X163163595Y-50223009D01*
X163163595Y-50223009D02*
X163068357Y-50270628D01*
X163068357Y-50270628D02*
X162687405Y-50270628D01*
X164115976Y-49746819D02*
X163925500Y-49746819D01*
X163925500Y-49746819D02*
X163830262Y-49794438D01*
X163830262Y-49794438D02*
X163782643Y-49842057D01*
X163782643Y-49842057D02*
X163687405Y-49984914D01*
X163687405Y-49984914D02*
X163639786Y-50175390D01*
X163639786Y-50175390D02*
X163639786Y-50556342D01*
X163639786Y-50556342D02*
X163687405Y-50651580D01*
X163687405Y-50651580D02*
X163735024Y-50699200D01*
X163735024Y-50699200D02*
X163830262Y-50746819D01*
X163830262Y-50746819D02*
X164020738Y-50746819D01*
X164020738Y-50746819D02*
X164115976Y-50699200D01*
X164115976Y-50699200D02*
X164163595Y-50651580D01*
X164163595Y-50651580D02*
X164211214Y-50556342D01*
X164211214Y-50556342D02*
X164211214Y-50318247D01*
X164211214Y-50318247D02*
X164163595Y-50223009D01*
X164163595Y-50223009D02*
X164115976Y-50175390D01*
X164115976Y-50175390D02*
X164020738Y-50127771D01*
X164020738Y-50127771D02*
X163830262Y-50127771D01*
X163830262Y-50127771D02*
X163735024Y-50175390D01*
X163735024Y-50175390D02*
X163687405Y-50223009D01*
X163687405Y-50223009D02*
X163639786Y-50318247D01*
X159546333Y-48619580D02*
X159498714Y-48667200D01*
X159498714Y-48667200D02*
X159355857Y-48714819D01*
X159355857Y-48714819D02*
X159260619Y-48714819D01*
X159260619Y-48714819D02*
X159117762Y-48667200D01*
X159117762Y-48667200D02*
X159022524Y-48571961D01*
X159022524Y-48571961D02*
X158974905Y-48476723D01*
X158974905Y-48476723D02*
X158927286Y-48286247D01*
X158927286Y-48286247D02*
X158927286Y-48143390D01*
X158927286Y-48143390D02*
X158974905Y-47952914D01*
X158974905Y-47952914D02*
X159022524Y-47857676D01*
X159022524Y-47857676D02*
X159117762Y-47762438D01*
X159117762Y-47762438D02*
X159260619Y-47714819D01*
X159260619Y-47714819D02*
X159355857Y-47714819D01*
X159355857Y-47714819D02*
X159498714Y-47762438D01*
X159498714Y-47762438D02*
X159546333Y-47810057D01*
X159879667Y-47714819D02*
X160546333Y-47714819D01*
X160546333Y-47714819D02*
X160117762Y-48714819D01*
X145836333Y-62430819D02*
X145503000Y-61954628D01*
X145264905Y-62430819D02*
X145264905Y-61430819D01*
X145264905Y-61430819D02*
X145645857Y-61430819D01*
X145645857Y-61430819D02*
X145741095Y-61478438D01*
X145741095Y-61478438D02*
X145788714Y-61526057D01*
X145788714Y-61526057D02*
X145836333Y-61621295D01*
X145836333Y-61621295D02*
X145836333Y-61764152D01*
X145836333Y-61764152D02*
X145788714Y-61859390D01*
X145788714Y-61859390D02*
X145741095Y-61907009D01*
X145741095Y-61907009D02*
X145645857Y-61954628D01*
X145645857Y-61954628D02*
X145264905Y-61954628D01*
X146169667Y-61430819D02*
X146836333Y-61430819D01*
X146836333Y-61430819D02*
X146407762Y-62430819D01*
D12*
%TO.C,R4*%
X148948224Y-50785500D02*
X148438776Y-50785500D01*
X148948224Y-51830500D02*
X148438776Y-51830500D01*
%TO.C,JP1*%
X159524000Y-61006000D02*
X159524000Y-60406000D01*
X160224000Y-59706000D02*
X161624000Y-59706000D01*
X161624000Y-61706000D02*
X160224000Y-61706000D01*
X162324000Y-60406000D02*
X162324000Y-61006000D01*
X159524000Y-60406000D02*
G75*
G02*
X160224000Y-59706000I699999J1D01*
G01*
X160224000Y-61706000D02*
G75*
G02*
X159524000Y-61006000I-1J699999D01*
G01*
X161624000Y-59706000D02*
G75*
G02*
X162324000Y-60406000I0J-700000D01*
G01*
X162324000Y-61006000D02*
G75*
G02*
X161624000Y-61706000I-700000J0D01*
G01*
%TO.C,R1*%
X148485776Y-48499500D02*
X148995224Y-48499500D01*
X148485776Y-49544500D02*
X148995224Y-49544500D01*
%TO.C,C9*%
X160535233Y-52068000D02*
X160827767Y-52068000D01*
X160535233Y-53088000D02*
X160827767Y-53088000D01*
%TO.C,R5*%
X156822224Y-60183500D02*
X156312776Y-60183500D01*
X156822224Y-61228500D02*
X156312776Y-61228500D01*
%TO.C,R2*%
X167488776Y-51801500D02*
X167998224Y-51801500D01*
X167488776Y-52846500D02*
X167998224Y-52846500D01*
%TO.C,C8*%
X157180233Y-49274000D02*
X157472767Y-49274000D01*
X157180233Y-50294000D02*
X157472767Y-50294000D01*
%TO.C,U2*%
X148372000Y-59964000D02*
X150172000Y-59964000D01*
X149372000Y-56744000D02*
X148572000Y-56744000D01*
X149372000Y-56744000D02*
X150172000Y-56744000D01*
X148072000Y-56794000D02*
X147832000Y-56464000D01*
X148312000Y-56464000D01*
X148072000Y-56794000D01*
G36*
X148072000Y-56794000D02*
G01*
X147832000Y-56464000D01*
X148312000Y-56464000D01*
X148072000Y-56794000D01*
G37*
%TO.C,R3*%
X167488776Y-57897500D02*
X167998224Y-57897500D01*
X167488776Y-58942500D02*
X167998224Y-58942500D01*
%TO.C,J1*%
X137812000Y-41800000D02*
X165972000Y-41800000D01*
X137812000Y-44450000D02*
X137812000Y-41800000D01*
X137812000Y-47100000D02*
X137812000Y-45720000D01*
X139192000Y-47100000D02*
X137812000Y-47100000D01*
X140462000Y-44450000D02*
X137812000Y-44450000D01*
X140462000Y-47100000D02*
X140462000Y-44450000D01*
X140462000Y-47100000D02*
X165972000Y-47100000D01*
X165972000Y-47100000D02*
X165972000Y-41800000D01*
%TO.C,C4*%
X171711233Y-57910000D02*
X172003767Y-57910000D01*
X171711233Y-58930000D02*
X172003767Y-58930000D01*
%TO.C,U1*%
X152980000Y-52554000D02*
X153180000Y-52554000D01*
X152980000Y-57174000D02*
X152980000Y-52554000D01*
X153180000Y-57174000D02*
X152980000Y-57174000D01*
X158000000Y-52554000D02*
X158200000Y-52554000D01*
X158200000Y-52554000D02*
X158200000Y-57174000D01*
X158200000Y-57174000D02*
X158000000Y-57174000D01*
X158470000Y-52254000D02*
X158000000Y-51914000D01*
X158470000Y-51574000D01*
X158470000Y-52254000D01*
G36*
X158470000Y-52254000D02*
G01*
X158000000Y-51914000D01*
X158470000Y-51574000D01*
X158470000Y-52254000D01*
G37*
%TO.C,C10*%
X160535233Y-53592000D02*
X160827767Y-53592000D01*
X160535233Y-54612000D02*
X160827767Y-54612000D01*
%TO.C,C6*%
X153969767Y-49274000D02*
X153677233Y-49274000D01*
X153969767Y-50294000D02*
X153677233Y-50294000D01*
%TO.C,C5*%
X153969767Y-47750000D02*
X153677233Y-47750000D01*
X153969767Y-48770000D02*
X153677233Y-48770000D01*
%TO.C,C1*%
X171811733Y-51814000D02*
X172104267Y-51814000D01*
X171811733Y-52834000D02*
X172104267Y-52834000D01*
%TO.C,C3*%
X167647233Y-55878000D02*
X167939767Y-55878000D01*
X167647233Y-56898000D02*
X167939767Y-56898000D01*
%TO.C,Y1*%
X146647000Y-54722000D02*
X147372000Y-54722000D01*
X146647000Y-56022000D02*
X147372000Y-56022000D01*
X147372000Y-53147000D02*
X150972000Y-53147000D01*
X147372000Y-53172000D02*
X147372000Y-53147000D01*
X147372000Y-54722000D02*
X147372000Y-54472000D01*
X147372000Y-56022000D02*
X147372000Y-56047000D01*
X147372000Y-56047000D02*
X150972000Y-56047000D01*
X150972000Y-53147000D02*
X150972000Y-53172000D01*
X150972000Y-54472000D02*
X150972000Y-54722000D01*
X150972000Y-56047000D02*
X150972000Y-56022000D01*
%TO.C,C2*%
X167647233Y-49782000D02*
X167939767Y-49782000D01*
X167647233Y-50802000D02*
X167939767Y-50802000D01*
%TO.C,R6*%
X163170776Y-48245500D02*
X163680224Y-48245500D01*
X163170776Y-49290500D02*
X163680224Y-49290500D01*
%TO.C,C7*%
X157180233Y-47750000D02*
X157472767Y-47750000D01*
X157180233Y-48770000D02*
X157472767Y-48770000D01*
%TO.C,R7*%
X148948224Y-61453500D02*
X148438776Y-61453500D01*
X148948224Y-62498500D02*
X148438776Y-62498500D01*
%TD*%
%LPC*%
%TO.C,JP1*%
G36*
X160774000Y-59956000D02*
G01*
X161074000Y-59956000D01*
X161074000Y-61456000D01*
X160774000Y-61456000D01*
X160774000Y-59956000D01*
G37*
%TD*%
D13*
%TO.C,R4*%
X149606000Y-51308000D03*
X147781000Y-51308000D03*
%TD*%
D14*
%TO.C,JP1*%
X160274000Y-60706000D03*
D15*
X161574000Y-60706000D03*
%TD*%
D16*
%TO.C,R1*%
X147828000Y-49022000D03*
X149653000Y-49022000D03*
%TD*%
D17*
%TO.C,C9*%
X159819000Y-52578000D03*
X161544000Y-52578000D03*
%TD*%
D13*
%TO.C,R5*%
X157480000Y-60706000D03*
X155655000Y-60706000D03*
%TD*%
D16*
%TO.C,R2*%
X166831000Y-52324000D03*
X168656000Y-52324000D03*
%TD*%
D17*
%TO.C,C8*%
X156464000Y-49784000D03*
X158189000Y-49784000D03*
%TD*%
D18*
%TO.C,U2*%
X147922000Y-57404000D03*
X147922000Y-58354000D03*
X147922000Y-59304000D03*
X150622000Y-59304000D03*
X150622000Y-57404000D03*
%TD*%
D19*
%TO.C,P2*%
X176784000Y-55372000D03*
%TD*%
D16*
%TO.C,R3*%
X166831000Y-58420000D03*
X168656000Y-58420000D03*
%TD*%
D20*
%TO.C,J1*%
X139192000Y-45720000D03*
D21*
X139192000Y-43180000D03*
X141732000Y-45720000D03*
X141732000Y-43180000D03*
X144272000Y-45720000D03*
X144272000Y-43180000D03*
X146812000Y-45720000D03*
X146812000Y-43180000D03*
X149352000Y-45720000D03*
X149352000Y-43180000D03*
X151892000Y-45720000D03*
X151892000Y-43180000D03*
X154432000Y-45720000D03*
X154432000Y-43180000D03*
X156972000Y-45720000D03*
X156972000Y-43180000D03*
X159512000Y-45720000D03*
X159512000Y-43180000D03*
X162052000Y-45720000D03*
X162052000Y-43180000D03*
X164592000Y-45720000D03*
X164592000Y-43180000D03*
%TD*%
D17*
%TO.C,C4*%
X170995000Y-58420000D03*
X172720000Y-58420000D03*
%TD*%
D22*
%TO.C,U1*%
X157540000Y-52001500D03*
X156890000Y-52001500D03*
X156240000Y-52001500D03*
X155590000Y-52001500D03*
X154940000Y-52001500D03*
X154290000Y-52001500D03*
X153640000Y-52001500D03*
X153640000Y-57726500D03*
X154290000Y-57726500D03*
X154940000Y-57726500D03*
X155590000Y-57726500D03*
X156240000Y-57726500D03*
X156890000Y-57726500D03*
X157540000Y-57726500D03*
%TD*%
D17*
%TO.C,C10*%
X159819000Y-54102000D03*
X161544000Y-54102000D03*
%TD*%
D23*
%TO.C,C6*%
X154686000Y-49784000D03*
X152961000Y-49784000D03*
%TD*%
%TO.C,C5*%
X154686000Y-48260000D03*
X152961000Y-48260000D03*
%TD*%
D17*
%TO.C,C1*%
X171095500Y-52324000D03*
X172820500Y-52324000D03*
%TD*%
%TO.C,C3*%
X166931000Y-56388000D03*
X168656000Y-56388000D03*
%TD*%
D24*
%TO.C,Y1*%
X147722000Y-55372000D03*
X150622000Y-55372000D03*
X150622000Y-53822000D03*
X147722000Y-53822000D03*
%TD*%
D17*
%TO.C,C2*%
X166931000Y-50292000D03*
X168656000Y-50292000D03*
%TD*%
D19*
%TO.C,P3*%
X176784000Y-58420000D03*
%TD*%
D16*
%TO.C,R6*%
X162513000Y-48768000D03*
X164338000Y-48768000D03*
%TD*%
D17*
%TO.C,C7*%
X156464000Y-48260000D03*
X158189000Y-48260000D03*
%TD*%
D19*
%TO.C,P1*%
X176784000Y-52324000D03*
%TD*%
D13*
%TO.C,R7*%
X149606000Y-61976000D03*
X147781000Y-61976000D03*
%TD*%
%LPD*%
M02*
