%TF.GenerationSoftware,KiCad,Pcbnew,9.0.7*%
%TF.CreationDate,2026-03-14T23:14:57+00:00*%
%TF.ProjectId,rgbtohdmi-audio,72676274-6f68-4646-9d69-2d617564696f,rev?*%
%TF.SameCoordinates,Original*%
%TF.FileFunction,Copper,L2,Bot*%
%TF.FilePolarity,Positive*%
%FSLAX46Y46*%
G04 Gerber Fmt 4.6, Leading zero omitted, Abs format (unit mm)*
G04 Created by KiCad (PCBNEW 9.0.7) date 2026-03-14 23:14:57*
%MOMM*%
%LPD*%
G01*
G04 APERTURE LIST*
%TA.AperFunction,ComponentPad*%
%ADD10R,1.700000X1.700000*%
%TD*%
%TA.AperFunction,ComponentPad*%
%ADD11C,1.700000*%
%TD*%
%TA.AperFunction,ViaPad*%
%ADD12C,0.800000*%
%TD*%
%TA.AperFunction,ViaPad*%
%ADD13C,0.600000*%
%TD*%
%TA.AperFunction,Conductor*%
%ADD14C,0.400000*%
%TD*%
%TA.AperFunction,Conductor*%
%ADD15C,0.200000*%
%TD*%
G04 APERTURE END LIST*
D10*
%TO.P,J1,1,3V3*%
%TO.N,unconnected-(J1-3V3-Pad1)*%
X139192000Y-45720000D03*
D11*
%TO.P,J1,2,5V*%
%TO.N,+5V*%
X139192000Y-43180000D03*
%TO.P,J1,3,SDA/GPIO2*%
%TO.N,unconnected-(J1-SDA{slash}GPIO2-Pad3)*%
X141732000Y-45720000D03*
%TO.P,J1,4,5V*%
%TO.N,+5V*%
X141732000Y-43180000D03*
%TO.P,J1,5,SCL/GPIO3*%
%TO.N,unconnected-(J1-SCL{slash}GPIO3-Pad5)*%
X144272000Y-45720000D03*
%TO.P,J1,6,GND*%
%TO.N,unconnected-(J1-GND-Pad6)*%
X144272000Y-43180000D03*
%TO.P,J1,7,GCLK0/GPIO4*%
%TO.N,unconnected-(J1-GCLK0{slash}GPIO4-Pad7)*%
X146812000Y-45720000D03*
%TO.P,J1,8,GPIO14/TXD*%
%TO.N,/~{PRESENT}*%
X146812000Y-43180000D03*
%TO.P,J1,9,GND*%
%TO.N,GND*%
X149352000Y-45720000D03*
%TO.P,J1,10,GPIO15/RXD*%
%TO.N,/AUDIO_CLOCK*%
X149352000Y-43180000D03*
%TO.P,J1,11,GPIO17*%
%TO.N,unconnected-(J1-GPIO17-Pad11)*%
X151892000Y-45720000D03*
%TO.P,J1,12,GPIO18/PWM0*%
%TO.N,unconnected-(J1-GPIO18{slash}PWM0-Pad12)*%
X151892000Y-43180000D03*
%TO.P,J1,13,GPIO27*%
%TO.N,unconnected-(J1-GPIO27-Pad13)*%
X154432000Y-45720000D03*
%TO.P,J1,14,GND*%
%TO.N,GND*%
X154432000Y-43180000D03*
%TO.P,J1,15,GPIO22*%
%TO.N,unconnected-(J1-GPIO22-Pad15)*%
X156972000Y-45720000D03*
%TO.P,J1,16,GPIO23*%
%TO.N,unconnected-(J1-GPIO23-Pad16)*%
X156972000Y-43180000D03*
%TO.P,J1,17,3V3*%
%TO.N,+3.3V*%
X159512000Y-45720000D03*
%TO.P,J1,18,GPIO24*%
%TO.N,/AUDIO_DATA1*%
X159512000Y-43180000D03*
%TO.P,J1,19,MOSI0/GPIO10*%
%TO.N,unconnected-(J1-MOSI0{slash}GPIO10-Pad19)*%
X162052000Y-45720000D03*
%TO.P,J1,20,GND*%
%TO.N,GND*%
X162052000Y-43180000D03*
%TO.P,J1,21,MISO0/GPIO9*%
%TO.N,unconnected-(J1-MISO0{slash}GPIO9-Pad21)*%
X164592000Y-45720000D03*
%TO.P,J1,22,GPIO25*%
%TO.N,/AUDIO_DATA2*%
X164592000Y-43180000D03*
%TD*%
D12*
%TO.N,GND*%
X156718000Y-56388000D03*
X155702000Y-54864000D03*
D13*
X152400000Y-54864000D03*
D12*
X152146000Y-49022000D03*
X173228000Y-54610000D03*
X146304000Y-57150000D03*
X162814000Y-54102000D03*
X163322000Y-57658000D03*
X169926000Y-50292000D03*
X150622000Y-48006000D03*
X163576000Y-60960000D03*
X159512000Y-49784000D03*
X162814000Y-52578000D03*
X159512000Y-48260000D03*
X153924000Y-54864000D03*
D13*
X152146000Y-58674000D03*
D12*
X145288000Y-49784000D03*
D13*
X152400000Y-53086000D03*
D12*
X160782000Y-55880000D03*
X169926000Y-56388000D03*
X156464000Y-53340000D03*
X158496000Y-59690000D03*
X155194000Y-53340000D03*
X173228000Y-56134000D03*
X157226000Y-54864000D03*
X154686000Y-55880000D03*
X149098000Y-60706000D03*
X150622000Y-46736000D03*
%TO.N,+3.3V*%
X154686000Y-47244000D03*
X149352000Y-52578000D03*
X155590000Y-50688000D03*
D13*
%TO.N,/AUDIO_DATA1*%
X145542000Y-51054000D03*
%TO.N,/~{PRESENT}*%
X147551000Y-49167515D03*
%TO.N,/AUDIO_CLOCK*%
X146304000Y-47498000D03*
%TO.N,Net-(U1-LRCK)*%
X159766000Y-51054000D03*
X153001758Y-52251611D03*
%TD*%
D14*
%TO.N,+3.3V*%
X150876000Y-52578000D02*
X149352000Y-52578000D01*
X152766000Y-50688000D02*
X150876000Y-52578000D01*
X157988000Y-47244000D02*
X154686000Y-47244000D01*
X159512000Y-45720000D02*
X157988000Y-47244000D01*
X155590000Y-50688000D02*
X152766000Y-50688000D01*
D15*
%TO.N,/AUDIO_DATA1*%
X150114000Y-50038000D02*
X153281000Y-46871000D01*
X158361000Y-44331000D02*
X159512000Y-43180000D01*
X153281000Y-45243240D02*
X154193240Y-44331000D01*
X153281000Y-46871000D02*
X153281000Y-45243240D01*
X154193240Y-44331000D02*
X158361000Y-44331000D01*
X145542000Y-51054000D02*
X146558000Y-50038000D01*
X146558000Y-50038000D02*
X150114000Y-50038000D01*
%TO.N,/~{PRESENT}*%
X147405485Y-49022000D02*
X147551000Y-49167515D01*
X146812000Y-43180000D02*
X145661000Y-44331000D01*
X145661000Y-48633000D02*
X146050000Y-49022000D01*
X145661000Y-44331000D02*
X145661000Y-48633000D01*
X146050000Y-49022000D02*
X147405485Y-49022000D01*
%TO.N,/AUDIO_CLOCK*%
X146931000Y-46871000D02*
X147304000Y-46871000D01*
X148201000Y-44331000D02*
X149352000Y-43180000D01*
X148201000Y-45974000D02*
X148201000Y-44331000D01*
X147304000Y-46871000D02*
X148201000Y-45974000D01*
X146304000Y-47498000D02*
X146931000Y-46871000D01*
%TO.N,Net-(U1-LRCK)*%
X153540000Y-51438000D02*
X153001758Y-51976242D01*
X156284661Y-51054000D02*
X155900661Y-51438000D01*
X159766000Y-51054000D02*
X156284661Y-51054000D01*
X155900661Y-51438000D02*
X153540000Y-51438000D01*
X153001758Y-51976242D02*
X153001758Y-52251611D01*
%TD*%
%TA.AperFunction,Conductor*%
%TO.N,GND*%
G36*
X161508984Y-42424852D02*
G01*
X161820461Y-42736329D01*
X161744993Y-42779901D01*
X161651901Y-42872993D01*
X161608329Y-42948460D01*
X161282119Y-42622251D01*
X161210120Y-42730005D01*
X161138510Y-42902887D01*
X161138505Y-42902906D01*
X161102000Y-43086427D01*
X161102000Y-43273572D01*
X161138505Y-43457093D01*
X161138510Y-43457112D01*
X161210119Y-43629990D01*
X161282119Y-43737747D01*
X161282120Y-43737748D01*
X161608329Y-43411538D01*
X161651901Y-43487007D01*
X161744993Y-43580099D01*
X161820460Y-43623670D01*
X161494251Y-43949879D01*
X161602009Y-44021880D01*
X161602008Y-44021880D01*
X161774887Y-44093489D01*
X161774906Y-44093494D01*
X161958427Y-44129999D01*
X161958434Y-44130000D01*
X162145566Y-44130000D01*
X162145572Y-44129999D01*
X162329093Y-44093494D01*
X162329112Y-44093489D01*
X162501990Y-44021880D01*
X162609747Y-43949879D01*
X162609747Y-43949878D01*
X162283538Y-43623670D01*
X162359007Y-43580099D01*
X162452099Y-43487007D01*
X162495670Y-43411538D01*
X162821878Y-43737747D01*
X162821879Y-43737747D01*
X162893880Y-43629990D01*
X162965489Y-43457112D01*
X162965494Y-43457093D01*
X163001999Y-43273572D01*
X163002000Y-43273565D01*
X163002000Y-43086434D01*
X163001999Y-43086427D01*
X162965494Y-42902906D01*
X162965489Y-42902887D01*
X162893880Y-42730009D01*
X162821879Y-42622251D01*
X162495670Y-42948460D01*
X162452099Y-42872993D01*
X162359007Y-42779901D01*
X162283538Y-42736329D01*
X162595016Y-42424852D01*
X162629664Y-42410500D01*
X163757572Y-42410500D01*
X163792220Y-42424852D01*
X163806572Y-42459500D01*
X163792220Y-42494148D01*
X163776022Y-42510345D01*
X163661058Y-42682403D01*
X163581871Y-42873576D01*
X163581869Y-42873582D01*
X163563115Y-42967868D01*
X163541500Y-43076535D01*
X163541500Y-43283465D01*
X163559308Y-43372993D01*
X163581869Y-43486417D01*
X163581871Y-43486423D01*
X163650981Y-43653268D01*
X163661059Y-43677598D01*
X163776023Y-43849655D01*
X163922345Y-43995977D01*
X164094402Y-44110941D01*
X164285580Y-44190130D01*
X164488535Y-44230500D01*
X164488538Y-44230500D01*
X164695462Y-44230500D01*
X164695465Y-44230500D01*
X164898420Y-44190130D01*
X165089598Y-44110941D01*
X165158277Y-44065050D01*
X165195060Y-44057735D01*
X165226242Y-44078570D01*
X165234500Y-44105793D01*
X165234500Y-44794206D01*
X165220148Y-44828854D01*
X165185500Y-44843206D01*
X165158278Y-44834948D01*
X165089598Y-44789059D01*
X164898423Y-44709871D01*
X164898417Y-44709869D01*
X164816572Y-44693589D01*
X164695465Y-44669500D01*
X164488535Y-44669500D01*
X164387520Y-44689592D01*
X164285582Y-44709869D01*
X164285576Y-44709871D01*
X164094403Y-44789058D01*
X163922345Y-44904022D01*
X163776022Y-45050345D01*
X163661058Y-45222403D01*
X163581871Y-45413576D01*
X163581869Y-45413582D01*
X163563115Y-45507868D01*
X163541500Y-45616535D01*
X163541500Y-45823465D01*
X163557407Y-45903436D01*
X163581869Y-46026417D01*
X163581871Y-46026423D01*
X163661058Y-46217596D01*
X163661059Y-46217598D01*
X163776023Y-46389655D01*
X163922345Y-46535977D01*
X164094402Y-46650941D01*
X164285580Y-46730130D01*
X164488535Y-46770500D01*
X164488538Y-46770500D01*
X164695462Y-46770500D01*
X164695465Y-46770500D01*
X164898420Y-46730130D01*
X165089598Y-46650941D01*
X165158277Y-46605050D01*
X165195060Y-46597735D01*
X165226242Y-46618570D01*
X165234500Y-46645793D01*
X165234500Y-48325895D01*
X165268607Y-48453184D01*
X165268608Y-48453188D01*
X165334500Y-48567314D01*
X165427686Y-48660500D01*
X165448578Y-48672562D01*
X165541811Y-48726391D01*
X165541813Y-48726391D01*
X165541814Y-48726392D01*
X165642207Y-48753292D01*
X165669104Y-48760499D01*
X165669105Y-48760500D01*
X165669108Y-48760500D01*
X179790500Y-48760500D01*
X179825148Y-48774852D01*
X179839500Y-48809500D01*
X179839500Y-62950500D01*
X179825148Y-62985148D01*
X179790500Y-62999500D01*
X170729500Y-62999500D01*
X170694852Y-62985148D01*
X170680500Y-62950500D01*
X170680500Y-60894105D01*
X170680499Y-60894104D01*
X170646392Y-60766815D01*
X170646391Y-60766811D01*
X170580499Y-60652685D01*
X170487314Y-60559500D01*
X170373188Y-60493608D01*
X170373184Y-60493607D01*
X170245895Y-60459500D01*
X170245892Y-60459500D01*
X165165892Y-60459500D01*
X165034108Y-60459500D01*
X165034105Y-60459500D01*
X164906815Y-60493607D01*
X164906811Y-60493608D01*
X164792685Y-60559500D01*
X164792685Y-60559501D01*
X164699501Y-60652685D01*
X164699500Y-60652685D01*
X164633608Y-60766811D01*
X164633607Y-60766815D01*
X164599500Y-60894104D01*
X164599500Y-62950500D01*
X164585148Y-62985148D01*
X164550500Y-62999500D01*
X144694500Y-62999500D01*
X144659852Y-62985148D01*
X144645500Y-62950500D01*
X144645500Y-52498939D01*
X148751500Y-52498939D01*
X148751500Y-52657060D01*
X148792422Y-52809782D01*
X148792423Y-52809786D01*
X148871475Y-52946709D01*
X148871478Y-52946713D01*
X148871480Y-52946716D01*
X148983284Y-53058520D01*
X148983287Y-53058521D01*
X148983290Y-53058524D01*
X149120213Y-53137576D01*
X149120215Y-53137576D01*
X149120216Y-53137577D01*
X149240665Y-53169851D01*
X149272939Y-53178499D01*
X149272940Y-53178500D01*
X149272943Y-53178500D01*
X149431060Y-53178500D01*
X149431060Y-53178499D01*
X149583784Y-53137577D01*
X149720716Y-53058520D01*
X149786384Y-52992852D01*
X149821032Y-52978500D01*
X150928730Y-52978500D01*
X150928730Y-52978499D01*
X151030588Y-52951207D01*
X151121913Y-52898480D01*
X152917540Y-51102851D01*
X152952188Y-51088500D01*
X153361482Y-51088500D01*
X153396130Y-51102852D01*
X153410482Y-51137500D01*
X153396130Y-51172148D01*
X153385982Y-51179935D01*
X153355488Y-51197540D01*
X153355488Y-51197541D01*
X152761301Y-51791727D01*
X152761294Y-51791737D01*
X152749863Y-51811534D01*
X152731930Y-51829466D01*
X152694452Y-51851105D01*
X152694440Y-51851114D01*
X152601259Y-51944296D01*
X152601258Y-51944296D01*
X152535366Y-52058422D01*
X152535365Y-52058426D01*
X152501258Y-52185715D01*
X152501258Y-52317506D01*
X152535365Y-52444795D01*
X152535366Y-52444799D01*
X152566627Y-52498943D01*
X152601258Y-52558925D01*
X152694444Y-52652111D01*
X152703011Y-52657057D01*
X152808569Y-52718002D01*
X152808571Y-52718002D01*
X152808572Y-52718003D01*
X152908965Y-52744903D01*
X152935862Y-52752110D01*
X152935863Y-52752111D01*
X152935866Y-52752111D01*
X153067653Y-52752111D01*
X153067653Y-52752110D01*
X153194944Y-52718003D01*
X153309072Y-52652111D01*
X153402258Y-52558925D01*
X153468150Y-52444797D01*
X153502257Y-52317506D01*
X153502258Y-52317506D01*
X153502258Y-52185716D01*
X153502257Y-52185715D01*
X153478615Y-52097482D01*
X153468150Y-52058425D01*
X153441705Y-52012622D01*
X153436810Y-51975443D01*
X153449491Y-51953478D01*
X153650119Y-51752852D01*
X153684767Y-51738500D01*
X155940225Y-51738500D01*
X155966891Y-51731354D01*
X156016650Y-51718021D01*
X156085172Y-51678460D01*
X156141121Y-51622511D01*
X156394780Y-51368852D01*
X156429428Y-51354500D01*
X159338390Y-51354500D01*
X159373038Y-51368852D01*
X159458686Y-51454500D01*
X159500457Y-51478617D01*
X159572811Y-51520391D01*
X159572813Y-51520391D01*
X159572814Y-51520392D01*
X159673207Y-51547292D01*
X159700104Y-51554499D01*
X159700105Y-51554500D01*
X159700108Y-51554500D01*
X159831895Y-51554500D01*
X159831895Y-51554499D01*
X159959186Y-51520392D01*
X160073314Y-51454500D01*
X160166500Y-51361314D01*
X160232392Y-51247186D01*
X160266499Y-51119895D01*
X160266500Y-51119895D01*
X160266500Y-50988105D01*
X160266499Y-50988104D01*
X160232392Y-50860815D01*
X160232391Y-50860811D01*
X160190617Y-50788457D01*
X160166500Y-50746686D01*
X160073314Y-50653500D01*
X159959188Y-50587608D01*
X159959184Y-50587607D01*
X159831895Y-50553500D01*
X159831892Y-50553500D01*
X159700108Y-50553500D01*
X159700105Y-50553500D01*
X159572815Y-50587607D01*
X159572811Y-50587608D01*
X159458685Y-50653500D01*
X159458685Y-50653501D01*
X159373038Y-50739148D01*
X159338390Y-50753500D01*
X156241887Y-50753500D01*
X156241887Y-50752321D01*
X156209667Y-50743685D01*
X156190919Y-50711205D01*
X156190500Y-50704814D01*
X156190500Y-50608940D01*
X156190499Y-50608939D01*
X156175644Y-50553500D01*
X156149577Y-50456216D01*
X156149576Y-50456215D01*
X156149576Y-50456213D01*
X156070523Y-50319289D01*
X156070522Y-50319288D01*
X156070520Y-50319284D01*
X155958716Y-50207480D01*
X155958713Y-50207478D01*
X155958709Y-50207475D01*
X155821786Y-50128423D01*
X155821782Y-50128422D01*
X155669060Y-50087500D01*
X155669057Y-50087500D01*
X155510943Y-50087500D01*
X155510940Y-50087500D01*
X155358217Y-50128422D01*
X155358213Y-50128423D01*
X155221290Y-50207475D01*
X155221281Y-50207482D01*
X155155616Y-50273148D01*
X155120968Y-50287500D01*
X152821740Y-50287500D01*
X152821724Y-50287499D01*
X152818727Y-50287499D01*
X152713273Y-50287499D01*
X152713271Y-50287499D01*
X152611414Y-50314792D01*
X152611410Y-50314793D01*
X152520086Y-50367520D01*
X152520086Y-50367521D01*
X150724459Y-52163148D01*
X150689811Y-52177500D01*
X149821032Y-52177500D01*
X149786384Y-52163148D01*
X149720718Y-52097482D01*
X149720716Y-52097480D01*
X149720713Y-52097478D01*
X149720709Y-52097475D01*
X149583786Y-52018423D01*
X149583782Y-52018422D01*
X149431060Y-51977500D01*
X149431057Y-51977500D01*
X149272943Y-51977500D01*
X149272940Y-51977500D01*
X149120217Y-52018422D01*
X149120213Y-52018423D01*
X148983290Y-52097475D01*
X148983281Y-52097482D01*
X148871482Y-52209281D01*
X148871475Y-52209290D01*
X148792423Y-52346213D01*
X148792422Y-52346217D01*
X148751500Y-52498939D01*
X144645500Y-52498939D01*
X144645500Y-46924105D01*
X144645499Y-46924104D01*
X144623901Y-46843500D01*
X144611392Y-46796814D01*
X144611391Y-46796813D01*
X144611391Y-46796811D01*
X144601896Y-46780366D01*
X144597001Y-46743184D01*
X144619831Y-46713431D01*
X144625579Y-46710596D01*
X144628255Y-46709487D01*
X144769598Y-46650941D01*
X144941655Y-46535977D01*
X145087977Y-46389655D01*
X145202941Y-46217598D01*
X145266230Y-46064804D01*
X145292749Y-46038287D01*
X145330252Y-46038287D01*
X145356770Y-46064806D01*
X145360500Y-46083557D01*
X145360500Y-48672563D01*
X145380978Y-48748987D01*
X145380979Y-48748991D01*
X145407144Y-48794308D01*
X145407145Y-48794309D01*
X145420537Y-48817507D01*
X145420539Y-48817509D01*
X145420540Y-48817511D01*
X145809540Y-49206511D01*
X145865489Y-49262460D01*
X145934011Y-49302021D01*
X145969478Y-49311524D01*
X146010436Y-49322500D01*
X146010438Y-49322500D01*
X147036773Y-49322500D01*
X147071421Y-49336852D01*
X147084102Y-49358813D01*
X147084608Y-49360701D01*
X147150500Y-49474829D01*
X147243686Y-49568015D01*
X147285457Y-49592132D01*
X147357811Y-49633906D01*
X147357813Y-49633906D01*
X147357814Y-49633907D01*
X147370463Y-49637296D01*
X147384919Y-49641170D01*
X147414672Y-49664000D01*
X147419567Y-49701182D01*
X147396737Y-49730935D01*
X147372237Y-49737500D01*
X146518436Y-49737500D01*
X146442010Y-49757979D01*
X146442008Y-49757979D01*
X146373488Y-49797540D01*
X145631880Y-50539148D01*
X145597232Y-50553500D01*
X145476105Y-50553500D01*
X145348815Y-50587607D01*
X145348811Y-50587608D01*
X145234685Y-50653500D01*
X145234685Y-50653501D01*
X145141501Y-50746685D01*
X145141500Y-50746685D01*
X145075608Y-50860811D01*
X145075607Y-50860815D01*
X145041500Y-50988104D01*
X145041500Y-51119895D01*
X145075607Y-51247184D01*
X145075608Y-51247188D01*
X145137566Y-51354500D01*
X145141500Y-51361314D01*
X145234686Y-51454500D01*
X145276457Y-51478617D01*
X145348811Y-51520391D01*
X145348813Y-51520391D01*
X145348814Y-51520392D01*
X145449207Y-51547292D01*
X145476104Y-51554499D01*
X145476105Y-51554500D01*
X145476108Y-51554500D01*
X145607895Y-51554500D01*
X145607895Y-51554499D01*
X145735186Y-51520392D01*
X145849314Y-51454500D01*
X145942500Y-51361314D01*
X146008392Y-51247186D01*
X146042499Y-51119895D01*
X146042500Y-51119895D01*
X146042500Y-50998766D01*
X146056852Y-50964118D01*
X146668119Y-50352852D01*
X146702767Y-50338500D01*
X150153564Y-50338500D01*
X150180230Y-50331354D01*
X150229989Y-50318021D01*
X150298511Y-50278460D01*
X150354460Y-50222511D01*
X153521460Y-47055511D01*
X153546456Y-47012216D01*
X153561021Y-46986989D01*
X153581500Y-46910562D01*
X153581500Y-46473428D01*
X153595852Y-46438780D01*
X153630500Y-46424428D01*
X153665148Y-46438780D01*
X153762345Y-46535977D01*
X153934402Y-46650941D01*
X154125580Y-46730130D01*
X154223384Y-46749584D01*
X154254566Y-46770419D01*
X154261883Y-46807201D01*
X154248473Y-46832289D01*
X154205482Y-46875281D01*
X154205475Y-46875290D01*
X154126423Y-47012213D01*
X154126423Y-47012215D01*
X154085500Y-47164939D01*
X154085500Y-47323060D01*
X154126422Y-47475782D01*
X154126423Y-47475786D01*
X154205475Y-47612709D01*
X154205478Y-47612713D01*
X154205480Y-47612716D01*
X154317284Y-47724520D01*
X154317287Y-47724521D01*
X154317290Y-47724524D01*
X154454213Y-47803576D01*
X154454215Y-47803576D01*
X154454216Y-47803577D01*
X154574665Y-47835851D01*
X154606939Y-47844499D01*
X154606940Y-47844500D01*
X154606943Y-47844500D01*
X154765060Y-47844500D01*
X154765060Y-47844499D01*
X154917784Y-47803577D01*
X155054716Y-47724520D01*
X155120384Y-47658852D01*
X155155032Y-47644500D01*
X158040730Y-47644500D01*
X158040730Y-47644499D01*
X158142588Y-47617207D01*
X158233913Y-47564480D01*
X159085331Y-46713060D01*
X159119978Y-46698709D01*
X159138728Y-46702438D01*
X159205580Y-46730130D01*
X159408535Y-46770500D01*
X159408538Y-46770500D01*
X159615462Y-46770500D01*
X159615465Y-46770500D01*
X159818420Y-46730130D01*
X160009598Y-46650941D01*
X160181655Y-46535977D01*
X160327977Y-46389655D01*
X160442941Y-46217598D01*
X160522130Y-46026420D01*
X160562500Y-45823465D01*
X160562500Y-45616535D01*
X161001500Y-45616535D01*
X161001500Y-45823465D01*
X161017407Y-45903436D01*
X161041869Y-46026417D01*
X161041871Y-46026423D01*
X161121058Y-46217596D01*
X161121059Y-46217598D01*
X161236023Y-46389655D01*
X161382345Y-46535977D01*
X161554402Y-46650941D01*
X161745580Y-46730130D01*
X161948535Y-46770500D01*
X161948538Y-46770500D01*
X162155462Y-46770500D01*
X162155465Y-46770500D01*
X162358420Y-46730130D01*
X162549598Y-46650941D01*
X162721655Y-46535977D01*
X162867977Y-46389655D01*
X162982941Y-46217598D01*
X163062130Y-46026420D01*
X163102500Y-45823465D01*
X163102500Y-45616535D01*
X163062130Y-45413580D01*
X162982941Y-45222402D01*
X162867977Y-45050345D01*
X162721655Y-44904023D01*
X162549598Y-44789059D01*
X162396806Y-44725770D01*
X162358423Y-44709871D01*
X162358417Y-44709869D01*
X162276572Y-44693589D01*
X162155465Y-44669500D01*
X161948535Y-44669500D01*
X161847520Y-44689592D01*
X161745582Y-44709869D01*
X161745576Y-44709871D01*
X161554403Y-44789058D01*
X161382345Y-44904022D01*
X161236022Y-45050345D01*
X161121058Y-45222403D01*
X161041871Y-45413576D01*
X161041869Y-45413582D01*
X161023115Y-45507868D01*
X161001500Y-45616535D01*
X160562500Y-45616535D01*
X160522130Y-45413580D01*
X160442941Y-45222402D01*
X160327977Y-45050345D01*
X160181655Y-44904023D01*
X160009598Y-44789059D01*
X159856806Y-44725770D01*
X159818423Y-44709871D01*
X159818417Y-44709869D01*
X159736572Y-44693589D01*
X159615465Y-44669500D01*
X159408535Y-44669500D01*
X159307520Y-44689592D01*
X159205582Y-44709869D01*
X159205576Y-44709871D01*
X159014403Y-44789058D01*
X158842345Y-44904022D01*
X158696022Y-45050345D01*
X158581058Y-45222403D01*
X158501871Y-45413576D01*
X158501869Y-45413582D01*
X158483115Y-45507868D01*
X158461500Y-45616535D01*
X158461500Y-45823465D01*
X158477407Y-45903436D01*
X158501869Y-46026417D01*
X158501872Y-46026427D01*
X158529559Y-46093269D01*
X158529559Y-46130772D01*
X158518937Y-46146668D01*
X157836459Y-46829148D01*
X157801811Y-46843500D01*
X157205975Y-46843500D01*
X157171327Y-46829148D01*
X157156975Y-46794500D01*
X157171327Y-46759852D01*
X157196414Y-46746441D01*
X157278420Y-46730130D01*
X157469598Y-46650941D01*
X157641655Y-46535977D01*
X157787977Y-46389655D01*
X157902941Y-46217598D01*
X157982130Y-46026420D01*
X158022500Y-45823465D01*
X158022500Y-45616535D01*
X157982130Y-45413580D01*
X157902941Y-45222402D01*
X157787977Y-45050345D01*
X157641655Y-44904023D01*
X157469598Y-44789059D01*
X157316804Y-44725769D01*
X157290287Y-44699251D01*
X157290287Y-44661748D01*
X157316806Y-44635230D01*
X157335557Y-44631500D01*
X158400564Y-44631500D01*
X158427230Y-44624354D01*
X158476989Y-44611021D01*
X158545511Y-44571460D01*
X158601460Y-44515511D01*
X158985330Y-44131639D01*
X159019977Y-44117288D01*
X159038728Y-44121018D01*
X159205572Y-44190127D01*
X159205574Y-44190127D01*
X159205580Y-44190130D01*
X159408535Y-44230500D01*
X159408538Y-44230500D01*
X159615462Y-44230500D01*
X159615465Y-44230500D01*
X159818420Y-44190130D01*
X160009598Y-44110941D01*
X160181655Y-43995977D01*
X160327977Y-43849655D01*
X160442941Y-43677598D01*
X160522130Y-43486420D01*
X160562500Y-43283465D01*
X160562500Y-43076535D01*
X160522130Y-42873580D01*
X160442941Y-42682402D01*
X160327977Y-42510345D01*
X160311780Y-42494148D01*
X160297428Y-42459500D01*
X160311780Y-42424852D01*
X160346428Y-42410500D01*
X161474336Y-42410500D01*
X161508984Y-42424852D01*
G37*
%TD.AperFunction*%
%TA.AperFunction,Conductor*%
G36*
X151092220Y-42424852D02*
G01*
X151106572Y-42459500D01*
X151092220Y-42494148D01*
X151076022Y-42510345D01*
X150961058Y-42682403D01*
X150881871Y-42873576D01*
X150881869Y-42873582D01*
X150863115Y-42967868D01*
X150841500Y-43076535D01*
X150841500Y-43283465D01*
X150859308Y-43372993D01*
X150881869Y-43486417D01*
X150881871Y-43486423D01*
X150950981Y-43653268D01*
X150961059Y-43677598D01*
X151076023Y-43849655D01*
X151222345Y-43995977D01*
X151394402Y-44110941D01*
X151585580Y-44190130D01*
X151788535Y-44230500D01*
X151788538Y-44230500D01*
X151995462Y-44230500D01*
X151995465Y-44230500D01*
X152198420Y-44190130D01*
X152389598Y-44110941D01*
X152561655Y-43995977D01*
X152707977Y-43849655D01*
X152822941Y-43677598D01*
X152902130Y-43486420D01*
X152942500Y-43283465D01*
X152942500Y-43076535D01*
X152902130Y-42873580D01*
X152822941Y-42682402D01*
X152707977Y-42510345D01*
X152691780Y-42494148D01*
X152677428Y-42459500D01*
X152691780Y-42424852D01*
X152726428Y-42410500D01*
X153854336Y-42410500D01*
X153888984Y-42424852D01*
X154200461Y-42736329D01*
X154124993Y-42779901D01*
X154031901Y-42872993D01*
X153988329Y-42948460D01*
X153662119Y-42622251D01*
X153590120Y-42730005D01*
X153518510Y-42902887D01*
X153518505Y-42902906D01*
X153482000Y-43086427D01*
X153482000Y-43273572D01*
X153518505Y-43457093D01*
X153518510Y-43457112D01*
X153590119Y-43629990D01*
X153662119Y-43737747D01*
X153662120Y-43737748D01*
X153988329Y-43411538D01*
X154031901Y-43487007D01*
X154124993Y-43580099D01*
X154200460Y-43623670D01*
X153874251Y-43949879D01*
X153982009Y-44021880D01*
X153984133Y-44023016D01*
X153983723Y-44023782D01*
X154008213Y-44048253D01*
X154008227Y-44085756D01*
X153997598Y-44101670D01*
X153096489Y-45002780D01*
X153040541Y-45058728D01*
X153040540Y-45058728D01*
X153000979Y-45127248D01*
X153000979Y-45127250D01*
X152980500Y-45203676D01*
X152980500Y-45356442D01*
X152966148Y-45391090D01*
X152931500Y-45405442D01*
X152896852Y-45391090D01*
X152886230Y-45375194D01*
X152863327Y-45319901D01*
X152822941Y-45222402D01*
X152707977Y-45050345D01*
X152561655Y-44904023D01*
X152389598Y-44789059D01*
X152236806Y-44725770D01*
X152198423Y-44709871D01*
X152198417Y-44709869D01*
X152116572Y-44693589D01*
X151995465Y-44669500D01*
X151788535Y-44669500D01*
X151687520Y-44689592D01*
X151585582Y-44709869D01*
X151585576Y-44709871D01*
X151394403Y-44789058D01*
X151222345Y-44904022D01*
X151076022Y-45050345D01*
X150961058Y-45222403D01*
X150881871Y-45413576D01*
X150881869Y-45413582D01*
X150863115Y-45507868D01*
X150841500Y-45616535D01*
X150841500Y-45823465D01*
X150857407Y-45903436D01*
X150881869Y-46026417D01*
X150881871Y-46026423D01*
X150961058Y-46217596D01*
X150961059Y-46217598D01*
X151076023Y-46389655D01*
X151222345Y-46535977D01*
X151394402Y-46650941D01*
X151585580Y-46730130D01*
X151788535Y-46770500D01*
X151788538Y-46770500D01*
X151995462Y-46770500D01*
X151995465Y-46770500D01*
X152198420Y-46730130D01*
X152389598Y-46650941D01*
X152561655Y-46535977D01*
X152707977Y-46389655D01*
X152822941Y-46217598D01*
X152886230Y-46064804D01*
X152912749Y-46038287D01*
X152950252Y-46038287D01*
X152976770Y-46064806D01*
X152980500Y-46083557D01*
X152980500Y-46726233D01*
X152966148Y-46760881D01*
X150003881Y-49723148D01*
X149969233Y-49737500D01*
X147729763Y-49737500D01*
X147695115Y-49723148D01*
X147680763Y-49688500D01*
X147695115Y-49653852D01*
X147717081Y-49641170D01*
X147726936Y-49638528D01*
X147744186Y-49633907D01*
X147858314Y-49568015D01*
X147951500Y-49474829D01*
X148017392Y-49360701D01*
X148051499Y-49233410D01*
X148051500Y-49233410D01*
X148051500Y-49101620D01*
X148051499Y-49101619D01*
X148017392Y-48974330D01*
X148017391Y-48974326D01*
X147951499Y-48860200D01*
X147858314Y-48767015D01*
X147744188Y-48701123D01*
X147744184Y-48701122D01*
X147616895Y-48667015D01*
X147616892Y-48667015D01*
X147485108Y-48667015D01*
X147485105Y-48667015D01*
X147357815Y-48701122D01*
X147348183Y-48706683D01*
X147333889Y-48714935D01*
X147309391Y-48721500D01*
X146194767Y-48721500D01*
X146160119Y-48707148D01*
X145975852Y-48522881D01*
X145961500Y-48488233D01*
X145961500Y-47963055D01*
X145975852Y-47928407D01*
X146010500Y-47914055D01*
X146034997Y-47920619D01*
X146110814Y-47964392D01*
X146211207Y-47991292D01*
X146238104Y-47998499D01*
X146238105Y-47998500D01*
X146238108Y-47998500D01*
X146369895Y-47998500D01*
X146369895Y-47998499D01*
X146497186Y-47964392D01*
X146611314Y-47898500D01*
X146704500Y-47805314D01*
X146770392Y-47691186D01*
X146804499Y-47563895D01*
X146804500Y-47563895D01*
X146804500Y-47442766D01*
X146818852Y-47408118D01*
X146929657Y-47297314D01*
X147041119Y-47185852D01*
X147075767Y-47171500D01*
X147343564Y-47171500D01*
X147370230Y-47164354D01*
X147419989Y-47151021D01*
X147488511Y-47111460D01*
X147544460Y-47055511D01*
X148435801Y-46164169D01*
X148470448Y-46149818D01*
X148505096Y-46164170D01*
X148511190Y-46171595D01*
X148582118Y-46277747D01*
X148582120Y-46277748D01*
X148908329Y-45951538D01*
X148951901Y-46027007D01*
X149044993Y-46120099D01*
X149120460Y-46163670D01*
X148794251Y-46489879D01*
X148902009Y-46561880D01*
X148902008Y-46561880D01*
X149074887Y-46633489D01*
X149074906Y-46633494D01*
X149258427Y-46669999D01*
X149258434Y-46670000D01*
X149445566Y-46670000D01*
X149445572Y-46669999D01*
X149629093Y-46633494D01*
X149629112Y-46633489D01*
X149801990Y-46561880D01*
X149909747Y-46489879D01*
X149909747Y-46489878D01*
X149583538Y-46163670D01*
X149659007Y-46120099D01*
X149752099Y-46027007D01*
X149795670Y-45951538D01*
X150121878Y-46277747D01*
X150121879Y-46277747D01*
X150193880Y-46169990D01*
X150265489Y-45997112D01*
X150265494Y-45997093D01*
X150301999Y-45813572D01*
X150302000Y-45813565D01*
X150302000Y-45626434D01*
X150301999Y-45626427D01*
X150265494Y-45442906D01*
X150265489Y-45442887D01*
X150193880Y-45270009D01*
X150121879Y-45162251D01*
X149795670Y-45488460D01*
X149752099Y-45412993D01*
X149659007Y-45319901D01*
X149583538Y-45276329D01*
X149909748Y-44950120D01*
X149909747Y-44950119D01*
X149801990Y-44878119D01*
X149801991Y-44878119D01*
X149629112Y-44806510D01*
X149629093Y-44806505D01*
X149445572Y-44770000D01*
X149258427Y-44770000D01*
X149074906Y-44806505D01*
X149074887Y-44806510D01*
X148902005Y-44878120D01*
X148794251Y-44950119D01*
X149120460Y-45276329D01*
X149044993Y-45319901D01*
X148951901Y-45412993D01*
X148908329Y-45488460D01*
X148582119Y-45162251D01*
X148568850Y-45163558D01*
X148560058Y-45169433D01*
X148523276Y-45162115D01*
X148502441Y-45130932D01*
X148501500Y-45121374D01*
X148501500Y-44475766D01*
X148515851Y-44441119D01*
X148825330Y-44131639D01*
X148859977Y-44117288D01*
X148878728Y-44121018D01*
X149045572Y-44190127D01*
X149045574Y-44190127D01*
X149045580Y-44190130D01*
X149248535Y-44230500D01*
X149248538Y-44230500D01*
X149455462Y-44230500D01*
X149455465Y-44230500D01*
X149658420Y-44190130D01*
X149849598Y-44110941D01*
X150021655Y-43995977D01*
X150167977Y-43849655D01*
X150282941Y-43677598D01*
X150362130Y-43486420D01*
X150402500Y-43283465D01*
X150402500Y-43076535D01*
X150362130Y-42873580D01*
X150282941Y-42682402D01*
X150167977Y-42510345D01*
X150151780Y-42494148D01*
X150137428Y-42459500D01*
X150151780Y-42424852D01*
X150186428Y-42410500D01*
X151057572Y-42410500D01*
X151092220Y-42424852D01*
G37*
%TD.AperFunction*%
%TA.AperFunction,Conductor*%
G36*
X156172220Y-42424852D02*
G01*
X156186572Y-42459500D01*
X156172220Y-42494148D01*
X156156022Y-42510345D01*
X156041058Y-42682403D01*
X155961871Y-42873576D01*
X155961869Y-42873582D01*
X155943115Y-42967868D01*
X155921500Y-43076535D01*
X155921500Y-43283465D01*
X155939308Y-43372993D01*
X155961869Y-43486417D01*
X155961871Y-43486423D01*
X156041058Y-43677596D01*
X156156022Y-43849654D01*
X156253220Y-43946852D01*
X156267572Y-43981500D01*
X156253220Y-44016148D01*
X156218572Y-44030500D01*
X155030622Y-44030500D01*
X154995974Y-44016148D01*
X154981622Y-43981500D01*
X154988196Y-43965628D01*
X154989747Y-43949878D01*
X154663538Y-43623670D01*
X154739007Y-43580099D01*
X154832099Y-43487007D01*
X154875670Y-43411538D01*
X155201878Y-43737747D01*
X155201879Y-43737747D01*
X155273880Y-43629990D01*
X155345489Y-43457112D01*
X155345494Y-43457093D01*
X155381999Y-43273572D01*
X155382000Y-43273565D01*
X155382000Y-43086434D01*
X155381999Y-43086427D01*
X155345494Y-42902906D01*
X155345489Y-42902887D01*
X155273880Y-42730009D01*
X155201879Y-42622251D01*
X154875670Y-42948460D01*
X154832099Y-42872993D01*
X154739007Y-42779901D01*
X154663538Y-42736329D01*
X154975016Y-42424852D01*
X155009664Y-42410500D01*
X156137572Y-42410500D01*
X156172220Y-42424852D01*
G37*
%TD.AperFunction*%
%TD*%
M02*
